<?xml version="1.0" encoding="utf-8"?><svg xmlns="http://www.w3.org/2000/svg" xmlns:xlink="http://www.w3.org/1999/xlink"><symbol viewBox="0 0 39 30" id="comments" xmlns="http://www.w3.org/2000/svg"><g fill="none" fill-rule="evenodd"><path fill="#A9BCC3" fill-rule="nonzero" d="M22.476 20.367c2.302-.97 4.12-2.291 5.45-3.963 1.333-1.672 1.999-3.493 1.999-5.462 0-1.97-.666-3.79-1.998-5.463-1.332-1.672-3.149-2.993-5.451-3.964C20.173.545 17.669.06 14.962.06c-2.706 0-5.21.485-7.513 1.456-2.302.97-4.12 2.292-5.451 3.964C.666 7.15 0 8.972 0 10.942c0 1.686.504 3.273 1.51 4.76 1.005 1.488 2.387 2.743 4.144 3.763-.142.34-.287.651-.436.935a5.388 5.388 0 01-.531.818 73.29 73.29 0 00-.479.616 8.448 8.448 0 01-.552.627c-.255.27-.418.446-.49.531 0-.014-.028.018-.084.096-.057.078-.089.113-.096.107-.007-.008-.035.027-.085.105l-.074.117-.054.106a.445.445 0 00-.042.128.832.832 0 00-.01.138c0 .05.006.095.02.138.029.184.11.332.245.446.135.113.28.17.436.17h.064a17.82 17.82 0 001.827-.34c2.182-.567 4.152-1.474 5.909-2.72 1.275.226 2.522.34 3.74.34 2.707 0 5.211-.485 7.514-1.456zm-11.892-1.774l-.935.659c-.397.269-.836.545-1.317.829l.744-1.786-2.062-1.19c-1.36-.793-2.416-1.728-3.167-2.805-.751-1.077-1.126-2.196-1.126-3.358 0-1.446.556-2.799 1.668-4.06C5.501 5.621 7 4.622 8.884 3.885c1.885-.736 3.91-1.105 6.079-1.105 2.167 0 4.194.369 6.078 1.105 1.884.737 3.383 1.736 4.495 2.997 1.113 1.261 1.668 2.614 1.668 4.06 0 1.445-.555 2.798-1.668 4.059-1.112 1.261-2.61 2.26-4.495 2.997-1.884.736-3.91 1.105-6.078 1.105-1.063 0-2.147-.1-3.252-.298l-1.127-.212z"/><path fill="#F71424" d="M36.577 21.153c1.006-1.481 1.509-3.071 1.509-4.772 0-1.742-.532-3.372-1.594-4.888-1.063-1.516-2.508-2.777-4.336-3.783a10.96 10.96 0 01.489 3.23c0 1.9-.474 3.699-1.424 5.4-.95 1.7-2.31 3.2-4.08 4.505-1.644 1.19-3.515 2.104-5.612 2.741a22.454 22.454 0 01-6.567.957c-.425 0-1.049-.028-1.87-.085 2.848 1.87 6.192 2.805 10.031 2.805a21.32 21.32 0 003.741-.34c1.757 1.247 3.727 2.154 5.908 2.72.51.129 1.12.242 1.828.341a.64.64 0 00.468-.149.787.787 0 00.276-.467c-.006-.085 0-.131.022-.138.02-.007.017-.053-.011-.138a22.164 22.164 0 00-.042-.128l-.053-.106a1.018 1.018 0 00-.075-.116.934.934 0 00-.085-.107 2.69 2.69 0 01-.095-.106 14.818 14.818 0 00-.574-.627 8.412 8.412 0 01-.552-.626 64.607 64.607 0 00-.479-.617 5.375 5.375 0 01-.531-.818 11.707 11.707 0 01-.436-.935c1.757-1.021 3.138-2.271 4.144-3.753z"/></g></symbol><symbol fill="none" viewBox="0 0 24 24" id="heart" xmlns="http://www.w3.org/2000/svg"><g clip-path="url(#bclip0)"><path d="M11.18 4.887l.428.706.428-.706c1.48-2.443 3.507-3.308 5.359-3.148 1.877.162 3.658 1.383 4.61 3.286.945 1.888 1.081 4.474-.405 7.363-1.47 2.856-4.534 6.02-9.992 9.039-5.457-3.02-8.522-6.183-9.991-9.04C.131 9.5.267 6.914 1.212 5.025c.952-1.902 2.734-3.123 4.61-3.285 1.852-.16 3.878.705 5.358 3.148z" stroke="#A9BCC3"/></g><defs><clipPath id="bclip0"><path fill="#fff" d="M0 0h23.217v23.217H0z"/></clipPath></defs></symbol><symbol fill="none" viewBox="0 0 24 24" id="heart2" xmlns="http://www.w3.org/2000/svg"><g clip-path="url(#cclip0)"><path d="M11.608 21.997c-22.647-12.354-6.268-27.713 0-17.369 6.269-10.344 22.649 5.015 0 17.369z" fill="#F90A1B"/></g><defs><clipPath id="cclip0"><path fill="#fff" d="M0 0h23.217v23.217H0z"/></clipPath></defs></symbol><symbol viewBox="0 0 28 31" id="like" xmlns="http://www.w3.org/2000/svg"><g fill="none" fill-rule="evenodd"><path fill="#A9BCC3" fill-rule="nonzero" d="M27.107 17.003a5.295 5.295 0 00.893-2.98c0-1.256-.461-2.346-1.385-3.273-.924-.927-2.017-1.39-3.281-1.39h-3.209c.584-1.206.876-2.376.876-3.51 0-1.426-.214-2.56-.639-3.4-.425-.841-1.045-1.46-1.86-1.856C17.689.198 16.772 0 15.75 0c-.62 0-1.167.225-1.64.677-.523.511-.9 1.17-1.13 1.974a25.495 25.495 0 00-.557 2.313c-.14.737-.355 1.258-.647 1.563a35.13 35.13 0 00-1.95 2.34c-1.228 1.596-2.06 2.541-2.498 2.834H2.333a2.25 2.25 0 00-1.65.685A2.259 2.259 0 000 14.041v11.7c0 .646.228 1.197.684 1.654a2.245 2.245 0 001.65.686h5.25c.267 0 1.105.244 2.515.732 1.495.524 2.81.923 3.946 1.197a14.67 14.67 0 003.455.412h2.352c1.713 0 3.092-.491 4.138-1.472 1.044-.982 1.561-2.32 1.55-4.013.728-.939 1.093-2.024 1.093-3.254 0-.268-.018-.53-.055-.787a5.262 5.262 0 00.693-2.632c0-.439-.054-.86-.164-1.261zM4.32 25.393a1.12 1.12 0 01-.82.348 1.12 1.12 0 01-.82-.347 1.126 1.126 0 01-.347-.823c0-.317.116-.59.347-.823a1.12 1.12 0 01.82-.347c.316 0 .59.116.82.347.231.232.347.506.347.823 0 .317-.116.592-.347.823zm20.956-9.87c-.262.56-.587.847-.976.859.182.207.334.497.456.868.121.372.182.71.182 1.015 0 .84-.322 1.566-.966 2.175.219.39.328.81.328 1.261 0 .451-.106.899-.319 1.344-.212.444-.501.764-.865.96.06.365.09.706.09 1.023 0 2.035-1.166 3.053-3.5 3.053h-2.205c-1.593 0-3.67-.445-6.235-1.335-.06-.024-.237-.088-.529-.192-.291-.103-.507-.18-.647-.228-.14-.05-.352-.12-.638-.21a10.219 10.219 0 00-.693-.201 8.227 8.227 0 00-.601-.12 3.665 3.665 0 00-.574-.054H7v-11.7h.584c.194 0 .41-.055.647-.164.237-.11.48-.274.729-.494.25-.22.483-.436.702-.649.219-.213.462-.481.73-.804a36.183 36.183 0 001.202-1.527c.231-.304.371-.487.42-.548.668-.829 1.136-1.383 1.403-1.664.498-.524.86-1.191 1.085-2.002.225-.81.41-1.575.555-2.294.146-.72.377-1.237.694-1.554 1.166 0 1.944.286 2.333.86.389.572.583 1.456.583 2.65 0 .719-.292 1.697-.875 2.934-.584 1.237-.875 2.21-.875 2.916h6.417c.608 0 1.148.234 1.622.704.474.47.712 1.014.712 1.636 0 .427-.131.92-.392 1.482z"/><circle cx="3.5" cy="24.5" r="1.5" fill="#F90A1B"/></g></symbol><symbol viewBox="0 0 28 31" id="reload" xmlns="http://www.w3.org/2000/svg"><g fill="none" fill-rule="evenodd"><path fill="#A9BCC3" d="M13.117 0l-1.92 1.783 3.2 3.8H7.682C3.44 5.583 0 9.185 0 13.627V21h2.56v-7.373c0-2.961 2.294-5.362 5.122-5.362h6.754l-3.201 3.8 1.92 1.783L19 6.924 13.117 0z"/><path fill="#F71424" d="M25.44 9v7.373c0 2.961-2.294 5.362-5.122 5.362h-6.754l3.201-3.8-1.92-1.783L9 23.076 14.877 30l1.92-1.783-3.2-3.8h6.721c4.242 0 7.682-3.602 7.682-8.044V9h-2.56z"/></g></symbol></svg>