<?xml version="1.0" encoding="utf-8"?><svg xmlns="http://www.w3.org/2000/svg" xmlns:xlink="http://www.w3.org/1999/xlink"><symbol viewBox="0 0 20 20" id="add" xmlns="http://www.w3.org/2000/svg"><g fill-rule="evenodd"><path d="M17.647.196H0V17.06h1.96V2.549h15.687z"/><path fill-rule="nonzero" d="M2.745 3.333v16.471H20V3.334H2.745zm12.941 8.628h-3.921v3.921a.392.392 0 1 1-.785 0v-3.921H7.06a.392.392 0 1 1 0-.785h3.921V7.255a.392.392 0 1 1 .785 0v3.921h3.921a.392.392 0 1 1 0 .785z"/></g></symbol><symbol viewBox="0 0 20 20" id="article" xmlns="http://www.w3.org/2000/svg"><g fill-rule="evenodd"><path fill-rule="nonzero" d="M2.093 10.541a.781.781 0 0 0 1.127 0l1.875-1.953a.781.781 0 0 0 .218-.541V.78A.781.781 0 0 0 4.53 0H.781A.781.781 0 0 0 0 .781v7.266c0 .202.078.395.218.54l1.875 1.954zm-.53-8.979H3.75v6.17l-1.094 1.14-1.094-1.14v-6.17z"/><path d="M8.047 1.563h11.172a.781.781 0 1 0 0-1.563H8.047a.781.781 0 1 0 0 1.563zm11.172 16.875H.78A.781.781 0 1 0 .78 20h18.44a.781.781 0 1 0 0-1.563zm0-4.61H.78a.781.781 0 1 0 0 1.563h18.44a.781.781 0 1 0 0-1.563zm0-9.218H8.047a.781.781 0 1 0 0 1.562h11.172a.781.781 0 1 0 0-1.563zm0 4.609H8.047a.781.781 0 1 0 0 1.562h11.172a.781.781 0 1 0 0-1.562z"/></g></symbol><symbol viewBox="0 0 20 20" id="bomb" xmlns="http://www.w3.org/2000/svg"><g fill-rule="evenodd"><path fill-rule="nonzero" d="M16.067 4.817a.625.625 0 1 0-.884-.884l-1.25 1.25-.366.366-.808-.808a1.25 1.25 0 0 0-1.768 0l-.625.625c-.049.05-.09.104-.13.158A7.45 7.45 0 0 0 7.5 5C3.365 5 0 8.365 0 12.5S3.365 20 7.5 20s7.5-3.365 7.5-7.5a7.46 7.46 0 0 0-.524-2.737c.054-.04.109-.08.158-.13l.625-.624a1.25 1.25 0 0 0 0-1.768l-.808-.808.366-.366 1.25-1.25zM7.5 8.75a3.754 3.754 0 0 0-3.75 3.75.625.625 0 0 1-1.25 0c0-2.757 2.243-5 5-5a.625.625 0 0 1 0 1.25z"/><path d="M17.93 5.82a.625.625 0 1 0-.883.883l.625.625a.623.623 0 0 0 .884 0 .625.625 0 0 0 0-.883l-.626-.625zm-4.633-2.867a.623.623 0 0 0 .884 0 .625.625 0 0 0 0-.883l-.625-.625a.625.625 0 1 0-.884.883l.625.625zm2.328-.453c.345 0 .625-.28.625-.625V.625a.625.625 0 1 0-1.25 0v1.25c0 .345.28.625.625.625zm3.75 1.273h-1.25a.625.625 0 1 0 0 1.25h1.25a.625.625 0 1 0 0-1.25zm-2.305-.82a.623.623 0 0 0 .883 0l1.25-1.25A.625.625 0 1 0 18.32.82l-1.25 1.25a.625.625 0 0 0 0 .883z"/></g></symbol><symbol viewBox="0 0 20 18" id="books-stack" xmlns="http://www.w3.org/2000/svg"><path d="M0 15.34a2.276 2.276 0 0 0 2.273 2.273h16.44v-1.01H17.66v-2.527h1.053v-.442h1.263v-1.01h-.758v-2.526h.758v-1.01h-.821v-.864l-1.248-2.336h1.311V4.529L15.921.5H4.29l-3 4.727a2.262 2.262 0 0 0-.848 1.757 2.275 2.275 0 0 0 2.251 2.27 2.274 2.274 0 0 0-1.43 2.108c0 .694.319 1.308.81 1.725A2.269 2.269 0 0 0 0 15.339zm1.452-8.357c0-.471.262-.878.646-1.095h15.057v2.358H2.715a1.265 1.265 0 0 1-1.263-1.263zm2.084 3.115h14.672v2.526H3.536a1.264 1.264 0 0 1-1.263-1.263c0-.697.567-1.263 1.263-1.263zm-1.263 3.978H16.65v2.526H2.274A1.264 1.264 0 0 1 1.01 15.34c0-.696.567-1.263 1.263-1.263z"/></symbol><symbol viewBox="0 0 20 21" id="building" xmlns="http://www.w3.org/2000/svg"><path d="M0 20.79h10v-20H0v20zm6.25-17.5h2.5v2.5h-2.5v-2.5zm0 5h2.5v2.5h-2.5v-2.5zm0 5h2.5v2.5h-2.5v-2.5zm-5-10h2.5v2.5h-2.5v-2.5zm0 5h2.5v2.5h-2.5v-2.5zm0 5h2.5v2.5h-2.5v-2.5zm10-6.25H20v1.25h-8.75V7.04zm0 13.75h2.5v-5h3.75v5H20V9.54h-8.75v11.25z"/></symbol><symbol viewBox="0 0 20 21" id="calendar" xmlns="http://www.w3.org/2000/svg"><g fill-rule="evenodd"><path d="M7.232 11.268a.463.463 0 0 0-.463-.463H5.15a.463.463 0 0 0-.463.463v1.618c0 .256.207.463.463.463h1.618a.463.463 0 0 0 .463-.463v-1.618zm4.043 0a.463.463 0 0 0-.463-.463H9.194a.463.463 0 0 0-.463.463v1.618c0 .256.208.463.463.463h1.618a.463.463 0 0 0 .463-.463v-1.618zm4.044 0a.463.463 0 0 0-.464-.463h-1.617a.463.463 0 0 0-.464.463v1.618c0 .256.208.463.464.463h1.617a.463.463 0 0 0 .464-.463v-1.618zm-8.087 4.044a.463.463 0 0 0-.463-.464H5.15a.463.463 0 0 0-.463.464v1.617c0 .256.207.463.463.463h1.618a.463.463 0 0 0 .463-.463v-1.617zm4.043 0a.463.463 0 0 0-.463-.464H9.194a.463.463 0 0 0-.463.464v1.617c0 .256.208.463.463.463h1.618a.463.463 0 0 0 .463-.463v-1.617zm4.044 0a.463.463 0 0 0-.463-.464h-1.618a.463.463 0 0 0-.464.464v1.617c0 .256.208.463.464.463h1.618a.463.463 0 0 0 .463-.463v-1.617z"/><path fill-rule="nonzero" d="M18.211 2.274v2.47a2.018 2.018 0 0 1-2.022 2.018h-1.276c-1.117 0-2.035-.9-2.035-2.017v-2.48h-5.75v2.48a2.028 2.028 0 0 1-2.035 2.017H3.817c-1.116 0-2.022-.9-2.022-2.017v-2.47A1.84 1.84 0 0 0 .017 4.103v14.48a1.84 1.84 0 0 0 1.83 1.84h16.311a1.84 1.84 0 0 0 1.831-1.84V4.103c0-.993-.802-1.8-1.778-1.83zm-.592 15.408a.792.792 0 0 1-.792.791H3.144a.792.792 0 0 1-.791-.791v-7.48a.79.79 0 0 1 .791-.791h13.683c.438 0 .792.354.792.791v7.48z"/><path d="M3.813 5.437h1.262c.383 0 .694-.31.694-.693V.694A.693.693 0 0 0 5.075 0H3.813a.693.693 0 0 0-.694.693v4.05c0 .384.31.694.694.694zm11.084 0h1.262c.383 0 .693-.31.693-.693V.694A.693.693 0 0 0 16.16 0h-1.262a.693.693 0 0 0-.694.693v4.05c0 .384.31.694.694.694z"/></g></symbol><symbol viewBox="0 0 20 19" id="call-answer" xmlns="http://www.w3.org/2000/svg"><path fill-rule="evenodd" d="M19.556 15.019l-3.09-2.935c-.615-.583-1.634-.565-2.27.04l-1.557 1.479a46.29 46.29 0 0 1-.307-.163c-.983-.517-2.328-1.226-3.744-2.572-1.42-1.349-2.167-2.629-2.713-3.563l-.167-.285 1.044-.99.514-.49c.638-.605.655-1.573.041-2.157L4.217.447c-.613-.583-1.633-.565-2.27.041l-.871.832.024.022A4.726 4.726 0 0 0 .063 3.764c-.408 3.213 1.138 6.149 5.332 10.133 5.797 5.508 10.469 5.091 10.67 5.071.44-.05.86-.15 1.288-.307.459-.17.888-.402 1.26-.679l.02.016.882-.82c.636-.606.655-1.574.04-2.16z"/></symbol><symbol viewBox="0 0 20 17" id="case" xmlns="http://www.w3.org/2000/svg"><g fill-rule="evenodd"><path d="M19.165 10.743l-7.94-.008v.816a.708.708 0 0 1-.707.706H9.484a.706.706 0 0 1-.708-.696v-.816H.843A1.41 1.41 0 0 1 0 10.46v4.694a.953.953 0 0 0 .949.949h18.086a.953.953 0 0 0 .965-.94v-4.695a1.41 1.41 0 0 1-.835.274z"/><path fill-rule="nonzero" d="M19.043 2.675h-5.165V1.233a1.219 1.219 0 0 0-.358-.858 1.212 1.212 0 0 0-.857-.357H7.33c-.677 0-1.225.549-1.225 1.225v1.443H.957A.953.953 0 0 0 0 3.624v5.692c.001.46.374.834.835.835h7.94v-.816a.708.708 0 0 1 .707-.706h1.032a.706.706 0 0 1 .71.695v.817h7.935A.837.837 0 0 0 20 9.316V3.624a.953.953 0 0 0-.957-.949zm-6.406 0H7.363V1.267h5.274v1.408z"/></g></symbol><symbol viewBox="0 0 512 512" id="certifications" xmlns="http://www.w3.org/2000/svg"><path d="M256 271c-24.813 0-45 20.188-45 45s20.188 45 45 45 45-20.188 45-45-20.188-45-45-45zm0 66.21L234.79 316 256 294.79 277.21 316zm0 0"/><path d="M329.48 301h64.083c4.527-12.773 14.664-22.91 27.437-27.438V118.438c-12.773-4.527-22.91-14.664-27.438-27.437H118.438c-4.527 12.773-14.664 22.91-27.437 27.438v155.125c12.773 4.527 22.91 14.664 27.438 27.437h64.082c6.968-34.191 37.265-60 73.48-60s66.512 25.809 73.48 60zM151 121h210v30H151zm-30 90v-30h270v30zm0 0"/><path d="M181 331H91v-15c0-8.277-6.723-15-15-15H61V91h15c8.277 0 15-6.723 15-15V61h330v15c0 8.277 6.723 15 15 15h15v210h-15c-8.277 0-15 6.723-15 15v15h-90v60h181V0H0v391h181zm0 0"/><path d="M211 375.617V512l45-38.992L301 512V375.617C288.426 385.137 272.95 391 256 391s-32.426-5.863-45-15.383zm0 0"/></symbol><symbol viewBox="0 0 20 20" id="chat" xmlns="http://www.w3.org/2000/svg"><path d="M10 .845c-5.514 0-10 4.037-10 9 0 1.735.549 3.415 1.59 4.868-.198 2.179-.726 3.797-1.492 4.563a.333.333 0 0 0 .282.566c.135-.02 3.27-.47 5.539-1.78 1.288.52 2.66.783 4.081.783 5.514 0 10-4.037 10-9s-4.486-9-10-9zM5.333 11.178A1.335 1.335 0 0 1 4 9.845a1.335 1.335 0 0 1 2.667 0c0 .735-.598 1.333-1.334 1.333zm4.667 0a1.335 1.335 0 0 1-1.333-1.333c0-.735.598-1.333 1.333-1.333s1.333.598 1.333 1.333-.598 1.333-1.333 1.333zm4.667 0a1.335 1.335 0 0 1-1.334-1.333 1.335 1.335 0 0 1 2.667 0c0 .735-.598 1.333-1.333 1.333z"/></symbol><symbol viewBox="0 0 20 20" id="cloud" xmlns="http://www.w3.org/2000/svg"><path fill-rule="evenodd" d="M18.608 13.858a1.361 1.361 0 0 0-.674.183l-1.73-1.7V9.05h.687a2.753 2.753 0 1 0-1.621-4.965.343.343 0 0 1-.54-.202 4.816 4.816 0 0 0-8.97-1.198.355.355 0 0 1-.352.182 2.067 2.067 0 0 0-2.224 2.468.343.343 0 0 1-.462.387 1.722 1.722 0 0 0-1.913.471c-.16.179-.28.392-.346.623A1.74 1.74 0 0 0 .656 8.25a1.722 1.722 0 0 0 1.471.8h1.717v3.29l-1.73 1.701a1.385 1.385 0 1 0 .494.477l1.82-1.789a.344.344 0 0 0 .103-.245V9.051h2.403v7.945a1.373 1.373 0 1 0 .687 0V9.051h4.807v7.945a1.373 1.373 0 1 0 .687 0V9.051h2.403v3.433c0 .093.037.18.103.245l1.82 1.789a1.37 1.37 0 1 0 1.167-.66z"/></symbol><symbol viewBox="0 0 20 18" id="community" xmlns="http://www.w3.org/2000/svg"><g fill-rule="evenodd"><circle cx="9.976" cy="2.363" r="2.329"/><path fill-rule="nonzero" d="M18.13 8.771l-2.171-.453a1.777 1.777 0 0 0-1.856.787 7.99 7.99 0 0 0-1.207-.497v-1.29a1.78 1.78 0 0 0-1.772-1.776h-2.22c-.978 0-1.774.799-1.774 1.776v1.297a7.85 7.85 0 0 0-1.2.495 1.778 1.778 0 0 0-1.858-.792l-2.173.453a1.782 1.782 0 0 0-1.373 2.102l.545 2.605a1.779 1.779 0 0 0 2.1 1.374l.687-.144c.344.509.82.975 1.43 1.374 1.269.832 2.945 1.29 4.725 1.29 2.723 0 5.068-1.094 6.149-2.667l.698.147a1.78 1.78 0 0 0 2.098-1.374l.546-2.605a1.783 1.783 0 0 0-1.375-2.102zm-8.118 7.712c-1.607 0-3.114-.405-4.238-1.145a4.465 4.465 0 0 1-.96-.831l.526-.11a1.78 1.78 0 0 0 1.375-2.1l-.489-2.342c.285-.153.585-.288.903-.403v.428a1.78 1.78 0 0 0 1.775 1.773h2.22c.973 0 1.771-.8 1.771-1.773v-.45c.324.116.63.248.912.4l-.496 2.368a1.782 1.782 0 0 0 1.376 2.1l.531.11c-.991 1.174-2.952 1.975-5.206 1.975z"/><circle cx="17.657" cy="5.425" r="2.329"/><path d="M2.847 7.705A2.333 2.333 0 0 0 4.65 4.947a2.332 2.332 0 0 0-2.759-1.802 2.329 2.329 0 1 0 .955 4.56z"/></g></symbol><symbol viewBox="0 0 20 21" id="confetti" xmlns="http://www.w3.org/2000/svg"><path d="M5.806 6.145a1.733 1.733 0 0 0-2.448 0l-.237.237a1.733 1.733 0 0 0-.127 2.305l-.594 1.84 7.36 7.36 1.839-.594c.315.252.698.378 1.081.378.443 0 .887-.168 1.224-.506l.237-.237a1.733 1.733 0 0 0 0-2.447L5.806 6.145zM.099 17.648a2.01 2.01 0 0 0 .493 2.046c.635.556 1.317.72 2.046.494l3.064-.99-4.614-4.614-.99 3.064zm1.388-4.297L6.935 18.8l1.592-.514L2 11.759zm9.792-4.078a.575.575 0 0 0 .408-.169c.326-.326.528-.416.785-.53.308-.135.657-.29 1.135-.768a3.26 3.26 0 0 0 .77-1.135 2.474 2.474 0 0 1 1.314-1.315c.308-.136.656-.29 1.135-.768a.577.577 0 1 0-.816-.816 2.155 2.155 0 0 1-.786.529 3.26 3.26 0 0 0-1.135.769c-.478.478-.632.827-.768 1.135-.114.256-.203.46-.53.785-.326.327-.528.416-.785.53a3.26 3.26 0 0 0-1.135.768.577.577 0 0 0 .408.985zM7.834 5.488a.577.577 0 0 0 1.154 0c0-.232.048-.316.144-.484.125-.22.296-.519.296-1.058a1.92 1.92 0 0 0-.296-1.057.886.886 0 0 1 0-.969c.125-.219.296-.518.296-1.057a.577.577 0 0 0-1.154 0c0 .232-.048.317-.144.485a1.916 1.916 0 0 0-.296 1.057c0 .538.171.838.296 1.057a.886.886 0 0 1 0 .97 1.917 1.917 0 0 0-.296 1.056zm11.589 5.811c-.232 0-.316-.049-.484-.145-.22-.125-.519-.296-1.058-.296a1.92 1.92 0 0 0-1.057.296.886.886 0 0 1-.97 0 1.917 1.917 0 0 0-1.056-.296.577.577 0 0 0 0 1.154c.232 0 .317.048.485.144.218.125.518.296 1.057.296.538 0 .838-.17 1.057-.296a.886.886 0 0 1 .97 0 1.91 1.91 0 0 0 1.056.296.577.577 0 0 0 0-1.153zm-7.677-8.411h1.246a.577.577 0 0 0 0-1.154h-1.246a.577.577 0 0 0 0 1.154zm-.312 2.803a.577.577 0 0 0 .577-.577v-.623a.577.577 0 0 0-1.154 0v.623c0 .319.259.577.577.577zm6.541 3.426a.577.577 0 0 0 .577-.577V7.295a.577.577 0 0 0-1.154 0V8.54c0 .319.259.577.577.577zm-2.803-.842a.577.577 0 1 0 0 1.154h.623a.577.577 0 0 0 0-1.154h-.623z" fill-rule="evenodd"/></symbol><symbol viewBox="0 0 512 512" id="create-your-own" xmlns="http://www.w3.org/2000/svg"><path d="M497 368.973c-8.285 0-15 6.714-15 15 0 15.101-12.285 27.386-27.387 27.386-15.097 0-27.383-12.285-27.383-27.386 0-32.946-18.71-61.586-46.05-75.907L263.098 426.152c17.472 49.934 65.054 85.844 120.875 85.844 70.593 0 128.027-57.43 128.027-128.023 0-8.285-6.715-15-15-15zM99.965 234.785l134.824-134.82-72.043-72.043C144.738 9.914 120.796 0 95.332 0 69.872 0 45.93 9.918 27.926 27.926c-37.172 37.168-37.172 97.648 0 134.82zm242.101-64.855l.012.015 67.399 67.395 35.593-35.59L310.246 66.93l-35.59 35.593 67.399 67.395zm-10.606 31.82L117.77 415.445c-5.86 5.856-15.356 5.856-21.215 0-5.86-5.86-5.86-15.355 0-21.215l213.691-213.69-56.805-56.806L4.395 372.781A15.02 15.02 0 0 0 0 383.387v85.308c0 .012.004.024 0 .04v28.261a14.998 14.998 0 0 0 15 15h113.613c3.977 0 7.793-1.578 10.606-4.39l249.047-249.051zM49.497 482L30 462.5v-64.11l83.61 83.606zm434.577-319.258C502.082 144.738 512 120.797 512 95.332c0-25.46-9.918-49.402-27.922-67.406-.004-.004-.004-.004-.008-.004C466.07 9.914 442.13 0 416.668 0c-25.465 0-49.406 9.918-67.41 27.922L331.46 45.719l134.82 134.816zm0 0"/></symbol><symbol viewBox="0 0 20 17" id="diamond" xmlns="http://www.w3.org/2000/svg"><path d="M8.678 1.17l.418-.485H4.533L0 5.912h4.6L8.679 1.17zM5.693 5.913h8.617l-2.343-2.724L10.002.902l-2.97 3.453-1.34 1.557zM.055 6.74l8.567 9.015L4.525 6.74H.055zm14.514 0H5.433l4.541 9.992.03.064 4.326-9.529.24-.527zm-3.178 9.002l8.553-9.001h-4.466l-4.087 9.001zM20 5.912L15.466.685h-4.56l4.495 5.227H20z"/></symbol><symbol viewBox="0 0 20 20" id="download" xmlns="http://www.w3.org/2000/svg"><g fill-rule="evenodd"><path fill-rule="nonzero" d="M19.625 13.315a1.11 1.11 0 0 0-.815-.336h-5.567l-1.63 1.631c-.465.448-1.009.672-1.632.672-.624 0-1.168-.224-1.632-.672L6.73 12.98H1.153c-.32 0-.592.112-.816.336A1.11 1.11 0 0 0 0 14.13v3.838c0 .32.112.592.336.816.224.224.496.336.816.336H18.81c.32 0 .592-.112.815-.336a1.11 1.11 0 0 0 .336-.816V14.13c0-.32-.112-.592-.336-.816zm-4.498 4.043a.739.739 0 0 1-.54.227.738.738 0 0 1-.54-.227.738.738 0 0 1-.228-.54c0-.208.076-.388.228-.54a.738.738 0 0 1 .54-.228c.208 0 .388.076.54.228a.738.738 0 0 1 .228.54.738.738 0 0 1-.228.54zm3.07 0a.737.737 0 0 1-.539.227.738.738 0 0 1-.54-.227.738.738 0 0 1-.227-.54c0-.208.075-.388.227-.54a.737.737 0 0 1 .54-.228c.208 0 .388.076.54.228a.737.737 0 0 1 .228.54.737.737 0 0 1-.228.54z"/><path d="M9.44 13.519a.713.713 0 0 0 .54.228.713.713 0 0 0 .54-.228l5.375-5.375c.248-.231.304-.511.168-.84-.136-.311-.372-.467-.708-.467h-3.071V1.463a.739.739 0 0 0-.228-.54.738.738 0 0 0-.54-.228H8.445a.738.738 0 0 0-.54.228.738.738 0 0 0-.228.54v5.374h-3.07c-.337 0-.573.156-.708.468-.136.328-.08.608.168.84l5.374 5.374z"/></g></symbol><symbol viewBox="0 0 20 20" id="earth-globe" xmlns="http://www.w3.org/2000/svg"><path d="M18.66 4.98a9.958 9.958 0 0 0-3.64-3.639C13.488.447 11.815 0 10 0 8.186 0 6.513.447 4.98 1.341a9.956 9.956 0 0 0-3.639 3.64C.447 6.512 0 8.185 0 10s.447 3.487 1.341 5.02a9.96 9.96 0 0 0 3.64 3.639C6.513 19.553 8.186 20 10 20c1.813 0 3.487-.447 5.019-1.341a9.955 9.955 0 0 0 3.639-3.64C19.553 13.488 20 11.815 20 10s-.447-3.488-1.34-5.02zm-7.41 10.282c-.087-.104-.117-.191-.091-.261-.009.043-.04.082-.091.117a1.242 1.242 0 0 0-.235-.195 1.229 1.229 0 0 1-.234-.196 12.173 12.173 0 0 1-.189-.3 1.312 1.312 0 0 1-.104-.201c-.021-.057-.023-.09-.006-.098-.165.07-.404.022-.717-.143-.06-.035-.152-.126-.273-.273-.121-.148-.247-.213-.378-.196a2.191 2.191 0 0 0-.175.046.68.68 0 0 1-.19.032.594.594 0 0 1-.208-.052 1.68 1.68 0 0 1-.28-.15 1.866 1.866 0 0 0-.24-.136l-.17-.091-.208-.104a.64.64 0 0 1-.163-.124.413.413 0 0 1-.11-.176 2.507 2.507 0 0 1-.065-.312.973.973 0 0 0-.104-.339 1.174 1.174 0 0 0-.222-.26c-.095-.087-.182-.13-.26-.13.07 0 .07-.059 0-.176a1.32 1.32 0 0 0-.183-.254 16.306 16.306 0 0 1-.378-.417 1.04 1.04 0 0 1-.155-.241c-.044-.091-.053-.167-.027-.228.01-.008 0-.022-.026-.039a.675.675 0 0 0-.097-.052 2.239 2.239 0 0 0-.11-.046.256.256 0 0 0-.079-.019.995.995 0 0 1 .059.189.75.75 0 0 0 .071.202c.018.035.091.16.222.377.225.365.33.634.312.808-.052.017-.087.008-.104-.026a.474.474 0 0 1-.04-.143.819.819 0 0 0-.025-.13c-.026-.053-.094-.11-.202-.17-.109-.06-.176-.121-.202-.182a.06.06 0 0 0 .033-.013.063.063 0 0 1 .032-.013c.009-.078-.037-.178-.136-.3-.1-.121-.141-.208-.124-.26-.07-.052-.13-.154-.182-.306a1.148 1.148 0 0 0-.13-.293.557.557 0 0 0-.13-.137 2.57 2.57 0 0 0-.196-.13 5.677 5.677 0 0 1-.156-.098.501.501 0 0 1-.105-.117c-.286-.347-.373-.534-.26-.56-.113.026-.206-.058-.28-.254-.074-.195-.098-.345-.072-.449l-.026-.013a1.93 1.93 0 0 0 .013-.306c0-.17.011-.323.033-.462.022-.14.063-.209.124-.209-.061.009-.106-.045-.137-.162-.03-.118-.032-.198-.006-.241.008-.026.047-.009.117.052.07.06.108.1.117.117.113-.061.156-.139.13-.235-.017-.034-.108-.125-.273-.273-.374-.243-.565-.36-.573-.352.052-.095.039-.177-.04-.247-.086.052-.136.065-.15.04a.504.504 0 0 1-.032-.144c-.008-.07-.03-.108-.065-.117a.357.357 0 0 1-.156-.104 8.217 8.217 0 0 1 3.06-2.891c.052-.009.147-.013.286-.013a.52.52 0 0 1 .195.065c.061.035.124.083.19.143.064.06.114.104.149.13.017-.052-.004-.13-.065-.234.017-.052.113-.104.286-.156.2-.026.33-.022.39.013a3.425 3.425 0 0 0-.26-.326l-.064.065c-.07-.06-.252-.03-.547.091l-.13.072c-.07.039-.127.067-.17.085a.32.32 0 0 1-.156.013 7.376 7.376 0 0 1 1.224-.534c.026.017.07.054.13.11.06.057.109.098.143.124-.026-.017-.043-.009-.052.026-.034.104-.034.19 0 .26a.24.24 0 0 0 .176.104.97.97 0 0 0 .267-.013c.104-.017.174-.026.208-.026l.13.013c.278.026.387 0 .326-.078a.836.836 0 0 1 .091.215.578.578 0 0 0 .117.228c.044-.035.052-.095.026-.182s-.026-.148 0-.183c.009-.017.035-.034.078-.052l.15-.058c.057-.022.094-.037.111-.046.052-.035.017-.095-.104-.182a.89.89 0 0 0-.11-.04 1.871 1.871 0 0 1-.15-.051.827.827 0 0 1-.137-.072c-.048-.03-.07-.065-.065-.104a.352.352 0 0 1 .071-.15c.052-.043.137-.06.254-.052a.65.65 0 0 1 .267.065c.235.13.27.248.104.352a.934.934 0 0 1 .313.104c.121.06.17.126.143.195.07-.13.139-.195.209-.195.043.009.084.067.123.176.04.108.063.167.072.176.07.095.138.117.208.065.07-.052.141-.128.215-.228.074-.1.115-.146.124-.137-.087-.034-.096-.07-.026-.104.13-.078.247-.1.351-.065.026.017.06.056.104.117.078.156.065.23-.039.221.078.07.11.157.098.26-.013.105-.081.153-.202.144a.462.462 0 0 1-.19-.065.585.585 0 0 0-.188-.072c-.044-.004-.105.02-.183.072-.034.043-.08.117-.136.221a.997.997 0 0 1-.15.222c-.13.13-.347.178-.651.143.026 0 .024.026-.007.078a2.647 2.647 0 0 1-.215.286.664.664 0 0 0-.156.3c0 .017-.004.076-.013.176a.655.655 0 0 1-.052.228c.104-.026.187.026.247.156.052.121.052.187 0 .195.287-.043.539-.026.756.052.312.113.49.226.534.339.052-.078.177-.083.377-.013.078.043.147.174.209.39.034.13.093.244.175.339.083.095.172.121.267.078l.04-.026a1.22 1.22 0 0 0 .084-.046.55.55 0 0 0 .071-.052c.027-.021.042-.04.046-.058.004-.017-.002-.035-.02-.052a.47.47 0 0 1-.136-.215.274.274 0 0 1 .02-.241.87.87 0 0 1 .208-.156c.113-.07.182-.14.208-.209.035-.113-.009-.206-.13-.28-.122-.073-.182-.14-.182-.202 0-.043.028-.095.084-.156.057-.06.08-.117.072-.17a.633.633 0 0 0-.046-.162.896.896 0 0 1-.052-.182c-.004-.04.016-.085.059-.137.06-.035.204-.033.43.006.225.04.373.08.442.124.026.017.083.043.17.078.086.035.162.072.228.11.064.04.101.077.11.111h-.065c.06.053.098.113.11.183.014.07-.019.121-.097.156a.41.41 0 0 1 .208.04c.14.051.144.1.013.142a.835.835 0 0 1 .11-.026.366.366 0 0 0 .176-.085.214.214 0 0 1 .06-.038.416.416 0 0 1 .058-.013.106.106 0 0 1 .078.02c.009 0 .028-.023.058-.066.03-.043.063-.087.098-.13.035-.043.065-.065.09-.065.027 0 .05.01.072.032a.273.273 0 0 1 .052.072l.04.085c.012.03.023.054.032.071.017.044.059.09.123.137a.35.35 0 0 1 .124.137c.009.026.026.09.052.195.026.104.06.176.104.215a.52.52 0 0 0 .195.097c.018.01.057.005.118-.012a.312.312 0 0 1 .15-.014c.039.009.058.044.058.105.052-.053.078-.087.078-.105a.55.55 0 0 0 .085.274c.047.07.123.1.228.09l-.027.287c-.026.044-.09.076-.195.098a.712.712 0 0 0-.195.059.899.899 0 0 0-.19.156c-.1.096-.14.152-.123.17-.147-.166-.369-.213-.664-.144-.33.052-.556.104-.677.156a.947.947 0 0 0-.286.196.41.41 0 0 0-.046.09 2.37 2.37 0 0 1-.065.144c-.022.043-.041.065-.058.065.052-.008.11-.05.175-.124a.754.754 0 0 1 .124-.123c.226-.148.412-.2.56-.155.192.052.222.121.092.208-.017.017-.063.024-.137.02a.47.47 0 0 0-.15.006.688.688 0 0 1 .196.071c.052.03.065.072.039.124.139.078.165.165.078.26a.47.47 0 0 1-.404.144c.027 0 .027.017 0 .052l-.221.143c-.017.009-.074.03-.17.065a.442.442 0 0 0-.195.117.26.26 0 0 0-.039.157c0 .07-.004.121-.013.156-.008.035-.043.043-.104.026-.026.052-.106.094-.24.124-.135.03-.224.076-.268.136.052.07.048.14-.013.209-.104.087-.195.078-.273-.026-.044.017-.076.06-.098.13-.021.07-.054.117-.097.143.06.096.051.165-.026.209a.18.18 0 0 1 .058.026.97.97 0 0 1 .098.065c.034.026.056.039.065.039-.035.078-.083.117-.144.117.053.139-.012.29-.195.456a.598.598 0 0 1-.163.104 2.351 2.351 0 0 1-.202.084.425.425 0 0 0-.104.046.882.882 0 0 0-.195.24.281.281 0 0 0-.02.242c.03.078.111.13.241.156l.013.104v.235l.013.104a1.292 1.292 0 0 1 .02.345c-.004.074-.024.115-.059.123-.034.01-.082 0-.143-.026-.07-.034-.152-.225-.247-.572a.87.87 0 0 0-.157-.313.392.392 0 0 1-.11.085c-.03.013-.053.015-.065.006a.858.858 0 0 1-.072-.058.87.87 0 0 0-.09-.072.691.691 0 0 0-.229-.065c-.108-.017-.176-.039-.202-.065-.208.157-.334.117-.377-.117-.018.043-.016.102.006.176s.033.115.033.124c-.061.113-.156.121-.287.026-.052-.052-.171-.059-.358-.02-.187.039-.31.046-.371.02.009 0 .026.012.052.039.026.017.044.03.052.039a.164.164 0 0 1-.039.078c-.017.017-.035.023-.052.02a.132.132 0 0 0-.059 0 .22.22 0 0 0-.058.019.804.804 0 0 0-.13.136.648.648 0 0 1-.118.124.859.859 0 0 1 .072.319 3.924 3.924 0 0 1-.04.325 2.406 2.406 0 0 0-.032.345c0 .139.042.3.124.482.082.182.18.308.293.378a.77.77 0 0 0 .313.065c.147.008.251 0 .312-.026a.32.32 0 0 0 .117-.091.44.44 0 0 0 .065-.15c.018-.065.03-.11.04-.137.06-.165.173-.251.338-.26.104-.009.18.002.228.032.048.03.067.072.058.124a.655.655 0 0 1-.052.163 2.75 2.75 0 0 1-.097.189.72.72 0 0 0-.072.156 2.17 2.17 0 0 0-.045.293 1.61 1.61 0 0 1-.033.228.758.758 0 0 0 .195.013.31.31 0 0 1 .02-.084.37.37 0 0 0 .02-.072c.043.07.112.108.208.117.095.009.165-.026.208-.104.018.026.07.091.157.196.086.104.134.19.143.26.009.035.026.091.052.17.026.078.035.132.026.162-.009.03-.052.046-.13.046-.035 0-.057.013-.065.039a.177.177 0 0 0 0 .097.875.875 0 0 0 .084.222.24.24 0 0 1 .033.071c.156.286.369.365.638.235 0 .251-.06.39-.183.416-.068.017-.146-.027-.233-.13zm.195 2.941a1.043 1.043 0 0 1-.025-.208c-.01-.07.021-.163.09-.28.07-.117.104-.206.104-.267-.138-.034-.19-.147-.156-.338.017-.13.143-.304.378-.521.165-.148.217-.356.156-.625a3.6 3.6 0 0 1-.065-.495 4.43 4.43 0 0 0-.052-.456c0 .026.04.05.123.072.083.021.133.05.15.084a.789.789 0 0 0 .065-.143.662.662 0 0 1 .078-.156.443.443 0 0 1 .11-.098 1.28 1.28 0 0 1 .111-.072.997.997 0 0 0 .117-.084 2.05 2.05 0 0 1 .15-.11.433.433 0 0 1 .157-.059c.065-.013.11.006.136.058.044.053.035.133-.026.241-.06.109-.06.185 0 .229a.97.97 0 0 0 .026-.17.315.315 0 0 1 .078-.196.296.296 0 0 1 .15-.09.185.185 0 0 1 .13.019c.04.022.085.052.137.091.052.039.1.063.143.071.13.044.287.14.469.287-.009-.009-.009-.02 0-.033a.137.137 0 0 1 .052-.039.975.975 0 0 0 .071-.039.365.365 0 0 1 .072-.032l.039-.013c.06 0 .104-.004.13-.013.026-.009.063 0 .11.026a.888.888 0 0 1 .19.13c.043.035.073.06.09.078l.143.091c.07.043.124.078.163.104.04.026.074.065.104.117.03.052.042.109.033.17a2 2 0 0 1 .312.103c.027.018.08.033.163.046.083.013.137.033.163.058-1.258 1.33-2.781 2.15-4.57 2.462z"/></symbol><symbol viewBox="0 0 20 20" id="ebook" xmlns="http://www.w3.org/2000/svg"><g fill-rule="evenodd"><path d="M17.578 11.458v2.878h-1.172v-2.863a2.974 2.974 0 0 0-2.343 2.902v1.875a2.972 2.972 0 0 0 2.968 2.969A2.972 2.972 0 0 0 20 16.25v-1.875c0-1.45-1.045-2.66-2.422-2.917zM4.688 6.641h3.516v1.172H4.688z"/><path fill-rule="nonzero" d="M14.648 4.688h-1.757V2.344H1.752a.584.584 0 0 1-.58-.586c0-.323.26-.586.58-.586h11.139V0H1.752C.786 0 0 .789 0 1.758V17.46c0 .97.789 1.758 1.758 1.758H12.89V5.859h1.757c.97 0 1.758.789 1.758 1.758v3.856a2.967 2.967 0 0 1 1.172-.015v-3.84a2.933 2.933 0 0 0-2.93-2.93zM9.375 8.983h-5.86V5.47h5.86v3.515z"/></g></symbol><symbol viewBox="0 0 4 16" id="ellipse" xmlns="http://www.w3.org/2000/svg"><g fill-rule="evenodd"><circle cx="2" cy="2" r="2"/><circle cx="2" cy="8" r="2"/><circle cx="2" cy="14" r="2"/></g></symbol><symbol viewBox="0 0 50 50" id="facebook" xmlns="http://www.w3.org/2000/svg"><path d="M-1.822-.911V50.91H50V-.91H-1.822zM32.46 13.35h-4.05c-.802 0-1.612.83-1.612 1.446v4.13h5.655a78.296 78.296 0 0 1-.695 6.064h-4.989v17.948h-7.433v-17.95h-3.619v-6.04h3.619V14.01c0-.903-.183-6.948 7.616-6.948h5.509v6.288z" fill-rule="evenodd"/></symbol><symbol viewBox="0 0 20 20" id="file" xmlns="http://www.w3.org/2000/svg"><g fill-rule="evenodd"><path d="M19.568 17.484l-1.57-1.569a1.464 1.464 0 0 0-1.583-.329l-1.151-1.145a4.33 4.33 0 0 0 .89-2.633 4.33 4.33 0 0 0-1.172-2.967v6.972l.604.602a1.464 1.464 0 0 0 .329 1.584l1.569 1.569a1.473 1.473 0 1 0 2.084-2.084z"/><path d="M14.981 11.808a3.18 3.18 0 1 1-6.359 0 3.18 3.18 0 0 1 6.36 0zM4.393 3.724V0h-.041a.586.586 0 0 0-.415.172L.172 3.937A.586.586 0 0 0 0 4.352v.041h3.724c.369 0 .67-.3.67-.67z"/><path fill-rule="nonzero" d="M11.802 7.456c1.252 0 2.383.532 3.177 1.382V1.841A1.84 1.84 0 0 0 13.138 0H5.565v3.724a1.844 1.844 0 0 1-1.841 1.841H0V18.16C0 19.174.826 20 1.841 20h11.297a1.84 1.84 0 0 0 1.841-1.841v-2.348l-.544-.541a4.329 4.329 0 0 1-2.633.89 4.356 4.356 0 0 1-4.352-4.352c0-2.4 1.952-4.352 4.352-4.352zM3.75 12.552h2.198a.586.586 0 0 1 0 1.172H3.75a.586.586 0 0 1 0-1.172zm-.586-1.924c0-.324.262-.586.586-.586h2.198a.586.586 0 0 1 0 1.172H3.75a.586.586 0 0 1-.586-.586zm4.31 5.02a.586.586 0 0 1-.586.586H3.75a.586.586 0 0 1 0-1.171h3.138c.323 0 .586.262.586.585zm-.586-6.945H3.75a.586.586 0 0 1 0-1.172h3.138a.586.586 0 0 1 0 1.172z"/></g></symbol><symbol viewBox="0 0 20 11" id="gamepad" xmlns="http://www.w3.org/2000/svg"><path d="M18.41 1.673C17.37.633 16.115.113 14.645.113h-9.32c-1.47 0-2.725.52-3.765 1.56S0 3.968 0 5.438c0 1.47.52 2.725 1.56 3.765s2.295 1.56 3.765 1.56c1.332 0 2.503-.444 3.516-1.331h2.288c1.012.887 2.184 1.331 3.516 1.331 1.47 0 2.725-.52 3.765-1.56s1.56-2.295 1.56-3.765c0-1.47-.52-2.725-1.56-3.765zm-9.756 4.43a.323.323 0 0 1-.094.24.324.324 0 0 1-.24.093H6.325v1.997a.323.323 0 0 1-.094.24.324.324 0 0 1-.239.093H4.66a.324.324 0 0 1-.24-.094.324.324 0 0 1-.093-.239V6.436H2.33a.324.324 0 0 1-.24-.094.323.323 0 0 1-.093-.239V4.772c0-.097.031-.177.094-.24a.324.324 0 0 1 .239-.093h1.997V2.442c0-.097.031-.177.093-.239a.324.324 0 0 1 .24-.094h1.33c.098 0 .178.032.24.094a.324.324 0 0 1 .094.24v1.996H8.32a.32.32 0 0 1 .239.094.324.324 0 0 1 .094.239v1.331zm5.6 1.607c-.26.26-.573.39-.94.39-.368 0-.682-.13-.942-.39-.26-.26-.39-.573-.39-.941s.13-.681.39-.941c.26-.26.574-.39.941-.39.368 0 .682.13.942.39.26.26.39.573.39.941s-.13.681-.39.941zm2.663-2.662c-.26.26-.574.39-.941.39a1.28 1.28 0 0 1-.941-.39c-.26-.26-.39-.574-.39-.942 0-.367.13-.68.39-.94.26-.261.573-.391.94-.391.368 0 .682.13.942.39.26.26.39.574.39.941 0 .368-.13.682-.39.942z"/></symbol><symbol viewBox="0 0 50 50" id="github" xmlns="http://www.w3.org/2000/svg"><g fill-rule="evenodd"><path d="M17.356 41.81c-.375.065-.539.23-.492.492.047.262.258.35.632.262.375-.087.539-.24.492-.46-.047-.24-.258-.338-.632-.294zm-2.111.34c-.369 0-.553.13-.553.39 0 .307.196.436.587.39.368 0 .552-.13.552-.39 0-.306-.195-.437-.586-.39zm-2.69-.285c-.092.267.057.448.445.546.343.144.56.072.651-.219.069-.266-.08-.46-.445-.581-.343-.097-.56-.013-.651.254z"/><path d="M49.587.527c-2.022-2.022-4.456-3.033-7.303-3.033H7.83C4.983-2.506 2.55-1.495.527.527-1.495 2.548-2.506 4.983-2.506 7.83v34.454c0 2.847 1.011 5.281 3.033 7.303 2.021 2.022 4.456 3.033 7.303 3.033h8.04c.525 0 .92-.019 1.183-.054.263-.036.526-.192.79-.467.263-.275.394-.676.394-1.202l-.018-2.44a495.912 495.912 0 0 1-.018-3.698l-.825.144c-.527.096-1.19.138-1.992.126a15.326 15.326 0 0 1-2.494-.251 5.591 5.591 0 0 1-2.405-1.077 4.555 4.555 0 0 1-1.579-2.207l-.359-.826c-.239-.55-.616-1.16-1.13-1.83-.515-.67-1.035-1.124-1.561-1.364l-.251-.18a2.64 2.64 0 0 1-.467-.43 1.994 1.994 0 0 1-.323-.503c-.072-.167-.012-.305.18-.413.191-.107.538-.16 1.04-.16l.718.107c.479.095 1.07.382 1.777.86a5.792 5.792 0 0 1 1.74 1.867c.55.98 1.214 1.728 1.992 2.243.777.515 1.561.772 2.35.772.79 0 1.472-.06 2.046-.18a7.16 7.16 0 0 0 1.615-.538c.216-1.603.802-2.836 1.759-3.697-1.364-.144-2.59-.359-3.68-.646-1.088-.288-2.212-.754-3.372-1.4-1.161-.646-2.124-1.447-2.89-2.405-.765-.957-1.394-2.213-1.884-3.768-.49-1.556-.735-3.35-.735-5.384 0-2.895.945-5.36 2.835-7.393-.885-2.177-.802-4.617.251-7.321.694-.215 1.723-.054 3.087.485 1.364.538 2.362.999 2.997 1.381.634.383 1.142.706 1.525.97a25.475 25.475 0 0 1 6.89-.934c2.37 0 4.666.311 6.892.933l1.364-.86c.933-.575 2.034-1.102 3.302-1.58 1.268-.478 2.237-.61 2.907-.395 1.076 2.704 1.172 5.144.286 7.321 1.89 2.034 2.836 4.499 2.836 7.394 0 2.033-.245 3.834-.735 5.4-.49 1.568-1.124 2.825-1.902 3.77-.778.945-1.747 1.74-2.907 2.386-1.16.646-2.285 1.113-3.374 1.4-1.089.287-2.315.503-3.678.647 1.243 1.076 1.865 2.774 1.865 5.095v8.578c0 .407.06.736.179.987.12.251.311.424.574.52.265.096.497.156.7.18.205.023.497.035.88.035h8.04c2.846 0 5.28-1.01 7.302-3.032 2.022-2.022 3.033-4.457 3.033-7.304V7.83c0-2.847-1.012-5.282-3.033-7.303z"/><path d="M8.415 37.665c-.154.109-.132.284.067.525.22.218.396.251.529.098.154-.11.132-.284-.067-.526-.22-.196-.396-.23-.529-.097zm-1.218-.887c-.063.154.011.287.224.397.17.11.31.088.416-.066.064-.155-.011-.287-.224-.398-.213-.066-.352-.044-.416.067zm2.3 2.146c-.21.116-.21.326 0 .629s.409.384.596.244c.21-.163.21-.384 0-.664-.187-.302-.386-.373-.596-.209zm1.332 1.642c-.2.184-.156.402.132.656.265.275.487.31.664.102.177-.183.133-.402-.133-.655-.265-.275-.486-.31-.663-.103z"/></g></symbol><symbol viewBox="0 0 50 50" id="google-plus" xmlns="http://www.w3.org/2000/svg"><g fill-rule="evenodd"><path d="M41.875-2H8.125C2.533-2-2 2.533-2 8.125v33.75C-2 47.467 2.533 52 8.125 52h33.75C47.467 52 52 47.467 52 41.875V8.125C52 2.533 47.467-2 41.875-2zM17.467 43.168c-5.977 0-11.02-2.434-11.02-6.322 0-3.945 4.6-7.755 10.578-7.752l1.866-.017c-.816-.793-1.464-1.768-1.464-2.973 0-.716.23-1.401.546-2.012l-.995.034c-4.91 0-8.198-3.493-8.198-7.823 0-4.236 4.54-7.891 9.366-7.891h10.766l-2.417 1.741h-3.412c2.265.871 3.47 3.51 3.47 6.217 0 2.272-1.26 4.229-3.038 5.62-1.738 1.36-2.065 1.927-2.065 3.08 0 .986 1.863 2.66 2.835 3.352 2.845 2.012 3.76 3.878 3.76 6.993 0 3.888-3.764 7.753-10.578 7.753zM45.25 21.689H38.5v6.74h-3.372v-6.74h-6.753V18.25h6.753V11.5H38.5v6.75h6.75v3.44z"/><path d="M22.925 17.599c-.47-3.612-3.057-6.514-5.777-6.597-2.72-.08-4.545 2.683-4.074 6.302.47 3.615 3.057 6.614 5.78 6.694 2.716.084 4.545-2.78 4.071-6.4zm-1.376 13.82a9.375 9.375 0 0 0-2.69-.418C14.713 30.958 11 33.439 11 36.423 11 39.47 13.995 42 18.14 42c5.83 0 7.86-2.38 7.86-5.42 0-.366-.05-.725-.132-1.075-.454-1.726-2.07-2.58-4.32-4.086z"/></g></symbol><symbol viewBox="0 0 20 20" id="growth" xmlns="http://www.w3.org/2000/svg"><g fill-rule="evenodd"><path d="M3.012 15.69h-.857A2.157 2.157 0 0 0 0 17.845v1.57c0 .323.262.585.586.585h2.527c-.065-.183-.1-.38-.1-.586V15.69zm4.184-3.138h-.857a2.158 2.158 0 0 0-2.155 2.155v4.707c0 .324.262.586.586.586h2.527a1.75 1.75 0 0 1-.101-.586v-6.862zm12.689-6.666L15.7.237a.586.586 0 0 0-.942 0l-4.184 5.649a.586.586 0 0 0 .471.934h1.506v12.594c0 .324.262.586.586.586h4.184a.586.586 0 0 0 .586-.586V6.82h1.506a.586.586 0 0 0 .47-.934z"/><path d="M11.38 9.414h-.857a2.157 2.157 0 0 0-2.155 2.155v7.845c0 .324.262.586.586.586h2.527a1.75 1.75 0 0 1-.1-.586v-10z"/></g></symbol><symbol viewBox="0 0 24 24" id="heart" xmlns="http://www.w3.org/2000/svg"><path d="M11.18 4.887l.428.706.428-.706c1.48-2.443 3.507-3.308 5.359-3.148 1.877.162 3.658 1.383 4.61 3.286.945 1.888 1.081 4.474-.405 7.363-1.47 2.856-4.534 6.02-9.992 9.039-5.457-3.02-8.522-6.183-9.991-9.04C.131 9.5.267 6.914 1.212 5.025c.952-1.902 2.734-3.123 4.61-3.285 1.852-.16 3.878.705 5.358 3.148z"/></symbol><symbol viewBox="0 0 20 18" id="history" xmlns="http://www.w3.org/2000/svg"><g fill-rule="evenodd"><path d="M10 5.714v4.762l4.076 2.419.686-1.157-3.333-1.977V5.714z"/><path d="M11.424.714a8.565 8.565 0 0 0-8.567 8.571H0l3.71 3.71.066.138L7.62 9.285H4.762a6.668 6.668 0 0 1 13.333 0 6.668 6.668 0 0 1-6.666 6.667 6.64 6.64 0 0 1-4.71-1.957l-1.348 1.347a8.517 8.517 0 0 0 6.053 2.515A8.573 8.573 0 0 0 20 9.285C20 4.552 16.162.714 11.424.714z"/></g></symbol><symbol viewBox="0 0 297 297" id="hollywood" xmlns="http://www.w3.org/2000/svg"><path d="M148.5 139.96c-4.709 0-8.541 3.831-8.541 8.54s3.832 8.54 8.541 8.54 8.54-3.831 8.54-8.54-3.831-8.54-8.54-8.54z"/><path d="M236.032 119.334l-53.694-10.796a7.317 7.317 0 0 1-4.937-3.587l-26.859-47.73c-.415-.736-1.197-1.194-2.042-1.194s-1.627.458-2.042 1.195l-26.859 47.729a7.317 7.317 0 0 1-4.937 3.587l-53.694 10.796a2.35 2.35 0 0 0-1.768 1.573 2.346 2.346 0 0 0 .505 2.309L96.8 163.512a7.322 7.322 0 0 1 1.885 5.804l-6.324 54.403c-.098.84.267 1.67.95 2.167.674.49 1.589.587 2.35.234l49.788-22.828a7.316 7.316 0 0 1 6.103 0l49.786 22.827a2.358 2.358 0 0 0 2.353-.234 2.344 2.344 0 0 0 .949-2.163l-6.324-54.406a7.322 7.322 0 0 1 1.885-5.804l37.093-40.295a2.345 2.345 0 0 0 .506-2.309 2.35 2.35 0 0 0-1.768-1.574zM148.5 171.681c-12.782 0-23.182-10.399-23.182-23.181s10.4-23.181 23.182-23.181 23.181 10.399 23.181 23.181-10.399 23.181-23.181 23.181z"/><path d="M148.5 0C66.617 0 0 66.617 0 148.5S66.617 297 148.5 297 297 230.383 297 148.5 230.383 0 148.5 0zm99.565 133.134l-34.82 37.825 5.937 51.068a16.998 16.998 0 0 1-6.885 15.701 16.88 16.88 0 0 1-9.985 3.245c-2.46 0-4.842-.52-7.077-1.546L148.5 217.999l-46.734 21.428a16.868 16.868 0 0 1-7.077 1.546 16.878 16.878 0 0 1-9.985-3.245 17.003 17.003 0 0 1-6.885-15.705l5.937-51.065-34.821-37.826a17.002 17.002 0 0 1-3.657-16.75 17.003 17.003 0 0 1 12.806-11.402l50.403-10.135L133.7 50.041c3.005-5.339 8.676-8.655 14.801-8.655s11.797 3.316 14.801 8.654l25.213 44.805 50.403 10.135a17.005 17.005 0 0 1 12.806 11.403 17.005 17.005 0 0 1-3.659 16.751z"/></symbol><symbol viewBox="0 0 26 20" id="home" xmlns="http://www.w3.org/2000/svg"><g fill-rule="evenodd"><path d="M12.562 4.042l-8.921 7.356a.21.21 0 0 1-.008.046.212.212 0 0 0-.008.046v7.448c0 .27.098.502.295.699a.955.955 0 0 0 .698.295h5.958v-5.959h3.973v5.959h5.958a.953.953 0 0 0 .698-.295.954.954 0 0 0 .295-.699V11.49a.218.218 0 0 0-.015-.092l-8.923-7.356z"/><path d="M24.898 9.722L21.5 6.898V.567a.483.483 0 0 0-.14-.357.482.482 0 0 0-.357-.14h-2.979a.484.484 0 0 0-.357.14.484.484 0 0 0-.14.357v3.026L13.743.427a1.81 1.81 0 0 0-1.18-.403 1.81 1.81 0 0 0-1.178.403L.227 9.722a.45.45 0 0 0-.17.333.499.499 0 0 0 .108.365l.962 1.148a.53.53 0 0 0 .325.171.577.577 0 0 0 .373-.108l10.737-8.954L23.3 11.63a.478.478 0 0 0 .326.109h.046a.53.53 0 0 0 .326-.17l.962-1.149a.502.502 0 0 0 .109-.365.452.452 0 0 0-.171-.333z"/></g></symbol><symbol viewBox="0 0 512 512" id="horoscopese" xmlns="http://www.w3.org/2000/svg"><path d="M256 0C114.616 0 0 114.614 0 256s114.616 256 256 256c141.386 0 256-114.614 256-256S397.386 0 256 0zm210.431 243.235l-115.351-26.62 62.743-100.388c31.447 35.414 49.802 79.73 52.608 127.008zM395.77 98.177l-100.387 62.741L268.765 45.57c47.278 2.805 91.591 21.16 127.005 52.607zM243.235 45.568l-26.619 115.349-100.387-62.74c35.415-31.447 79.728-49.802 127.006-52.609zM98.176 116.23l62.743 100.387L45.57 243.235c2.805-47.278 21.16-91.593 52.606-127.005zM45.57 268.765l115.349 26.62-62.743 100.387C66.73 360.356 48.375 316.041 45.57 268.765zm70.659 145.058l100.388-62.743 26.62 115.352c-47.28-2.805-91.595-21.162-127.008-52.609zM206.452 256c0-33.217 27.022-60.235 60.235-60.235 14.798 0 28.362 5.365 38.861 14.249-22.054 3.703-38.861 22.879-38.861 45.987 0 23.106 16.807 42.284 38.861 45.984-10.497 8.886-24.063 14.252-38.861 14.252-33.215-.002-60.235-27.023-60.235-60.237zm62.313 210.432l26.618-115.351 100.388 62.743c-35.413 31.446-79.728 49.801-127.006 52.608zm145.058-70.662L351.08 295.383l115.349-26.62c-2.804 47.28-21.159 91.595-52.606 127.007z"/></symbol><symbol viewBox="0 0 20 20" id="info-button" xmlns="http://www.w3.org/2000/svg"><path d="M17.071 2.929C13.166-.976 6.834-.977 2.93 2.929c-3.906 3.905-3.905 10.237 0 14.142 3.905 3.905 10.237 3.905 14.142 0 3.905-3.905 3.905-10.237 0-14.142zm-5.767 11.419a1.304 1.304 0 1 1-2.609 0V9.13a1.304 1.304 0 1 1 2.609 0v5.218zM9.977 6.9c-.752 0-1.253-.532-1.237-1.19-.016-.688.485-1.204 1.252-1.204s1.252.516 1.268 1.205c0 .657-.5 1.189-1.283 1.189z"/></symbol><symbol viewBox="0 0 433.506 433.506" id="kids" xmlns="http://www.w3.org/2000/svg"><path d="M76.888 302.386h-50.95S0 302.347 0 341.869c1.234 25.526 21.148 29.605 24.7 29.605h103.744s25.986.033 27.133-31.15c.043-1.19.139-.033.153-1.229.052-4.604 0-28.4 0-28.4.062-3.386 2.648-7.229 6.134-7.229h81.233c1.195 0 2.229.966 2.338 2.151l19.188 43.399c7.158 17.748 21.076 30.772 44.328 22.405 22.012-7.923 23.15-25.364 19.264-37.614l-47.713-144.633c-7.172-17.131-25.26-27.124-47.898-27.124H120.727c-60.559 0-111.36 70.552-42.577 138.374.487 1.087-.072 1.962-1.262 1.962z"/><circle cx="358.346" cy="134.649" r="75.161"/></symbol><symbol viewBox="0 0 50 50" id="linkedin" xmlns="http://www.w3.org/2000/svg"><g fill-rule="evenodd"><path d="M27.077 22.456v-.073c-.015.024-.036.049-.049.073h.049z"/><path fill-rule="nonzero" d="M0 0v50h50V0H0zm15.552 41.539H8.134V19.22h7.418v22.32zm-3.71-25.365h-.048c-2.489 0-4.102-1.714-4.102-3.857 0-2.19 1.66-3.856 4.2-3.856 2.539 0 4.1 1.666 4.148 3.856 0 2.143-1.61 3.857-4.197 3.857zM42.309 41.54h-7.42V29.6c0-3-1.073-5.047-3.758-5.047-2.051 0-3.27 1.379-3.807 2.714-.195.477-.246 1.14-.246 1.808V41.54h-7.422s.1-20.225 0-22.318h7.422v3.162c.986-1.517 2.746-3.686 6.687-3.686 4.884 0 8.544 3.189 8.544 10.043V41.54z"/></g></symbol><symbol viewBox="0 0 512 512" id="lottery-results" xmlns="http://www.w3.org/2000/svg"><path d="M493.563 431.87l-58.716-125.913c-32.421 47.207-83.042 80.822-141.639 91.015l49.152 105.401c6.284 13.487 25.732 12.587 30.793-1.341l25.193-69.204 5.192-2.421 69.205 25.193c13.887 5.096 27.096-9.296 20.82-22.73zM256.001 0C154.815 0 72.485 82.325 72.485 183.516s82.331 183.516 183.516 183.516c101.186 0 183.516-82.325 183.516-183.516S357.188 0 256.001 0zm89.294 170.032l-32.541 31.722 7.69 44.804c2.351 13.679-12.062 23.956-24.211 17.585l-40.231-21.148-40.231 21.147c-12.219 6.416-26.549-3.982-24.211-17.585l7.69-44.804-32.541-31.722c-9.89-9.642-4.401-26.473 9.245-28.456l44.977-6.533 20.116-40.753c6.087-12.376 23.819-12.387 29.913 0l20.116 40.753 44.977 6.533c13.644 1.982 19.132 18.814 9.242 28.457zM77.156 305.957L18.44 431.87c-6.305 13.497 7.023 27.81 20.821 22.727l69.204-25.193 5.192 2.421 25.193 69.205c5.051 13.899 24.496 14.857 30.793 1.342l49.152-105.401c-58.597-10.192-109.217-43.806-141.639-91.014z"/></symbol><symbol viewBox="0 0 256.91 256.91" id="made-freesticky" xmlns="http://www.w3.org/2000/svg"><path d="M0 33.555h256.91v35.031H0zM0 80.52v142.835h256.91V80.52H0zm57.604 41.159H42.675v-7.476h14.929v7.476zm22.394 0H65.069v-7.476h14.929v7.476zm22.399 0H87.468v-7.476h14.929v7.476zm22.4 0h-14.929v-7.476h14.929v7.476zm22.4 0h-14.929v-7.476h14.929v7.476z"/></symbol><symbol viewBox="0 0 20 21" id="map" xmlns="http://www.w3.org/2000/svg"><g fill-rule="evenodd"><path d="M10 3.72a1.76 1.76 0 0 0-1.758 1.757c0 .97.789 1.758 1.758 1.758a1.76 1.76 0 0 0 1.758-1.758A1.76 1.76 0 0 0 10 3.72z"/><path fill-rule="nonzero" d="M10 .79a4.693 4.693 0 0 0-4.688 4.687c0 .887.25 1.75.72 2.497L10 14.305l3.968-6.33c.47-.748.72-1.611.72-2.498A4.693 4.693 0 0 0 10 .79zm0 7.617a2.933 2.933 0 0 1-2.93-2.93A2.933 2.933 0 0 1 10 2.547a2.933 2.933 0 0 1 2.93 2.93A2.933 2.933 0 0 1 10 8.407z"/><path d="M7.148 20.79h5.702l-.45-3.555H7.587zm.586-4.727h1.989l-1.66-2.632zm5.696 0h4.617l-1.465-3.515H12.98zm-11.477 0h4.6l.44-3.515H3.418zm8.324 0h1.972l-.333-2.598zm-3.87 1.172H1.465L0 20.79h5.967zm12.128 0h-4.954l.45 3.555H20z"/></g></symbol><symbol viewBox="0 0 20 20" id="map-2" xmlns="http://www.w3.org/2000/svg"><g fill-rule="evenodd"><path fill-rule="nonzero" d="M7.273 2.054l5.454 1.283v14.551l-5.454-.962V2.054zm-.364-.823a.365.365 0 0 0-.364.364V17.23c0 .177.127.327.3.358l6.183 1.09a.365.365 0 0 0 .427-.358V3.05a.364.364 0 0 0-.28-.354L6.991 1.241a.358.358 0 0 0-.083-.01z"/><path d="M19.849.572a.361.361 0 0 0-.328-.05l-6.545 2.182a.363.363 0 0 0-.249.345v15.273a.363.363 0 0 0 .496.339l6.545-2.545a.364.364 0 0 0 .232-.34V.869a.363.363 0 0 0-.151-.296zM6.83 1.24L.285 2.694A.364.364 0 0 0 0 3.05v15.637a.363.363 0 0 0 .443.355l6.545-1.455a.365.365 0 0 0 .285-.355V1.595a.363.363 0 0 0-.443-.355z"/></g></symbol><symbol viewBox="0 0 20 20" id="megaphone" xmlns="http://www.w3.org/2000/svg"><path d="M9.981 12.57V4.957c-.216.02-.429.054-.646.064H3.12a.624.624 0 0 0-.624.623v.624H.624a.624.624 0 0 0-.623.624v3.743c0 .344.28.623.623.623h1.872v.624c0 .344.28.624.624.624h.378l2.507 6.684a1.24 1.24 0 0 0 1.168.803c.333 0 .65-.133.877-.37l1.498-1.486c.383-.383.474-.98.23-1.443l-2.094-4.188h1.657c.215.01.427.044.64.064zM19.86.332a.616.616 0 0 0-.3-.258c-.005-.001-.008-.006-.011-.008-.013-.003-.024.003-.036 0C19.456.048 19.4.03 19.338.03c-.043 0-.08.017-.121.025-.024.005-.046.006-.07.014a.62.62 0 0 0-.273.177c-.005.005-.013.006-.018.011a13.127 13.127 0 0 1-7.627 4.52v7.973a13.125 13.125 0 0 1 7.627 4.52c.005.005.014.008.02.015a.605.605 0 0 0 .155.12c.019.011.034.028.052.036a.642.642 0 0 0 .466.019c.003-.001.006-.006.01-.007a.606.606 0 0 0 .26-.2.764.764 0 0 0 .04-.059.604.604 0 0 0 .103-.322V.654a.604.604 0 0 0-.103-.322z" fill-rule="evenodd"/></symbol><symbol viewBox="0 0 196.67 196.67" id="message-boards" xmlns="http://www.w3.org/2000/svg"><path d="M115.472 32.766c-1.365-7.258.179-14.614 4.347-20.711 4.168-6.098 10.46-10.208 17.719-11.572 1.7-.32 3.432-.483 5.146-.483 13.269 0 24.682 9.483 27.138 22.548 2.817 14.984-7.081 29.466-22.065 32.284-1.701.32-3.433.482-5.145.482-13.27-.001-24.684-9.483-27.14-22.548zm68.272 128.931a5 5 0 0 1-3.566 3.212L46.755 196.535a5.004 5.004 0 0 1-5.424-2.264c-.378-.621-9.371-15.683-18.116-56.042C14.549 98.233 12.72 35.469 12.646 32.817a5 5 0 0 1 4.606-5.124l88.372-6.942a37.607 37.607 0 0 0 .019 13.862 37.586 37.586 0 0 0 4.554 12.141L80.262 70.6a5 5 0 1 0 6.23 7.822l29.88-23.8c6.833 6.659 16.14 10.692 26.239 10.692 2.332 0 4.685-.22 6.993-.654a37.88 37.88 0 0 0 4.292-1.079 789.901 789.901 0 0 0 2.715 27.193c4.45 37.841 26.134 65.91 26.352 66.189a4.997 4.997 0 0 1 .781 4.734zm-68.893-17.864a5 5 0 0 0-6.035-3.685l-52.889 12.786a5 5 0 1 0 2.35 9.72l52.889-12.786a5 5 0 0 0 3.685-6.035zm16.146-41.18a4.997 4.997 0 0 0-5.911-3.879l-79.5 16.5a5 5 0 0 0 2.032 9.792l79.5-16.5a5.001 5.001 0 0 0 3.879-5.913z"/></symbol><symbol viewBox="0 0 486.31 486.31" id="miscellaneous" xmlns="http://www.w3.org/2000/svg"><path d="M.018 393.086a18.082 18.082 0 0 0 13.434 16.707l183.256 48.558a51.974 51.974 0 0 0 13.273 1.721c5.718 0 11.416-.936 16.878-2.818l247.238-85.063a18.095 18.095 0 0 0 12.185-18.109c-.446-8.084-6.211-14.882-14.107-16.66l-31.558-7.076-203.079 69.875a84.455 84.455 0 0 1-27.558 4.611 84.85 84.85 0 0 1-21.681-2.826L43.936 363.752l-31.974 11.52C4.518 377.955-.334 385.176.018 393.086z"/><path d="M.018 305.044c.335 7.91 5.797 14.677 13.449 16.709l183.24 48.556a51.802 51.802 0 0 0 30.151-1.096l247.238-85.064a18.097 18.097 0 0 0 12.185-18.108 18.105 18.105 0 0 0-14.107-16.662l-31.558-7.076-203.079 69.876a84.474 84.474 0 0 1-27.558 4.603 84.884 84.884 0 0 1-21.681-2.817L43.936 275.711l-31.974 11.521C4.518 289.913-.334 297.135.018 305.044z"/><path d="M237.538 224.128a84.475 84.475 0 0 1-27.558 4.604 84.885 84.885 0 0 1-21.681-2.818L43.936 187.669 11.962 199.19C4.518 201.872-.334 209.094.018 217.004c.335 7.908 5.797 14.674 13.449 16.707l183.24 48.557a51.931 51.931 0 0 0 13.273 1.722 51.82 51.82 0 0 0 16.878-2.817l247.238-85.065a18.099 18.099 0 0 0 12.185-18.109 18.102 18.102 0 0 0-14.107-16.66l-31.558-7.078-203.078 69.867z"/><path d="M13.452 145.662l183.256 48.557a51.93 51.93 0 0 0 13.273 1.721c5.718 0 11.416-.937 16.878-2.818l247.238-85.063a18.099 18.099 0 0 0 12.185-18.109 18.104 18.104 0 0 0-14.107-16.661L268.008 27.494a51.856 51.856 0 0 0-11.352-1.256 51.812 51.812 0 0 0-17.582 3.066L11.962 111.14C4.518 113.822-.334 121.044.018 128.954a18.084 18.084 0 0 0 13.434 16.708z"/></symbol><symbol viewBox="0 0 20 25" id="money-bag" xmlns="http://www.w3.org/2000/svg"><g fill-rule="evenodd"><path d="M11.637 15.995a1.145 1.145 0 0 0-.321-.234 3.876 3.876 0 0 0-.814-.287v2.153c.451-.05.97-.214 1.206-.635a.984.984 0 0 0 .09-.673.676.676 0 0 0-.16-.324zm.089 1.024l.005-.007a.474.474 0 0 0-.005.007zm-3.34-4.468a.908.908 0 0 0-.093.797.662.662 0 0 0 .26.287c.12.082.252.146.387.2.113.046.24.09.377.131v-1.949c-.346.074-.724.232-.931.534zm3.356 4.44l-.016.028.016-.028zm.008-.014c.001-.002.001-.002 0 0z"/><path fill-rule="nonzero" d="M11.26 5.239C13.093 3.7 14.317.234 13.564.082c-1-.201-3.174.682-4.224.838C7.85 1.1 6.227-.695 5.316.305c-.74.814.531 3.773 2.52 5.062-5.934 2.917-14.276 17.56.277 18.623C28.248 25.46 18.165 8.082 11.26 5.24zm1.73 11.548a2.117 2.117 0 0 1-.817 1.438c-.477.37-1.076.542-1.671.59v.631a.596.596 0 0 1-.2.444.597.597 0 0 1-.64.094.597.597 0 0 1-.345-.538v-.69a3.883 3.883 0 0 1-.303-.07 2.908 2.908 0 0 1-1.449-.89 2.612 2.612 0 0 1-.52-.953 1.057 1.057 0 0 1-.047-.2.593.593 0 0 1 1.151-.246c.023.068.038.138.064.206a1.366 1.366 0 0 0 .35.527c.21.202.477.333.754.41v-2.343c-.543-.14-1.104-.322-1.553-.671a1.807 1.807 0 0 1-.524-.63 1.971 1.971 0 0 1-.183-.848 2.02 2.02 0 0 1 .664-1.525c.436-.402 1.015-.626 1.597-.708v-.655c0-.168.073-.332.2-.443a.597.597 0 0 1 .64-.095.6.6 0 0 1 .344.538v.652c.077.01.155.02.231.035.571.103 1.13.339 1.547.75a2.26 2.26 0 0 1 .557.897c.022.07.045.14.056.212a.593.593 0 0 1-1.14.299c-.024-.065-.036-.133-.062-.198a1.13 1.13 0 0 0-.377-.48c-.237-.175-.524-.266-.812-.317v2.242a7.52 7.52 0 0 1 1.012.3c.495.196.964.495 1.234.967a5.552 5.552 0 0 1 .002.003c.082.145.043.076.001.003.215.379.286.832.24 1.262z"/><path d="M11.724 17.022l-.015.028.015-.028z"/></g></symbol><symbol viewBox="0 0 395.569 395.569" id="news-headlines" xmlns="http://www.w3.org/2000/svg"><path d="M365.11 81.124c-2.3-29.794-27.261-53.339-57.635-53.339H57.826C25.941 27.785 0 53.726 0 85.61v224.35c0 31.884 25.941 57.825 57.826 57.825h279.918c31.885 0 57.826-25.941 57.826-57.825V132.03c-.001-21.987-12.345-41.131-30.46-50.906zM333.99 309.96c0 14.619-11.894 26.514-26.514 26.514H57.826c-14.62 0-26.514-11.895-26.514-26.514V85.61c0-14.619 11.894-26.514 26.514-26.514h249.65c14.62 0 26.514 11.895 26.514 26.514v224.35z"/><path d="M62.901 145.138h.652a8.155 8.155 0 0 0 8.156-8.157v-28.756l24.358 33.548a8.16 8.16 0 0 0 6.601 3.365h.791c.03 0 .06-.006.088-.006.041 0 .081.006.123.006h.652a8.156 8.156 0 0 0 8.156-8.157V83.399a8.157 8.157 0 0 0-8.156-8.157h-.652a8.156 8.156 0 0 0-8.157 8.157v28.755L71.156 78.606a8.159 8.159 0 0 0-6.6-3.364h-.792c-.03 0-.058.006-.088.006-.042 0-.082-.006-.123-.006h-.652a8.156 8.156 0 0 0-8.156 8.157v53.582a8.155 8.155 0 0 0 8.156 8.157zm99.518-16.314h-25.441v-10.971h20.764a8.156 8.156 0 0 0 8.156-8.155v-.653a8.156 8.156 0 0 0-8.156-8.157h-20.764v-8.681h24.349a8.156 8.156 0 0 0 8.157-8.156v-.652a8.156 8.156 0 0 0-8.157-8.157h-33.158a8.157 8.157 0 0 0-8.157 8.157v53.582a8.156 8.156 0 0 0 8.157 8.157h34.251a8.157 8.157 0 1 0-.001-16.314zm36.539 16.314h.501l.032-.002.032.002h.421a8.16 8.16 0 0 0 7.731-5.553l10.196-30.274 10.148 30.265a8.154 8.154 0 0 0 7.733 5.563h.501l.032-.002.033.002h.421a8.156 8.156 0 0 0 7.724-5.537l18.168-53.583a8.155 8.155 0 0 0-7.723-10.776h-.835a8.156 8.156 0 0 0-7.742 5.59L236.268 111.2l-10.11-30.376a8.156 8.156 0 0 0-7.739-5.581h-1.14a8.155 8.155 0 0 0-7.742 5.59L199.474 111.2l-10.109-30.376a8.156 8.156 0 0 0-7.74-5.581h-.834a8.16 8.16 0 0 0-6.63 3.405 8.153 8.153 0 0 0-1.095 7.371l18.168 53.583a8.154 8.154 0 0 0 7.724 5.536zm90.538 0c18.084 0 26.178-10.525 26.177-20.893.125-16.176-13.955-20.431-22.368-22.973-9.335-2.822-10.215-3.955-10.215-6.244 0-1.362 3.264-2.82 8.12-2.82 3.25 0 7.099.954 9.36 2.318a8.155 8.155 0 0 0 11.135-2.661l.299-.479a8.152 8.152 0 0 0 1.018-6.202 8.147 8.147 0 0 0-3.693-5.085c-4.992-3.041-11.765-4.857-18.119-4.857-17.33 0-25.087 9.937-25.087 19.786 0 15.75 13.332 19.788 22.153 22.459 9.605 2.909 10.453 4.065 10.432 6.699 0 2.739-4.776 3.986-9.212 3.986-4.31 0-9.038-1.84-11.766-4.579a8.157 8.157 0 0 0-5.77-2.402h-.008c-2.162 0-4.239.86-5.768 2.39l-.445.446a8.155 8.155 0 0 0 .078 11.613c6.021 5.859 15.094 9.498 23.679 9.498zm-142.158 23.771H69.755c-8.646 0-15.656 7.009-15.656 15.656 0 8.646 7.009 15.656 15.656 15.656h77.582c8.646 0 15.656-7.01 15.656-15.656.001-8.647-7.009-15.656-15.655-15.656zm0 52.185H69.755c-8.646 0-15.656 7.01-15.656 15.656s7.009 15.656 15.656 15.656h77.582c8.646 0 15.656-7.009 15.656-15.656.001-8.646-7.009-15.656-15.655-15.656zm0 52.187H69.755c-8.646 0-15.656 7.009-15.656 15.656 0 8.646 7.009 15.656 15.656 15.656h77.582c8.646 0 15.656-7.01 15.656-15.656.001-8.647-7.009-15.656-15.655-15.656zM306.61 166.698H186.967c-5.005 0-9.064 4.059-9.064 9.063V297.74c0 5.005 4.059 9.063 9.064 9.063H306.61a9.064 9.064 0 0 0 9.064-9.063V175.761a9.064 9.064 0 0 0-9.064-9.063z"/></symbol><symbol viewBox="0 0 20 21" id="note" xmlns="http://www.w3.org/2000/svg"><g fill-rule="evenodd"><path d="M18 12.97l-4 7h4zm-9 7l-5-3v3z"/><path fill-rule="nonzero" d="M13.294 4.419V5.48a1.83 1.83 0 1 1-3.66 0V3.284h.732V5.48a1.098 1.098 0 0 0 2.196 0V3.996L7.32.97 0 13.65l12.68 7.32L20 8.289l-6.706-3.87zm-2.562-.403h.732v.732c0 .202.164.366.366.366h.366v.732h-.366a1.098 1.098 0 0 1-1.098-1.098v-.732zm.107 11.65L5.135 12.37l.366-.633 5.704 3.293-.366.634zm1.098-2l-5.704-3.294.366-.634 5.704 3.294-.366.634zM7.33 8.37l.366-.634 5.705 3.294-.366.634L7.33 8.371z"/><path d="M4 5.97l1-1H4zm11-1l3 2v-2zm-3.536 2.34a1.832 1.832 0 0 1-1.83-1.83V3.284h.732V5.48a1.098 1.098 0 0 0 2.196 0V3.996L7.32.97 0 13.65l12.68 7.32L20 8.289l-6.706-3.87V5.48a1.832 1.832 0 0 1-1.83 1.83z"/><path d="M11-.03c-1.1.007-1.991.743-2 1.653v.33h.8v-.33c0-.548.537-.992 1.2-.992.663 0 1.2.444 1.2.992v1.964l.8.383V1.623C12.999.71 12.104-.03 11-.03z"/></g></symbol><symbol viewBox="0 0 20 16" id="open-book" xmlns="http://www.w3.org/2000/svg"><g fill-rule="evenodd"><path d="M3.06.003h-.002a.713.713 0 0 0-.712.716v10.732c0 .393.321.714.716.715 1.666.004 4.457.351 6.382 2.366V3.302a.686.686 0 0 0-.098-.363C7.766.394 4.73.007 3.06.003zM17.654 11.45V.72a.713.713 0 0 0-.712-.716h-.001c-1.67.004-4.707.39-6.287 2.936a.686.686 0 0 0-.098.362v11.231c1.925-2.015 4.716-2.362 6.382-2.366a.718.718 0 0 0 .716-.715z"/><path d="M19.284 2.478h-.519v8.973a1.831 1.831 0 0 1-1.825 1.826c-1.413.004-3.742.28-5.392 1.842 2.853-.7 5.862-.245 7.576.146a.714.714 0 0 0 .876-.698V3.194a.716.716 0 0 0-.716-.716zM1.234 11.45V2.479H.716A.716.716 0 0 0 0 3.194v11.373a.714.714 0 0 0 .876.697c1.714-.39 4.723-.844 7.576-.146-1.65-1.561-3.98-1.837-5.393-1.84a1.83 1.83 0 0 1-1.825-1.827z"/></g></symbol><symbol viewBox="0 0 20 18" id="photo-camera" xmlns="http://www.w3.org/2000/svg"><g fill-rule="evenodd"><path fill-rule="nonzero" d="M19.19 3.845a2.565 2.565 0 0 0-1.883-.78h-2.33l-.53-1.415c-.132-.34-.373-.632-.723-.879-.35-.246-.709-.369-1.076-.369H7.322c-.367 0-.726.123-1.076.37-.35.246-.591.539-.723.878l-.53 1.415h-2.33c-.735 0-1.363.26-1.883.78S0 4.992 0 5.727v9.32c0 .735.26 1.362.78 1.882.52.52 1.148.78 1.883.78h14.644c.735 0 1.362-.26 1.883-.78.52-.52.78-1.147.78-1.882v-9.32c0-.735-.26-1.362-.78-1.882zm-5.913 9.834c-.912.912-2.01 1.368-3.292 1.368-1.283 0-2.38-.456-3.292-1.368-.912-.912-1.368-2.01-1.368-3.292 0-1.283.456-2.38 1.368-3.292.912-.912 2.009-1.367 3.292-1.367s2.38.456 3.292 1.367c.912.912 1.367 2.01 1.367 3.292 0 1.283-.455 2.38-1.367 3.292z"/><path d="M9.985 7.392c-.825 0-1.53.292-2.117.879a2.885 2.885 0 0 0-.879 2.116c0 .825.293 1.53.88 2.117a2.885 2.885 0 0 0 2.116.879c.825 0 1.53-.293 2.116-.88a2.885 2.885 0 0 0 .88-2.116c0-.825-.294-1.53-.88-2.116a2.885 2.885 0 0 0-2.116-.88z"/></g></symbol><symbol viewBox="0 0 28.81 28.81" id="phrazzle" xmlns="http://www.w3.org/2000/svg"><path d="M21.472 6.082a1.991 1.991 0 0 0 1.998-1.994v-2.09A1.993 1.993 0 0 0 21.472 0a1.995 1.995 0 0 0-1.996 1.998v2.09c0 1.105.894 1.994 1.996 1.994z"/><path d="M28.573 3.46h-4.025v1.012a3.042 3.042 0 1 1-6.084 0V3.46h-8.115v1.012a3.041 3.041 0 0 1-6.082 0V3.46L.208 3.408v25.401l2.029.001h24.338l2.027-.007-.029-25.343zm-1.998 23.329H2.237v-16.23h24.338v16.23z"/><path d="M7.276 6.082A1.99 1.99 0 0 0 9.27 4.088v-2.09a1.995 1.995 0 1 0-3.992 0v2.09c0 1.105.895 1.994 1.998 1.994zm2.678 16.317c.756-.649 1.312-1.705 1.312-3.229 0-1.407-.523-2.388-1.348-3-.758-.566-1.748-.852-3.275-.852-.895 0-1.764.072-2.422.178v7.812c.438.059 1.109.118 2.045.118 1.561 0 2.848-.332 3.688-1.027zm-3.935-5.627c.154-.037.424-.071.814-.071 1.561 0 2.533.875 2.533 2.529 0 1.9-1.08 2.801-2.723 2.788-.213 0-.471 0-.625-.033l.001-5.213zm8.095 4.526h2.279l.617 2.047h1.951l-2.482-7.968h-2.365l-2.424 7.968h1.859l.565-2.047zm.731-3.037c.133-.46.252-1.063.369-1.537h.023c.119.474.26 1.066.404 1.537l.494 1.692h-1.762l.472-1.692zm5.892 5.085h1.795v-3.325l2.623-4.643h-2.02l-.805 1.914a31.272 31.272 0 0 0-.602 1.525h-.025c-.188-.52-.363-.945-.611-1.525l-.805-1.914h-2.068l2.518 4.703v3.265z"/></symbol><symbol viewBox="0 0 50 50" id="pinterest-logo" xmlns="http://www.w3.org/2000/svg"><path d="M45.7-2H3.3C.385-2-2 .385-2 3.3v42.4C-2 48.615.385 51 3.3 51h42.4c2.915 0 5.3-2.385 5.3-5.3V3.3C51 .385 48.615-2 45.7-2zM27.15 35.63c-2.12 0-4.24-.795-5.565-2.385l-2.65 8.48-.265.53c-.53.795-1.325 1.325-2.385 1.325-1.59 0-2.915-1.325-2.915-2.915V40.4l.265-.53 4.77-14.84s-.53-1.59-.53-3.975c0-4.505 2.385-5.83 4.505-5.83 1.855 0 3.71.795 3.71 3.445 0 3.445-2.385 5.3-2.385 7.95 0 1.855 1.59 3.445 3.445 3.445 6.095 0 8.48-4.77 8.48-9.01 0-5.83-5.035-10.6-11.13-10.6-6.095 0-11.13 4.77-11.13 10.6 0 1.855.53 3.445 1.325 5.035.265.53.265.795.265 1.325 0 1.59-1.06 2.65-2.65 2.65-1.06 0-1.855-.53-2.385-1.325-1.325-2.385-2.12-5.035-2.12-7.95 0-8.745 7.42-15.9 16.43-15.9s16.43 7.155 16.43 15.9c.265 7.42-3.975 14.84-13.515 14.84z"/></symbol><symbol viewBox="-80 0 512 512" id="portal" xmlns="http://www.w3.org/2000/svg"><path d="M301.758 77.266C268.539 27.44 223.758 0 175.664 0c-48.09 0-92.867 27.441-126.086 77.266C17.605 125.223 0 188.696 0 256c0 67.3 17.605 130.777 49.578 178.73C82.797 484.56 127.574 512 175.664 512c48.094 0 92.875-27.441 126.094-77.27 31.969-47.953 49.574-111.43 49.574-178.73 0-67.305-17.605-130.777-49.574-178.734zm19.566 179.722l-3.238-22.816-4.293-19.824c-.023-.118-.05-.235-.07-.352-.285-1.52-.883-3.422-1.512-5.433-.469-1.5-.953-3.047-1.418-4.743l-3.355-11.484c-1.461-3.805-2.965-7.723-4.512-11.746-.02-.047-.035-.094-.055-.14l-2.266-6.079c-.347-.812-.808-1.75-1.293-2.734-.421-.86-.843-1.719-1.25-2.594l-5.648-11.992c-8.406-15.16-18.133-28.895-28.156-39.758-9.488-9.453-20.293-17.508-31.313-23.332l-8.011-3.086a51.683 51.683 0 0 1-2.258-.93c-.207-.09-.414-.183-.621-.27a517.176 517.176 0 0 0-3.309-.706c-.066-.016-.133-.028-.2-.043-2.437-.551-4.8-1.13-7.05-1.719l-5.766-.383c-1.53-.058-2.855-.226-3.84-.355-.234-.031-.46-.067-.69-.09l-.114.012-6.074.547c-.184.015-.364.027-.547.039-1.305.07-2.555.136-3.738.203l-3.04.773c-.046.016-.093.024-.14.035-3.328.82-5.82 1.356-7.39 1.672a194.99 194.99 0 0 1-7.15 2.918c-.062.024-.12.047-.183.07l-2.82 1.055-3.504 2.125c-.148.086-.297.176-.445.258l-1.414.793c-1.243.695-2.54 1.426-3.887 2.176-.059.03-.113.062-.176.093-.23.188-.57.473-.84.7-.816.687-1.828 1.539-3.023 2.39l-4.762 3.563a204.377 204.377 0 0 1-5.59 5.554l-2.539 2.372c-.164.207-.422.539-.62.8a68.273 68.273 0 0 1-1.395 1.758 207.755 207.755 0 0 1-5.657 6.746c-6.793 9.824-12.847 20.864-17.554 32.008-4.188 11.207-7.524 23.504-9.922 36.563-.328 3.503-.668 6.59-1.04 9.406-.085.77-.199 1.52-.308 2.262-.066.449-.137.91-.172 1.218l-.11 4.102a207.379 207.379 0 0 1-.453 8.191l.032.77c.098 2.18.191 4.246.227 6.312.066 1.399.05 2.625.035 3.63-.008.581-.02 1.374.008 1.636a201.489 201.489 0 0 1 .785 7.14c.144 1.618.27 3.235.375 4.829l.695 3.629.035.183a172.374 172.374 0 0 1 1.281 8.04c.43 1.495 1.153 4.132 1.993 7.671.02.074.035.149.05.223l.672 3.015c.516 1.348.992 2.645 1.45 3.942a126.84 126.84 0 0 1 1.87 5.746c.094.195.2.394.301.594.391.757.907 1.77 1.407 2.964a115.39 115.39 0 0 1 1.957 4.622 95.64 95.64 0 0 1 2.886 4.984c.055.098.106.195.157.297l.933 1.816c.305.395.711.91 1.149 1.531a80.403 80.403 0 0 1 3.398 5.016c4.164 4.785 8.508 8.817 12.64 11.738a37.807 37.807 0 0 0 10.122 3.61 36.818 36.818 0 0 1 3.347-.121l.051-.012c.89-.227 1.758-.41 2.61-.555a32.2 32.2 0 0 1 1.543-.652c3.132-1.41 5.312-3.129 6.632-4.168 6.852-5.399 12.887-4.387 16.746-2.59a15.073 15.073 0 0 1 8.672 13.168c.176 5.648-2.797 10.664-7.332 13.363-2.207 1.727-6.683 5.09-13.011 7.852-.25.11-.504.21-.762.308-.242.102-.844.403-1.281.625l-.254.125a15.028 15.028 0 0 1-6.008 1.563.072.072 0 0 0-.027.008l-1.485.437a15.26 15.26 0 0 1-1.765.399 17.874 17.874 0 0 1-4.786.125c-.105 0-.496.011-1.336.125a14.931 14.931 0 0 1-4.34-.031 67.61 67.61 0 0 1-22.453-7.649c-.417-.23-.824-.48-1.218-.75-6.82-4.664-13.512-10.828-19.89-18.332a15.46 15.46 0 0 1-1.423-1.977 49.63 49.63 0 0 0-2.636-3.953c-.102-.14-.204-.28-.301-.425-.04-.047-.133-.168-.227-.286-.523-.668-1.316-1.68-2.101-2.98-.18-.3-.348-.606-.508-.918l-1.32-2.582a73.068 73.068 0 0 0-2.512-4.25 15.426 15.426 0 0 1-1.25-2.438c-.696-1.734-1.356-3.375-2.02-4.824-.105-.234-.21-.472-.304-.71-.11-.255-.266-.532-.407-.813-.687-1.344-1.71-3.344-2.402-5.875a97.072 97.072 0 0 0-1.363-4.172 122.45 122.45 0 0 0-1.512-4.059 14.995 14.995 0 0 1-.676-2.207l-.894-4.043c-1.036-4.343-1.848-6.996-1.856-7.023l-.023-.098a16.1 16.1 0 0 1-.336-1.328c-.04-.203-.063-.41-.098-.617-.039-.246-.09-.488-.113-.738-.004-.024-.3-2.618-1.145-7.32l-.867-4.516a14.08 14.08 0 0 1-.242-1.946 151.956 151.956 0 0 0-.367-4.863c-.168-1.84-.371-3.73-.606-5.613-.36-2.504-.328-4.703-.304-6.324.007-.73.02-1.356-.008-1.829a15.49 15.49 0 0 1-.024-.609c-.027-1.726-.113-3.672-.207-5.726l-.074-1.723a15.5 15.5 0 0 1 .035-1.856c.2-2.437.348-4.992.446-7.586l.007-.406c.036-1.347.07-2.71.114-4.094.004-.199.011-.398.027-.593.102-1.5.297-2.793.453-3.832.063-.418.13-.84.18-1.278.012-.101.023-.207.039-.308.348-2.633.668-5.582.984-9.024.04-.437.098-.87.176-1.3 2.746-15.168 6.64-29.524 11.574-42.668.067-.184.14-.364.215-.543 5.637-13.41 12.969-26.723 21.2-38.504.324-.465.675-.91 1.05-1.34a168.33 168.33 0 0 0 5.399-6.414l.234-.29c.254-.3.5-.62.746-.94.719-.934 1.613-2.09 2.742-3.278.207-.223.426-.438.645-.645l2.96-2.765a173.263 173.263 0 0 0 5.352-5.36 14.823 14.823 0 0 1 1.856-1.64l5.89-4.406c.133-.102.266-.196.399-.29.203-.144.734-.59 1.12-.917 1.466-1.23 3.43-2.883 6.032-4.211 1.211-.676 2.383-1.332 3.508-1.965l1.992-1.153 3.68-2.23c.812-.496 1.668-.91 2.558-1.242l4.07-1.52c4.438-1.719 7.11-2.937 7.137-2.949.13-.059.258-.102.387-.152a13.423 13.423 0 0 1 1.445-.532c.22-.066.434-.128.653-.187.281-.07.562-.137.844-.191.117-.024.226-.06.343-.079.086-.015 2.676-.48 7.242-1.601l4.422-1.133a14.84 14.84 0 0 1 2.864-.437c1.547-.086 3.214-.18 4.992-.274l5.465-.488c3.18-.406 5.86-.063 7.668.172.406.054.96.125 1.152.132.195.004.379.016.57.028l7.496.496c.993.066 1.977.23 2.938.492 2.238.606 4.652 1.203 7.176 1.777 1.375.29 2.765.59 4.172.891.351.074.695.164 1.039.262 1.77.515 3.25 1.156 4.328 1.625.32.137.636.281.965.402.035.016.07.027.101.04l8.863 3.41c.524.202 1.036.433 1.532.69 6.992 3.634 13.765 7.868 20.277 12.66a196.843 196.843 0 0 1 10.453 14.286c28.73 43.074 44.547 100.64 44.547 162.086 0 .332-.008.66-.008.988zM177.898 30.043l-8.363 2.703c-.058.024-.12.04-.18.059l-4.414 1.37-5.324 2.645a1.84 1.84 0 0 1-.168.078l-7.144 3.43c-.172.082-.348.164-.52.238-.418.23-1.39.914-2.105 1.418-1.02.715-2.164 1.524-3.461 2.329l-7.133 4.683-7.48 6.469c-.055.047-.114.098-.172.144l-3.852 3.235c-.394.394-.934.988-1.457 1.566-.594.656-1.187 1.317-1.79 1.945l-7.87 8.336c-10.082 12.606-19.266 27.278-26.59 42.493-6.734 15.195-12.488 32.664-16.652 50.558l-2.2 12.867c-.148.895-.324 1.809-.5 2.72-.199 1.042-.375 1.952-.488 2.75l-.574 6.058c-.402 3.98-.82 7.836-1.262 11.547l-.308 10.41a96.922 96.922 0 0 1-.192 4.57c-.094 1.672-.176 3.113-.101 4.184l.023.433.36 9.121c.003.07.007.145.007.215l.176 7.196c.25 2.19.48 4.21.688 6.054a529.682 529.682 0 0 1 1.195 12.059 496.45 496.45 0 0 1 2.129 11.64l.93 5.598 1.71 6.36c.024.085.047.171.067.257l1.972 7.906c.043.18.086.36.125.54.125.601.563 1.77.985 2.898a75.5 75.5 0 0 1 1.383 3.934l2.632 7.921a321.966 321.966 0 0 1 3.754 8.465c.02.04.036.082.051.125l1.719 4.137c.176.34.45.816.719 1.281.39.684.78 1.367 1.156 2.067a268.978 268.978 0 0 1 4.516 8.52c6.421 10.01 13.59 18.898 20.77 25.75 6.565 5.5 13.687 9.894 21.187 13.085 2.199.485 4.168.985 5.98 1.52.55.148 1.04.3 1.45.433l1.398.086c.11.004.222.016.336.024a70.12 70.12 0 0 1 4.82.554 73.73 73.73 0 0 1 3.652-.289 27.064 27.064 0 0 1 2.832-.086 73.873 73.873 0 0 1 4.094-.964 66.984 66.984 0 0 1 2.414-.45l1.227-.531c.117-.05.23-.098.343-.144a78.33 78.33 0 0 1 4.922-1.817 86.627 86.627 0 0 1 4.668-2.683c.125-.067.25-.13.38-.192l1.066-.531a72.414 72.414 0 0 1 2.113-1.73 71.82 71.82 0 0 1 3.52-2.618c.546-.625 1.253-1.43 2.152-2.281a72.159 72.159 0 0 1 2.875-2.762 86.984 86.984 0 0 1 3.207-4.164c.094-.113.191-.23.289-.344.351-.402.707-.808 1.062-1.218a81.69 81.69 0 0 1 4.367-6.816c3.56-6.95 6.586-14.344 8.778-21.473 1.676-6.942 2.82-14.457 3.41-22.364-.121-2.242-.168-4.148-.14-5.918a31.91 31.91 0 0 1 .038-1.625l-.222-1.726a6.822 6.822 0 0 1-.04-.297 68.008 68.008 0 0 1-.37-4.598 78.526 78.526 0 0 1-.739-3.726c-1.254-6.39-2.754-10.68-3.562-12.992-.899-2.563-2.996-8.563 1.047-14.817a15.044 15.044 0 0 1 11.316-6.812c7.586-.653 14.34 4.449 15.942 11.687.003.008.007.02.007.027.996 2.84 3.067 8.75 4.739 17.395.03.148.058.297.082.445.148.934.441 2.242.754 3.63.222.995.343 2.023.363 3.042.012.945.09 2.035.219 3.238l.34 2.59c.039.285.066.57.085.856.106 1.437.047 2.636.012 3.351l-.012.285c0 .122 0 .243-.003.368-.02 1.27.027 2.836.148 4.789a16.05 16.05 0 0 1-.008 1.937c-.691 10.106-2.164 19.79-4.367 28.778a14.61 14.61 0 0 1-.215.789c-2.875 9.46-6.746 18.875-11.504 27.976-.36.688-.765 1.34-1.222 1.961a49.55 49.55 0 0 0-2.641 3.965c-.086.14-.168.277-.258.41-.055.098-.144.254-.23.41-.465.82-1.102 1.946-2.008 3.16-.219.293-.445.579-.688.856a333.3 333.3 0 0 1-1.722 1.984 61.762 61.762 0 0 0-2.688 3.578 14.796 14.796 0 0 1-2.258 2.555c-1.195 1.074-2.101 1.899-2.886 2.719-.188.191-.38.379-.575.562l-.32.368c-1.043 1.199-2.73 3.14-5.273 4.746a36.616 36.616 0 0 0-2.184 1.613 57.988 57.988 0 0 0-2.422 2.027 14.974 14.974 0 0 1-3.222 2.176l-2.57 1.285c-2.325 1.25-3.74 2.211-3.755 2.223a14.907 14.907 0 0 1-5.28 2.332c-.552.172-1.59.52-3.075 1.121l-2.867 1.242c-1.305.567-2.68.945-4.09 1.125-.778.102-1.598.238-2.442.414-.925.188-1.894.422-2.894.7-3.277 1.019-6.02.93-7.531.878l-.153-.004a14.3 14.3 0 0 1-.707.043c-.855.032-2.027.153-3.27.278l-1.073.105c-.489.051-.977.074-1.47.074-.913 0-1.823-.085-2.726-.25a38.591 38.591 0 0 0-3.898-.515l-2.813-.172c-.48-.027-.96-.078-1.433-.152-1.883-.29-3.38-.797-4.274-1.102l-.261-.086a20.744 20.744 0 0 1-.465-.133c-1.422-.425-3.106-.84-5.149-1.261-.89-.188-1.761-.45-2.605-.793-10.989-4.47-21.332-10.77-30.742-18.723a12.2 12.2 0 0 1-.63-.563c-9.327-8.828-18.128-19.71-26.163-32.343a14.737 14.737 0 0 1-.739-1.305 224.837 224.837 0 0 0-4.367-8.262c-.055-.097-.105-.199-.16-.297-.223-.421-.461-.832-.7-1.246-.573-.996-1.288-2.238-1.972-3.691a19.091 19.091 0 0 1-.281-.64l-1.863-4.493a291.984 291.984 0 0 0-3.704-8.316 14.719 14.719 0 0 1-.625-1.578l-2.937-8.836a27.466 27.466 0 0 1-.094-.297c-.222-.711-.543-1.567-.879-2.477-.707-1.89-1.582-4.226-2.172-6.906l-1.882-7.543-1.864-6.918c-.129-.48-.23-.965-.312-1.457l-1.035-6.23c-1.23-7.149-2.118-11.512-2.13-11.555-.015-.074-.019-.149-.03-.223a10.48 10.48 0 0 1-.11-.71 13.46 13.46 0 0 1-.098-.786 1.614 1.614 0 0 1-.02-.144c-.003-.04-.339-4.34-1.175-11.97-.219-1.96-.472-4.19-.754-6.624-.05-.446-.082-.895-.093-1.348L38 229.477l-.352-8.82c-.18-2.856-.03-5.434.102-7.716.066-1.18.133-2.293.14-3.328 0-.093.005-.187.008-.281l.332-11.215c.012-.445.047-.89.098-1.336a567.1 567.1 0 0 0 1.27-11.562l.601-6.285c.016-.16.035-.32.055-.48.226-1.77.535-3.376.809-4.794.132-.683.265-1.375.382-2.078l1.434-8.379c7.496-25.566 18.148-49.035 31.66-69.3C102.016 52.694 137.93 30 175.664 30c.746 0 1.492.023 2.234.043zm-147.89 224.95c.312 2.155 1.058 7.355 2.156 14.995.34 2.426.695 5.032 1.086 7.848l1.98 8.988.024.106 2.285 10.726c.024.114.047.227.066.34.293 1.531.891 3.45 1.524 5.477.465 1.488.945 3.023 1.406 4.707l3.356 11.48a11275.144 11275.144 0 0 1 4.57 11.899l2.266 6.074c.351.816.816 1.762 1.304 2.758.426.863.852 1.73 1.258 2.609l5.629 11.95c8.406 15.155 18.129 28.89 28.148 39.757 9.493 9.453 20.301 17.508 31.32 23.332l7.997 3.082a55.47 55.47 0 0 1 2.289.942c.203.09.402.18.605.265l3.305.703c.063.016.129.028.191.043 2.348.528 4.711 1.106 7.051 1.719l5.774.387c1.53.058 2.855.226 3.84.351.23.032.46.067.687.09.04 0 .078-.004.117-.008l6.106-.547.484-.035 3.766-.207 3.082-.789.101-.023a180.885 180.885 0 0 1 7.387-1.668 202.946 202.946 0 0 1 7.32-2.989l2.84-1.058c1.102-.668 2.262-1.375 3.485-2.113a9.19 9.19 0 0 1 .468-.274l5.285-2.957c.059-.035.118-.066.18-.101.23-.184.578-.477.848-.704.816-.687 1.824-1.535 3.02-2.386l4.765-3.563c1.832-1.89 3.66-3.71 5.45-5.43l.14-.128 2.539-2.371c.164-.207.418-.54.62-.801.462-.598.927-1.192 1.395-1.754 1.82-2.274 3.72-4.54 5.653-6.746 6.785-9.817 12.844-20.86 17.554-32.004 4.192-11.215 7.524-23.512 9.918-36.567.336-3.566.68-6.656 1.043-9.414.09-.765.2-1.511.309-2.254.066-.449.137-.906.172-1.214l.11-4.106c0-.05.003-.101.003-.152.102-2.73.25-5.43.45-8.04l-.024-.6c-.102-2.24-.195-4.36-.238-6.477-.067-1.395-.047-2.618-.032-3.618.008-.582.02-1.382-.007-1.644-.024-.14-.032-.215-.051-.356-.29-2.293-.535-4.582-.738-6.8a183.782 183.782 0 0 1-.375-4.828l-.692-3.602c-.012-.066-.023-.137-.039-.203a175.462 175.462 0 0 1-1.277-8.04 174.156 174.156 0 0 1-1.992-7.66 4.222 4.222 0 0 1-.051-.218l-.672-3.027a146.544 146.544 0 0 1-1.45-3.942 120.458 120.458 0 0 1-1.867-5.738c-.097-.2-.203-.395-.304-.594a39.892 39.892 0 0 1-1.406-2.976 121.687 121.687 0 0 1-1.957-4.614 102.153 102.153 0 0 1-2.887-4.98l-.164-.317-.93-1.812c-.387-.496-.77-.992-1.133-1.508a80.071 80.071 0 0 1-3.406-5.023c-4.16-4.786-8.504-8.82-12.645-11.746a37.686 37.686 0 0 0-10.117-3.61c-1.168.098-2.281.14-3.351.121l-.035.012c-.895.227-1.77.41-2.63.555-.492.226-1.007.445-1.542.656-3.13 1.41-5.313 3.125-6.63 4.164-6.847 5.395-12.878 4.39-16.734 2.598a15.07 15.07 0 0 1-8.683-13.145c-.188-5.66 2.789-10.691 7.332-13.394 2.21-1.73 6.683-5.09 13.008-7.852.257-.11.52-.219.789-.316.261-.11.91-.438 1.386-.676l.11-.055a15.008 15.008 0 0 1 6.012-1.57c.011 0 .023-.004.035-.004l1.492-.441a14.87 14.87 0 0 1 1.758-.399 18.086 18.086 0 0 1 4.785-.129c.09.024.472-.004 1.32-.12a15.012 15.012 0 0 1 4.367.03 67.625 67.625 0 0 1 22.446 7.649c.418.23.828.48 1.222.75 6.825 4.668 13.516 10.84 19.883 18.336a14.6 14.6 0 0 1 1.406 1.949 50.985 50.985 0 0 0 2.664 3.992c.09.121.176.242.262.367l.23.29c.536.683 1.348 1.714 2.149 3.054.168.285.328.574.48.871l1.329 2.594a71.701 71.701 0 0 0 2.492 4.223c.496.78.922 1.609 1.265 2.468.664 1.649 1.348 3.356 2.024 4.82.105.239.21.481.308.723.11.25.262.528.407.809.687 1.344 1.707 3.34 2.398 5.875a94.78 94.78 0 0 0 1.363 4.164c.477 1.363.985 2.723 1.5 4.031.29.735.52 1.485.688 2.25l.89 4.024c1.04 4.343 1.848 7.004 1.856 7.03.066.212.11.43.164.645.063.243.133.48.184.73.058.29.097.575.14.864.028.184.067.367.086.555.024.18.32 2.746 1.14 7.285.208 1.062.427 2.207.657 3.43l.211 1.101c.125.653.207 1.313.246 1.973.09 1.582.211 3.207.36 4.828.168 1.836.37 3.723.609 5.617.363 2.512.328 4.719.305 6.348-.008.726-.02 1.355.007 1.828.012.191.02.383.024.574.027 1.785.12 3.79.215 5.906l.066 1.551c.027.625.02 1.254-.031 1.875-.2 2.438-.352 4.989-.445 7.582l-.122 4.469c-.003.207-.015.414-.027.621-.101 1.5-.297 2.793-.453 3.832-.066.418-.133.844-.18 1.277a6.814 6.814 0 0 1-.039.32c-.34 2.56-.664 5.513-.988 9.02-.04.434-.098.864-.176 1.293-2.742 15.164-6.637 29.52-11.57 42.668-.07.184-.14.364-.219.543-5.64 13.414-12.969 26.73-21.195 38.5-.324.465-.68.914-1.055 1.34a173.764 173.764 0 0 0-5.398 6.418c-.078.098-.157.191-.235.285-.254.301-.496.621-.742.942-.723.933-1.617 2.093-2.75 3.285-.207.215-.418.426-.637.633l-2.96 2.761a178.147 178.147 0 0 0-5.348 5.367 14.787 14.787 0 0 1-1.856 1.641l-5.914 4.418c-.12.09-.242.18-.367.266-.203.144-.734.593-1.125.922-1.465 1.23-3.43 2.886-6.027 4.214l-4.723 2.641c-1.601.977-3.105 1.887-4.504 2.734-.797.48-1.637.887-2.508 1.215l-4.086 1.524c-4.437 1.722-7.113 2.941-7.14 2.957-.121.054-.242.09-.363.14a14.39 14.39 0 0 1-1.508.555 19.523 19.523 0 0 1-1.543.387c-.09.015-.176.043-.266.058s-2.676.48-7.238 1.602l-4.418 1.129a15.06 15.06 0 0 1-2.863.441l-4.985.274-5.472.488a23.408 23.408 0 0 1-3 .187c-1.868 0-3.454-.203-4.657-.359-.406-.05-.96-.125-1.152-.133a10.596 10.596 0 0 1-.61-.027l-7.456-.496a15.064 15.064 0 0 1-2.922-.485 171.819 171.819 0 0 0-7.211-1.785l-4.145-.886c-.36-.079-.719-.168-1.074-.274-1.75-.508-3.215-1.144-4.281-1.605-.317-.137-.637-.282-.961-.403-.051-.02-.098-.035-.145-.054l-8.867-3.414c-.52-.2-1.027-.43-1.523-.688a154.65 154.65 0 0 1-20.274-12.66 198.018 198.018 0 0 1-10.453-14.285C45.816 375.012 30 317.445 30 256c0-.336.008-.672.008-1.008zM173.43 481.956l8.37-2.707c.055-.016.106-.031.16-.05l4.43-1.38 5.317-2.636c.063-.032.121-.063.184-.09 2.238-1.07 4.625-2.215 7.14-3.426.172-.082.344-.16.52-.234.414-.23 1.387-.91 2.101-1.414 1.02-.72 2.164-1.524 3.465-2.329l7.13-4.687 7.487-6.473c.051-.047.106-.09.157-.133l3.863-3.242c.39-.394.93-.992 1.453-1.57.594-.656 1.191-1.313 1.793-1.945l7.867-8.332c10.09-12.618 19.274-27.293 26.586-42.493 6.742-15.199 12.496-32.668 16.652-50.562l2.204-12.863c.148-.895.328-1.825.503-2.75.2-1.028.375-1.93.485-2.72l.578-6.07c.387-3.886.809-7.75 1.258-11.535l.308-10.414c.024-1.668.11-3.203.188-4.562.098-1.676.18-3.125.105-4.195-.007-.141-.015-.278-.02-.415l-.366-9.132c0-.075-.004-.153-.008-.227l-.172-7.187-.691-6.04c-.68-6.23-1.047-10.355-1.192-12.078-.344-1.726-1.125-5.793-2.129-11.632l-.93-5.594-1.71-6.356a2.978 2.978 0 0 1-.07-.27l-1.973-7.913c-.043-.176-.086-.352-.121-.528-.125-.597-.559-1.761-.98-2.882-.434-1.164-.927-2.48-1.388-3.953l-2.632-7.915a310.68 310.68 0 0 1-3.801-8.582l-1.73-4.156a34.98 34.98 0 0 0-.72-1.289c-.39-.68-.78-1.36-1.148-2.055a249.656 249.656 0 0 1-4.515-8.515c-6.426-10.016-13.59-18.899-20.77-25.75-6.566-5.496-13.688-9.895-21.188-13.086a87.106 87.106 0 0 1-5.972-1.516 27.444 27.444 0 0 1-1.453-.437l-1.434-.086-.32-.024a70.579 70.579 0 0 1-4.797-.554 70.306 70.306 0 0 1-3.668.285 25.932 25.932 0 0 1-2.82.09 73.408 73.408 0 0 1-4.11.968c-.812.164-1.62.317-2.414.446l-1.289.558-.277.118a75.187 75.187 0 0 1-4.91 1.808 81.26 81.26 0 0 1-4.672 2.688c-.121.066-.246.129-.371.191l-1.075.535a87.039 87.039 0 0 1-2.101 1.723 72.01 72.01 0 0 1-3.527 2.62 31.776 31.776 0 0 1-2.165 2.298 77.505 77.505 0 0 1-2.863 2.746 87.383 87.383 0 0 1-3.215 4.168 7.44 7.44 0 0 1-.28.332l-1.071 1.234c-.008.016-.016.028-.02.04a44.435 44.435 0 0 1-.96 1.62 81.15 81.15 0 0 1-3.376 5.149c-3.562 6.941-6.59 14.336-8.785 21.473-1.68 6.957-2.824 14.472-3.406 22.363.117 2.238.164 4.144.137 5.914.004.652-.02 1.215-.04 1.637l.227 1.761c.012.078.024.16.031.239.18 1.59.305 3.132.371 4.613.274 1.25.536 2.488.743 3.73 1.25 6.387 2.754 10.672 3.562 12.985.899 2.57 3.008 8.59-1.07 14.855a15.036 15.036 0 0 1-12.606 6.832c-7.05 0-13.125-4.937-14.629-11.746-.003-.008-.007-.02-.011-.027-.992-2.84-3.063-8.75-4.739-17.39a109.25 109.25 0 0 1-.082-.466c-.144-.894-.43-2.168-.73-3.515-.223-1-.367-2.114-.383-3.133a34.19 34.19 0 0 0-.222-3.23l-.34-2.602a16.14 16.14 0 0 1-.086-.871c-.106-1.43-.043-2.621-.008-3.332l.012-.278v-.386c.023-1.266-.024-2.828-.145-4.782a15.983 15.983 0 0 1 .008-1.933c.687-10.094 2.156-19.778 4.363-28.781.067-.262.14-.528.219-.786 2.879-9.476 6.75-18.894 11.512-27.988.351-.676.754-1.32 1.207-1.933a52.417 52.417 0 0 0 2.652-3.993c.074-.125.152-.25.23-.37.07-.114.16-.278.25-.438.465-.82 1.102-1.942 1.997-3.149.226-.3.46-.593.707-.879l1.707-1.964a63.333 63.333 0 0 0 2.703-3.598 14.917 14.917 0 0 1 2.242-2.54c1.02-.917 2.07-1.866 2.922-2.745.176-.184.355-.36.539-.532.11-.12.219-.25.328-.375 1.04-1.195 2.723-3.132 5.254-4.734a40.272 40.272 0 0 0 2.223-1.64 57.39 57.39 0 0 0 2.406-2.024 14.928 14.928 0 0 1 3.23-2.176l2.559-1.277c2.324-1.254 3.742-2.219 3.758-2.227a14.815 14.815 0 0 1 5.12-2.28c.509-.157 1.602-.517 3.24-1.177l2.894-1.25a15.11 15.11 0 0 1 4.082-1.117c.742-.094 1.562-.23 2.433-.41a42.58 42.58 0 0 0 2.875-.695c3.278-1.02 6.02-.93 7.528-.883l.148.004c.246-.02.488-.035.734-.043.91-.035 2.153-.16 3.465-.297l.828-.082a14.91 14.91 0 0 1 4.207.172c1.254.226 2.57.402 3.926.52l2.887.175c.434.027.863.074 1.293.14 1.926.29 3.445.805 4.355 1.118l.27.086c.133.039.266.074.398.113 1.465.438 3.157.852 5.172 1.266.895.187 1.77.453 2.617.797 10.985 4.468 21.328 10.765 30.743 18.718.214.184.425.371.628.567 9.325 8.824 18.13 19.707 26.165 32.344.265.421.511.855.738 1.3a227.835 227.835 0 0 0 4.363 8.262c.059.102.113.203.164.305.223.418.461.824.695 1.23.579 1.008 1.301 2.262 1.989 3.735.094.199.18.402.265.605l1.868 4.492a277.427 277.427 0 0 0 3.699 8.313c.238.515.445 1.039.625 1.578l2.941 8.844c.035.101.067.203.098.304.223.715.543 1.574.883 2.48.703 1.891 1.574 4.223 2.168 6.9l1.875 7.534 1.867 6.918c.129.485.234.973.316 1.465l1.035 6.23c1.227 7.145 2.114 11.505 2.121 11.547.016.063.02.125.032.188.039.219.066.441.101.66.043.293.086.582.11.875.004.047.015.094.02.14.003.044.339 4.345 1.171 11.977l.758 6.625c.05.442.082.89.094 1.336l.261 9.696.278 6.867c.175 2.847.027 5.422-.102 7.699-.066 1.184-.133 2.3-.144 3.336 0 .094-.004.187-.004.277l-.332 11.211c-.016.45-.047.903-.102 1.352a557.66 557.66 0 0 0-1.27 11.543l-.601 6.3c-.016.157-.031.317-.055.477-.226 1.762-.53 3.36-.804 4.766-.133.691-.266 1.383-.387 2.09l-1.438 8.402c-7.496 25.562-18.148 49.027-31.656 69.289C249.32 459.305 213.406 482 175.665 482c-.743 0-1.49-.023-2.235-.043zm0 0"/></symbol><symbol viewBox="0 0 20 18" id="programming" xmlns="http://www.w3.org/2000/svg"><g fill-rule="evenodd"><path fill-rule="nonzero" d="M19.031.368H.97a.968.968 0 0 0-.97.969v11.332c0 .535.434.968.969.968h6.755v2.195H5.095a.897.897 0 0 0 0 1.792h9.81a.897.897 0 0 0 0-1.792h-2.63v-2.195h6.756A.968.968 0 0 0 20 12.67V1.337a.968.968 0 0 0-.969-.969zm-.484 11.816H1.453V1.821h17.094v10.363z"/><path d="M4.58 7.55l3.056 1.42a.59.59 0 0 0 .569-.037.591.591 0 0 0 .274-.501v-.016a.596.596 0 0 0-.343-.538l-1.91-.888 1.91-.888a.596.596 0 0 0 .343-.538V5.55a.59.59 0 0 0-.594-.594.597.597 0 0 0-.25.055L4.581 6.43a.596.596 0 0 0-.344.54v.042c0 .23.135.44.344.538zm3.927 2.894c.111.152.29.243.48.243H9c.26 0 .487-.166.566-.412l2.012-6.236a.596.596 0 0 0-.565-.775h-.015a.592.592 0 0 0-.566.413L8.42 9.913a.597.597 0 0 0 .087.53zm3.013-4.88c0 .23.135.441.344.539l1.91.887-1.91.888a.596.596 0 0 0-.344.538v.016a.591.591 0 0 0 .845.538l3.054-1.42a.596.596 0 0 0 .344-.539V6.97a.596.596 0 0 0-.344-.538l-3.055-1.42a.596.596 0 0 0-.844.538v.015z"/></g></symbol><symbol viewBox="0 0 20 21" id="question" xmlns="http://www.w3.org/2000/svg"><path d="M18.64 5.659a9.947 9.947 0 0 0-3.636-3.636C13.474 1.13 11.802.683 9.99.683c-1.813 0-3.484.447-5.015 1.34A9.945 9.945 0 0 0 1.34 5.66C.447 7.189 0 8.86 0 10.673c0 1.812.447 3.483 1.34 5.014a9.947 9.947 0 0 0 3.635 3.636c1.53.893 3.202 1.34 5.014 1.34 1.813 0 3.484-.447 5.015-1.34a9.945 9.945 0 0 0 3.635-3.636c.893-1.53 1.34-3.202 1.34-5.014 0-1.812-.447-3.484-1.34-5.014zm-6.985 11.257c0 .122-.04.221-.118.3a.404.404 0 0 1-.298.116H8.74a.405.405 0 0 1-.3-.117.405.405 0 0 1-.116-.299V14.42c0-.122.039-.221.117-.3a.406.406 0 0 1 .3-.116h2.497c.121 0 .22.039.298.117a.405.405 0 0 1 .118.299v2.497zm3.167-7.687a3.5 3.5 0 0 1-.364.787 3.014 3.014 0 0 1-.58.624 5.24 5.24 0 0 1-.598.456c-.147.09-.36.215-.637.37a2.19 2.19 0 0 0-.708.644c-.187.265-.28.48-.28.644 0 .122-.04.221-.117.3a.404.404 0 0 1-.3.116H8.742a.405.405 0 0 1-.299-.117.405.405 0 0 1-.117-.3v-.467c0-.581.228-1.126.683-1.633.455-.507.956-.882 1.502-1.125.416-.19.711-.386.885-.585.173-.2.26-.464.26-.794 0-.286-.163-.542-.488-.767a1.905 1.905 0 0 0-1.112-.338c-.451 0-.824.104-1.119.312-.286.208-.659.607-1.118 1.196a.384.384 0 0 1-.326.157.368.368 0 0 1-.247-.078L5.528 7.33c-.199-.156-.234-.338-.104-.546 1.11-1.847 2.719-2.77 4.826-2.77a4.94 4.94 0 0 1 2.211.533c.72.355 1.32.858 1.802 1.508.48.65.722 1.357.722 2.12a3.3 3.3 0 0 1-.163 1.054z"/></symbol><symbol viewBox="0 0 22 22" id="search" xmlns="http://www.w3.org/2000/svg"><path d="M21.284 20.027l-5.232-5.443a8.849 8.849 0 0 0 2.082-5.707C18.134 3.982 14.152 0 9.257 0 4.362 0 .38 3.982.38 8.877c0 4.895 3.982 8.877 8.877 8.877a8.782 8.782 0 0 0 5.086-1.606l5.273 5.484c.22.229.516.355.834.355a1.16 1.16 0 0 0 .834-1.96zM9.257 2.316a6.569 6.569 0 0 1 6.561 6.561 6.569 6.569 0 0 1-6.561 6.562 6.569 6.569 0 0 1-6.561-6.562 6.569 6.569 0 0 1 6.561-6.561z"/></symbol><symbol viewBox="0 0 20 19" id="shape" xmlns="http://www.w3.org/2000/svg"><path d="M19.626 3.418a1.11 1.11 0 0 0-.816-.336h-3.455V1.931c0-.528-.188-.98-.564-1.356a1.849 1.849 0 0 0-1.355-.563h-6.91c-.528 0-.98.187-1.356.563a1.848 1.848 0 0 0-.563 1.356v1.151H1.152c-.32 0-.592.112-.816.336A1.11 1.11 0 0 0 0 4.234V5.77c0 .567.166 1.14.498 1.715.332.576.78 1.096 1.343 1.56.564.463 1.256.853 2.076 1.17.82.315 1.681.493 2.585.533.336.432.716.812 1.14 1.14.304.271.513.561.63.87.115.307.173.665.173 1.073 0 .432-.122.796-.366 1.091-.243.296-.633.444-1.17.444-.599 0-1.133.182-1.6.546-.468.364-.702.822-.702 1.374v.767a.37.37 0 0 0 .107.276.374.374 0 0 0 .276.108h9.981a.374.374 0 0 0 .276-.108.375.375 0 0 0 .108-.276v-.767c0-.552-.234-1.01-.702-1.374a2.539 2.539 0 0 0-1.602-.546c-.535 0-.925-.148-1.169-.444-.244-.295-.365-.66-.365-1.091 0-.408.057-.766.173-1.074.117-.308.326-.598.63-.87a6.393 6.393 0 0 0 1.14-1.14 8.139 8.139 0 0 0 2.585-.533c.82-.316 1.512-.706 2.075-1.17a5.718 5.718 0 0 0 1.344-1.559c.332-.576.498-1.148.498-1.715V4.234c0-.32-.113-.592-.336-.816zM2.669 7.713c-.756-.672-1.133-1.32-1.133-1.944V4.618h3.07c0 1.671.296 3.155.888 4.45-1.127-.231-2.069-.683-2.825-1.355zM18.426 5.77c0 .623-.378 1.271-1.133 1.943-.756.672-1.698 1.124-2.826 1.356.592-1.296.888-2.78.888-4.451h3.07V5.77z"/></symbol><symbol viewBox="0 0 512 512" id="software" xmlns="http://www.w3.org/2000/svg"><path d="M495.304 61.217H16.696C7.475 61.217 0 68.693 0 77.913v83.12h512v-83.12c0-9.22-7.475-16.696-16.696-16.696zm-173.02 72.169c-12.275 0-22.261-9.986-22.261-22.261 0-12.275 9.986-22.261 22.261-22.261s22.261 9.986 22.261 22.261c0 12.275-9.986 22.261-22.261 22.261zm60.642 0c-12.275 0-22.261-9.986-22.261-22.261 0-12.275 9.986-22.261 22.261-22.261s22.261 9.986 22.261 22.261c0 12.275-9.986 22.261-22.261 22.261zm60.642 0c-12.275 0-22.261-9.986-22.261-22.261 0-12.275 9.986-22.261 22.261-22.261s22.261 9.986 22.261 22.261c0 12.275-9.986 22.261-22.261 22.261zM0 194.424v239.663c0 9.22 7.475 16.696 16.696 16.696h478.609c9.22 0 16.696-7.475 16.696-16.696V194.424H0zm235.45 140.895l-54.653 46.504c-7.022 5.976-17.559 5.127-23.535-1.896-5.976-7.022-5.127-17.559 1.896-23.535l39.709-33.789-39.709-33.789c-7.023-5.976-7.871-16.512-1.896-23.535 5.975-7.024 16.513-7.871 23.535-1.896l54.653 46.504c7.83 6.663 7.83 18.77 0 25.432zm106.572 50.484h-65.954c-9.22 0-16.696-7.475-16.696-16.696s7.475-16.696 16.696-16.696h65.954c9.22 0 16.696 7.475 16.696 16.696s-7.476 16.696-16.696 16.696z"/></symbol><symbol viewBox="0 0 20 21" id="sports" xmlns="http://www.w3.org/2000/svg"><path d="M0 14.211v5.466c0 .313.254.567.567.567h3.765v-8.118H2.085C0 12.126 0 12.126 0 14.211zm17.915-.567h-2.247v6.6h3.765a.567.567 0 0 0 .567-.567V15.73c0-2.086 0-2.086-2.085-2.086zM7.616 5.35l-.364 2.123a.567.567 0 0 0 .822.598l1.907-1.002 1.907 1.002a.567.567 0 0 0 .264.065h.001a.567.567 0 0 0 .552-.693l-.359-2.093 1.543-1.504a.567.567 0 0 0-.314-.967l-2.132-.31-.953-1.93a.567.567 0 0 0-1.017 0L8.519 2.57l-2.132.31a.567.567 0 0 0-.314.966L7.616 5.35zM12.107 10H7.855C5.77 10 5.77 10 5.77 12.086v7.591c0 .313.254.567.567.567h7.288a.567.567 0 0 0 .567-.567v-7.591c0-2.086 0-2.086-2.085-2.086z" fill-rule="evenodd"/></symbol><symbol viewBox="0 0 986.8 986.8" id="syndicated-articles" xmlns="http://www.w3.org/2000/svg"><path d="M399.8 164.649H110.5c-22.1 0-40 17.9-40 40s17.9 40 40 40h289.3c22.101 0 40-17.9 40-40 0-22.099-17.9-40-40-40zm0 286.201H206.5c-22.1 0-40 17.9-40 40 0 22.099 17.9 40 40 40h193.3c22.101 0 40-17.9 40-40s-17.9-40-40-40zm0-143.1H40c-22.1 0-40 17.9-40 40s17.9 40 40 40h359.8c22.101 0 40-17.9 40-40s-17.9-40-40-40zm0 286.3H40c-22.1 0-40 17.898-40 40 0 22.1 17.9 40 40 40h359.8c22.101 0 40-17.9 40-40 0-22.101-17.9-40-40-40zm0 143.1H40c-22.1 0-40 17.9-40 40s17.9 40 40 40h359.8c22.101 0 40-17.9 40-40s-17.9-40-40-40zm527-576.9H572.4c-33.101 0-60 26.9-60 60v546.3c0 33.1 26.899 60 60 60h354.4c33.101 0 60-26.9 60-60v-546.3c0-33.2-26.8-60-60-60z"/></symbol><symbol viewBox="-58 0 512 512" id="syndicated-manual" xmlns="http://www.w3.org/2000/svg"><path d="M274.988 8.79v111.218h111.227zm0 0"/><path d="M259.984 150.012c-8.28 0-15-6.719-15-15.004V0H15C6.715 0 0 6.715 0 15v482c0 8.285 6.715 15 15 15h365.008c8.285 0 15-6.715 15-15V150.012zM61.188 88.008a45.816 45.816 0 0 1 42.273-28.024c25.305 0 45.89 20.586 45.89 45.891 0 20.05-12.93 37.14-30.89 43.367v10.633c0 8.285-6.715 15-15 15-8.281 0-15-6.715-15-15v-23.113c0-8.285 6.719-15 15-15 8.762 0 15.887-7.13 15.887-15.887 0-8.762-7.125-15.89-15.887-15.89a15.874 15.874 0 0 0-14.645 9.71c-3.226 7.63-12.027 11.2-19.656 7.973-7.633-3.23-11.2-12.031-7.972-19.66zm57.273 131.87a15.08 15.08 0 0 1-4.39 10.602 15.122 15.122 0 0 1-10.61 4.399c-3.95 0-7.809-1.61-10.61-4.399a15.11 15.11 0 0 1-4.39-10.601c0-3.95 1.602-7.82 4.39-10.61a15.135 15.135 0 0 1 10.61-4.39 15.13 15.13 0 0 1 10.61 4.39 15.103 15.103 0 0 1 4.39 10.61zm201.547 231.15H77.5c-8.281 0-15-6.716-15-15s6.719-15 15-15h242.508c8.281 0 15 6.714 15 15s-6.719 15-15 15zm0-60H77.5c-8.281 0-15-6.72-15-15 0-8.286 6.719-15 15-15h242.508c8.281 0 15 6.714 15 15 0 8.28-6.719 15-15 15zm0-60H77.5c-8.281 0-15-6.72-15-15.005 0-8.28 6.719-15 15-15h242.508c8.281 0 15 6.72 15 15 0 8.286-6.719 15.004-15 15.004zm0-60.005h-159c-8.285 0-15.004-6.714-15.004-15 0-8.285 6.719-15 15.004-15h159c8.285 0 15 6.715 15 15 0 8.286-6.719 15-15 15zm0-60h-159c-8.285 0-15.004-6.714-15.004-15 0-8.285 6.719-15 15.004-15h159c8.285 0 15 6.715 15 15 0 8.286-6.719 15-15 15zm0 0"/></symbol><symbol viewBox="0 0 20 19" id="tickers" xmlns="http://www.w3.org/2000/svg"><g fill-rule="evenodd"><path d="M17.843 9.11c.033.014.061.033.091.05l.259-.593c-.034-.01-.067-.017-.1-.032a.783.783 0 0 1-.405-1.03l-1.46-.637 1.592 2.234.023.007zM.406 9.534l8.859 3.863-5.409-7.592-.2-.282.281-.2a.438.438 0 0 0 .102-.61l-.2-.282.281-.2.51-.364.282-.2.201.28a.439.439 0 0 0 .61.103.434.434 0 0 0 .102-.61l-.2-.28.28-.201.511-.364.005-.004-2.51-1.094A.783.783 0 0 1 2.88 1.9l-.25.574a.783.783 0 1 1-.627 1.436l-.25.574a.783.783 0 1 1-.626 1.435l-.25.574A.783.783 0 1 1 .25 7.93L0 8.503a.782.782 0 0 1 .406 1.03z"/><path d="M5.923 4.332a.781.781 0 0 1-1.092-.183l-.51.363a.782.782 0 0 1-.183 1.092l5.743 8.062.39.547.39.547 2.198 3.086a.781.781 0 0 1 1.092.183c.02.03.035.06.052.091l.527-.375c-.024-.026-.049-.05-.07-.08a.783.783 0 0 1 1.276-.908c.02.03.035.06.051.091l.528-.376c-.024-.025-.049-.05-.07-.078a.783.783 0 1 1 1.275-.909c.021.03.036.06.052.091l.527-.375c-.024-.026-.048-.05-.069-.08a.783.783 0 1 1 1.275-.908c.02.03.036.06.052.091l.527-.375c-.024-.025-.048-.05-.069-.08a.783.783 0 0 1 .183-1.09l-1.786-2.509-.124-.173-.017-.023-.46-.648-.243-.34L15.61 6.6l-.39-.547-.39-.548L11.28.517a.781.781 0 0 1-1.092-.183l-.51.363a.783.783 0 1 1-1.275.908l-.51.364a.78.78 0 0 1 .01.89.769.769 0 0 1-.193.202c-.032.022-.066.032-.1.05a.777.777 0 0 1-.354.095.781.781 0 0 1-.638-.328l-.51.363c.25.351.168.84-.184 1.091z"/></g></symbol><symbol viewBox="0 0 486 486" id="tips-advice" xmlns="http://www.w3.org/2000/svg"><path d="M298.4 424.7v14.2c0 11.3-8.3 20.7-19.1 22.3l-3.5 12.9c-1.9 7-8.2 11.9-15.5 11.9h-34.7c-7.3 0-13.6-4.9-15.5-11.9l-3.4-12.9c-10.9-1.7-19.2-11-19.2-22.4v-14.2c0-7.6 6.1-13.7 13.7-13.7h83.5c7.6.1 13.7 6.2 13.7 13.8zm64.3-191.4c0 32.3-12.8 61.6-33.6 83.1-15.8 16.4-26 37.3-29.4 59.6-1.5 9.6-9.8 16.7-19.6 16.7h-74.3c-9.7 0-18.1-7-19.5-16.6-3.5-22.3-13.8-43.5-29.6-59.8-20.4-21.2-33.1-50-33.4-81.7-.7-66.6 52.3-120.5 118.9-121 66.5-.5 120.5 53.3 120.5 119.7zm-106.2-72.5c0-7.4-6-13.5-13.5-13.5-47.6 0-86.4 38.7-86.4 86.4 0 7.4 6 13.5 13.5 13.5 7.4 0 13.5-6 13.5-13.5 0-32.8 26.7-59.4 59.4-59.4 7.5 0 13.5-6 13.5-13.5zM243 74.3c7.4 0 13.5-6 13.5-13.5V13.5c0-7.4-6-13.5-13.5-13.5s-13.5 6-13.5 13.5v47.3c0 7.5 6.1 13.5 13.5 13.5zM84.1 233.2c0-7.4-6-13.5-13.5-13.5H23.3c-7.4 0-13.5 6-13.5 13.5 0 7.4 6 13.5 13.5 13.5h47.3c7.5 0 13.5-6 13.5-13.5zm378.6-13.5h-47.3c-7.4 0-13.5 6-13.5 13.5 0 7.4 6 13.5 13.5 13.5h47.3c7.4 0 13.5-6 13.5-13.5 0-7.4-6-13.5-13.5-13.5zM111.6 345.6l-33.5 33.5c-5.3 5.3-5.3 13.8 0 19.1 2.6 2.6 6.1 3.9 9.5 3.9s6.9-1.3 9.5-3.9l33.5-33.5c5.3-5.3 5.3-13.8 0-19.1-5.2-5.3-13.8-5.3-19 0zm253.3-220.8c3.4 0 6.9-1.3 9.5-3.9l33.5-33.5c5.3-5.3 5.3-13.8 0-19.1-5.3-5.3-13.8-5.3-19.1 0l-33.5 33.5c-5.3 5.3-5.3 13.8 0 19.1 2.7 2.6 6.1 3.9 9.6 3.9zm-253.3-4c2.6 2.6 6.1 3.9 9.5 3.9s6.9-1.3 9.5-3.9c5.3-5.3 5.3-13.8 0-19.1L97.1 68.2c-5.3-5.3-13.8-5.3-19.1 0-5.3 5.3-5.3 13.8 0 19.1l33.6 33.5zm262.8 224.8c-5.3-5.3-13.8-5.3-19.1 0-5.3 5.3-5.3 13.8 0 19.1l33.5 33.5c2.6 2.6 6.1 3.9 9.5 3.9s6.9-1.3 9.5-3.9c5.3-5.3 5.3-13.8 0-19.1l-33.4-33.5z"/></symbol><symbol viewBox="0 0 20 21" id="tools" xmlns="http://www.w3.org/2000/svg"><g fill-rule="evenodd"><path d="M.549 17.121a1.872 1.872 0 1 0 2.649 2.648l6.148-6.15-2.649-2.647L.55 17.121zM15.916 5.725l2.678-1.384 1.402-2.71L18.689.322l-2.71 1.404-1.387 2.675-3.257 3.26 1.321 1.324z"/><path d="M16.502 12.833l-.252-.025c-.457 0-.89.093-1.294.243L7.269 5.363c.15-.404.243-.837.243-1.294l-.025-.253C7.355 1.868 5.75.323 3.767.323c-.577 0-1.117.141-1.605.375L4.65 3.186c.13.131.22.286.28.45.164.441.076.958-.28 1.315a1.245 1.245 0 0 1-.883.366c-.147 0-.293-.032-.433-.085a1.242 1.242 0 0 1-.45-.282L.396 2.463A3.706 3.706 0 0 0 .022 4.07c0 1.982 1.544 3.588 3.493 3.72l.252.025c.457 0 .89-.094 1.295-.242l7.685 7.686c-.147.405-.24.838-.24 1.295l.025.252a3.73 3.73 0 0 0 3.72 3.493c.576 0 1.118-.138 1.605-.374l-2.488-2.488a1.275 1.275 0 0 1-.283-.448 1.245 1.245 0 0 1 1.166-1.683c.147 0 .292.03.434.085.164.06.32.148.448.28l2.488 2.489c.235-.49.375-1.03.375-1.606a3.736 3.736 0 0 0-3.495-3.72z"/></g></symbol><symbol viewBox="0 0 20 20" id="two-dices" xmlns="http://www.w3.org/2000/svg"><path d="M11.926 5.844H1.573C.708 5.844 0 6.552 0 7.417V17.77c0 .865.708 1.573 1.573 1.573h10.353c.865 0 1.573-.708 1.573-1.573V7.417c0-.865-.708-1.573-1.573-1.573zM3.171 17.642a1.47 1.47 0 1 1 0-2.94 1.47 1.47 0 0 1 0 2.94zm0-7.157a1.47 1.47 0 1 1 0-2.94 1.47 1.47 0 0 1 0 2.94zm3.579 3.392a1.47 1.47 0 1 1 0-2.941 1.47 1.47 0 0 1 0 2.94zm3.578 3.765a1.47 1.47 0 1 1 0-2.94 1.47 1.47 0 0 1 0 2.94zm0-7.157a1.47 1.47 0 1 1 0-2.94 1.47 1.47 0 0 1 0 2.94z"/><path d="M18.248.08H7.073c-.933 0-1.697.763-1.697 1.697v2.538s-.03.633.698.633h5.663a2.812 2.812 0 0 1 2.808 2.808v6.157c0 .736.662.736 1.007.736h2.696c.934 0 1.698-.764 1.698-1.697V1.777c0-.934-.764-1.698-1.698-1.698zm-1.725 5.009a1.587 1.587 0 1 1 0-3.174 1.587 1.587 0 0 1 0 3.174z"/></symbol><symbol viewBox="0 0 45.16 45.16" id="weather" xmlns="http://www.w3.org/2000/svg"><path d="M22.58 11.269c-6.237 0-11.311 5.075-11.311 11.312s5.074 11.312 11.311 11.312c6.236 0 11.311-5.074 11.311-11.312S28.816 11.269 22.58 11.269zm0-3.325a2.207 2.207 0 0 1-2.207-2.206V2.207a2.207 2.207 0 1 1 4.414 0v3.531a2.207 2.207 0 0 1-2.207 2.206zm0 29.271a2.207 2.207 0 0 0-2.207 2.207v3.53a2.207 2.207 0 1 0 4.414 0v-3.53a2.208 2.208 0 0 0-2.207-2.207zm10.348-24.984a2.208 2.208 0 0 1 0-3.121l2.497-2.497a2.207 2.207 0 1 1 3.121 3.121l-2.497 2.497a2.207 2.207 0 0 1-3.121 0zM12.231 32.93a2.205 2.205 0 0 0-3.121 0l-2.497 2.496a2.207 2.207 0 0 0 3.121 3.121l2.497-2.498a2.204 2.204 0 0 0 0-3.119zm24.984-10.35c0-1.219.988-2.207 2.207-2.207h3.531a2.207 2.207 0 1 1 0 4.413h-3.531a2.206 2.206 0 0 1-2.207-2.206zm-29.271 0a2.207 2.207 0 0 0-2.207-2.207h-3.53a2.207 2.207 0 1 0 0 4.413h3.531a2.206 2.206 0 0 0 2.206-2.206zm24.984 10.35a2.208 2.208 0 0 1 3.121 0l2.497 2.497a2.205 2.205 0 1 1-3.121 3.12l-2.497-2.497a2.205 2.205 0 0 1 0-3.12zM12.231 12.231a2.207 2.207 0 0 0 0-3.121L9.734 6.614a2.207 2.207 0 0 0-3.121 3.12l2.497 2.497a2.205 2.205 0 0 0 3.121 0z"/></symbol><symbol viewBox="0 0 300 300" id="webmaster" xmlns="http://www.w3.org/2000/svg"><path d="M149.996 0C67.157 0 .001 67.161.001 149.997S67.157 300 149.996 300s150.003-67.163 150.003-150.003S232.835 0 149.996 0zm75.367 123.302l-36.686 36.686a20.927 20.927 0 0 1-14.895 6.17 20.94 20.94 0 0 1-14.895-6.168l-1.437-1.437-3.906 3.906 1.434 1.434c8.214 8.214 8.214 21.579 0 29.793l-36.681 36.686a20.929 20.929 0 0 1-14.898 6.17 20.933 20.933 0 0 1-14.9-6.173L74.634 216.5c-8.214-8.209-8.214-21.573-.003-29.79l36.689-36.684c3.979-3.979 9.269-6.17 14.898-6.17s10.916 2.192 14.898 6.17l1.432 1.432 3.906-3.906-1.432-1.432c-8.214-8.211-8.214-21.576-.005-29.79l36.689-36.686c3.981-3.981 9.272-6.173 14.898-6.173s10.916 2.192 14.898 6.17l13.868 13.873c8.207 8.209 8.207 21.576-.007 29.788z"/><path d="M142.539 173.459l-7.093 7.093-11.002-10.999 7.093-7.093-1.432-1.432a5.478 5.478 0 0 0-3.89-1.611 5.475 5.475 0 0 0-3.893 1.611l-36.686 36.681a5.511 5.511 0 0 0 0 7.783l13.87 13.873c2.083 2.083 5.708 2.08 7.786.003l36.681-36.686a5.513 5.513 0 0 0 0-7.789l-1.434-1.434zm57.954-82.816a5.476 5.476 0 0 0-3.896-1.613 5.466 5.466 0 0 0-3.896 1.616l-36.686 36.684a5.517 5.517 0 0 0 .003 7.786l1.434 1.432 10.88-10.883 11.002 11.002-10.88 10.883 1.434 1.434c2.083 2.077 5.703 2.08 7.786-.003l36.684-36.681a5.515 5.515 0 0 0 0-7.786l-13.865-13.871z"/></symbol><symbol viewBox="-91 0 512 512" id="wine" xmlns="http://www.w3.org/2000/svg"><path d="M268.738 442.273l-88.32-20.312v-52.438c-4.977.375-9.996.582-15.05.582-5.06 0-10.075-.207-15.056-.582v52.438l-88.32 20.312a15.058 15.058 0 0 0-11.68 14.672v40c0 8.317 6.739 15.055 15.055 15.055h200c8.313 0 15.051-6.738 15.051-15.055v-40a15.058 15.058 0 0 0-11.68-14.672zm21.086-431.418A15.057 15.057 0 0 0 275.367 0h-220A15.054 15.054 0 0 0 40.91 10.855L9.84 117.88h311.055zm38.606 137.024H2.305c-7.485 44.434 3.375 89.527 30.925 126.21 31.504 41.958 79.668 66.016 132.137 66.016 52.465 0 100.63-24.062 132.137-66.015 27.547-36.684 38.406-81.778 30.926-126.211zm0 0"/></symbol></svg>