<svg xmlns="http://www.w3.org/2000/svg" width="20" height="20" viewBox="0 0 20 20">
    <g fill="#6A6A6A" fill-rule="evenodd">
        <path fill-rule="nonzero" d="M2.093 10.541a.781.781 0 0 0 1.127 0l1.875-1.953a.781.781 0 0 0 .218-.541V.78A.781.781 0 0 0 4.53 0H.781A.781.781 0 0 0 0 .781v7.266c0 .202.078.395.218.54l1.875 1.954zm-.53-8.979H3.75v6.17l-1.094 1.14-1.094-1.14v-6.17z"/>
        <path d="M8.047 1.563h11.172a.781.781 0 1 0 0-1.563H8.047a.781.781 0 1 0 0 1.563zM19.219 18.438H.78a.781.781 0 1 0 0 1.562H19.22a.781.781 0 1 0 0-1.563zM19.219 13.828H.78a.781.781 0 1 0 0 1.563H19.22a.781.781 0 1 0 0-1.563zM19.219 4.61H8.047a.781.781 0 1 0 0 1.562h11.172a.781.781 0 1 0 0-1.563zM19.219 9.219H8.047a.781.781 0 1 0 0 1.562h11.172a.781.781 0 1 0 0-1.562z"/>
    </g>
</svg>
