<svg xmlns="http://www.w3.org/2000/svg" width="20" height="18" viewBox="0 0 20 18">
    <path fill="#6A6A6A" fill-rule="nonzero" d="M0 15.34a2.276 2.276 0 0 0 2.273 2.273H18.713v-1.01H17.66v-2.527h1.053v-.442h1.263v-1.01h-.758v-2.526h.758v-1.01h-.821V8.224l-1.248-2.336h1.311V4.529L15.921.5H4.29l-3 4.727a2.262 2.262 0 0 0-.848 1.757 2.275 2.275 0 0 0 2.251 2.27 2.274 2.274 0 0 0-1.43 2.108c0 .694.319 1.308.81 1.725A2.269 2.269 0 0 0 0 15.339zm1.452-8.357c0-.471.262-.878.646-1.095h15.057v2.358H2.715a1.265 1.265 0 0 1-1.263-1.263zm2.084 3.115h14.672v2.526H3.536a1.264 1.264 0 0 1-1.263-1.263c0-.697.567-1.263 1.263-1.263zm-1.263 3.978H16.65v2.526H2.274A1.264 1.264 0 0 1 1.01 15.34c0-.696.567-1.263 1.263-1.263z"/>
</svg>
