<svg xmlns="http://www.w3.org/2000/svg" width="20" height="21" viewBox="0 0 20 21">
    <g fill="#6A6A6A" fill-rule="evenodd">
        <path d="M7.232 11.268a.463.463 0 0 0-.463-.463H5.15a.463.463 0 0 0-.463.463v1.618c0 .256.207.463.463.463h1.618a.463.463 0 0 0 .463-.463v-1.618zM11.275 11.268a.463.463 0 0 0-.463-.463H9.194a.463.463 0 0 0-.463.463v1.618c0 .256.208.463.463.463h1.618a.463.463 0 0 0 .463-.463v-1.618zM15.319 11.268a.463.463 0 0 0-.464-.463h-1.617a.463.463 0 0 0-.464.463v1.618c0 .256.208.463.464.463h1.617a.463.463 0 0 0 .464-.463v-1.618zM7.232 15.312a.463.463 0 0 0-.463-.464H5.15a.463.463 0 0 0-.463.464v1.617c0 .256.207.463.463.463h1.618a.463.463 0 0 0 .463-.463v-1.617zM11.275 15.312a.463.463 0 0 0-.463-.464H9.194a.463.463 0 0 0-.463.464v1.617c0 .256.208.463.463.463h1.618a.463.463 0 0 0 .463-.463v-1.617zM15.319 15.312a.463.463 0 0 0-.463-.464h-1.618a.463.463 0 0 0-.464.464v1.617c0 .256.208.463.464.463h1.618a.463.463 0 0 0 .463-.463v-1.617z"/>
        <path fill-rule="nonzero" d="M18.211 2.274v2.47a2.018 2.018 0 0 1-2.022 2.018h-1.276c-1.117 0-2.035-.9-2.035-2.017v-2.48h-5.75v2.48a2.028 2.028 0 0 1-2.035 2.017H3.817c-1.116 0-2.022-.9-2.022-2.017v-2.47A1.84 1.84 0 0 0 .017 4.103v14.48a1.84 1.84 0 0 0 1.83 1.84h16.311c1.01 0 1.831-.831 1.831-1.84V4.103c0-.993-.802-1.8-1.778-1.83zm-.592 15.408a.792.792 0 0 1-.792.791H3.144a.792.792 0 0 1-.791-.791v-7.48c0-.437.354-.791.791-.791h13.683c.438 0 .792.354.792.791v7.48z"/>
        <path d="M3.813 5.437h1.262c.383 0 .694-.31.694-.693V.694A.693.693 0 0 0 5.075 0H3.813a.693.693 0 0 0-.694.693v4.05c0 .384.31.694.694.694zM14.897 5.437h1.262c.383 0 .693-.31.693-.693V.694A.693.693 0 0 0 16.16 0h-1.262a.693.693 0 0 0-.694.693v4.05c0 .384.31.694.694.694z"/>
    </g>
</svg>
