<svg xmlns="http://www.w3.org/2000/svg" width="20" height="19" viewBox="0 0 20 19">
    <path fill="#6A6A6A" fill-rule="evenodd" d="M19.556 15.019l-3.09-2.935c-.615-.583-1.634-.565-2.27.04l-1.557 1.479a46.29 46.29 0 0 1-.307-.163c-.983-.517-2.328-1.226-3.744-2.572-1.42-1.349-2.167-2.629-2.713-3.563l-.167-.285 1.044-.99.514-.49c.638-.605.655-1.573.041-2.157L4.217.447c-.613-.583-1.633-.565-2.27.041l-.871.832.024.022A4.726 4.726 0 0 0 .063 3.764c-.408 3.213 1.138 6.149 5.332 10.133 5.797 5.508 10.469 5.091 10.67 5.071.44-.05.86-.15 1.288-.307.459-.17.888-.402 1.26-.679l.02.016.882-.82c.636-.606.655-1.574.04-2.16z"/>
</svg>
