<svg xmlns="http://www.w3.org/2000/svg" width="20" height="17" viewBox="0 0 20 17">
    <g fill="#6A6A6A" fill-rule="evenodd">
        <path d="M19.165 10.743l-7.94-.008v.816a.708.708 0 0 1-.707.706H9.484a.706.706 0 0 1-.708-.696v-.816H.843A1.41 1.41 0 0 1 0 10.46v4.694a.953.953 0 0 0 .949.949h18.086a.953.953 0 0 0 .965-.94v-4.695a1.41 1.41 0 0 1-.835.274z"/>
        <path fill-rule="nonzero" d="M19.043 2.675h-5.165V1.233c-.001-.322-.13-.63-.358-.858a1.212 1.212 0 0 0-.857-.357H7.33c-.677 0-1.225.549-1.225 1.225v1.443H.957A.953.953 0 0 0 0 3.624v5.692c.001.46.374.834.835.835h7.94v-.816a.708.708 0 0 1 .707-.706h1.032a.706.706 0 0 1 .71.695v.817h7.935A.837.837 0 0 0 20 9.316V3.624a.953.953 0 0 0-.957-.949zm-6.406 0H7.363V1.267h5.274v1.408z"/>
    </g>
</svg>
