<svg height="512pt" viewBox="0 0 512 512" width="512pt" xmlns="http://www.w3.org/2000/svg"><path d="m256 271c-24.8125 0-45 20.1875-45 45s20.1875 45 45 45 45-20.1875 45-45-20.1875-45-45-45zm0 66.210938-21.210938-21.210938 21.210938-21.210938 21.210938 21.210938zm0 0"/><path d="m329.480469 301h64.082031c4.527344-12.773438 14.664062-22.910156 27.4375-27.4375v-155.125c-12.773438-4.527344-22.910156-14.664062-27.4375-27.4375h-275.125c-4.527344 12.773438-14.664062 22.910156-27.4375 27.4375v155.125c12.773438 4.527344 22.910156 14.664062 27.4375 27.4375h64.082031c6.96875-34.191406 37.265625-60 73.480469-60s66.511719 25.808594 73.480469 60zm-178.480469-180h210v30h-210zm-30 90v-30h270v30zm0 0"/><path d="m181 331h-90v-15c0-8.277344-6.722656-15-15-15h-15v-210h15c8.277344 0 15-6.722656 15-15v-15h330v15c0 8.277344 6.722656 15 15 15h15v210h-15c-8.277344 0-15 6.722656-15 15v15h-90v60h181v-391h-512v391h181zm0 0"/><path d="m211 375.617188v136.382812l45-38.992188 45 38.992188v-136.382812c-12.574219 9.519531-28.050781 15.382812-45 15.382812s-32.425781-5.863281-45-15.382812zm0 0"/></svg>