<svg xmlns="http://www.w3.org/2000/svg" width="20" height="20" viewBox="0 0 20 20">
    <path fill="#6A6A6A" fill-rule="nonzero" d="M10 .845c-5.514 0-10 4.037-10 9 0 1.735.549 3.415 1.59 4.868-.198 2.179-.726 3.797-1.492 4.563a.333.333 0 0 0 .282.566c.135-.02 3.27-.47 5.539-1.78 1.288.52 2.66.783 4.081.783 5.514 0 10-4.037 10-9s-4.486-9-10-9zM5.333 11.178A1.335 1.335 0 0 1 4 9.845c0-.735.598-1.333 1.333-1.333.736 0 1.334.598 1.334 1.333s-.598 1.333-1.334 1.333zm4.667 0a1.335 1.335 0 0 1-1.333-1.333c0-.735.598-1.333 1.333-1.333s1.333.598 1.333 1.333-.598 1.333-1.333 1.333zm4.667 0a1.335 1.335 0 0 1-1.334-1.333 1.335 1.335 0 0 1 2.667 0c0 .735-.598 1.333-1.333 1.333z"/>
</svg>
