<svg xmlns="http://www.w3.org/2000/svg" width="20" height="20" viewBox="0 0 20 20">
    <path fill="#6A6A6A" fill-rule="evenodd" d="M18.608 13.858a1.361 1.361 0 0 0-.674.183l-1.73-1.7V9.05h.687a2.753 2.753 0 1 0-1.621-4.965.343.343 0 0 1-.54-.202 4.816 4.816 0 0 0-8.97-1.198.355.355 0 0 1-.352.182 2.067 2.067 0 0 0-2.224 2.468.343.343 0 0 1-.462.387 1.722 1.722 0 0 0-1.913.471c-.16.179-.28.392-.346.623A1.74 1.74 0 0 0 .656 8.25a1.722 1.722 0 0 0 1.471.8h1.717v3.29l-1.73 1.701a1.385 1.385 0 1 0 .494.477l1.82-1.789a.344.344 0 0 0 .103-.245V9.051h2.403v7.945a1.373 1.373 0 1 0 .687 0V9.051h4.807v7.945a1.373 1.373 0 1 0 .687 0V9.051h2.403v3.433c0 .093.037.18.103.245l1.82 1.789a1.37 1.37 0 1 0 1.167-.66z"/>
</svg>
