<svg xmlns="http://www.w3.org/2000/svg" width="20" height="18" viewBox="0 0 20 18">
    <g fill="#6A6A6A" fill-rule="evenodd">
        <circle cx="9.976" cy="2.363" r="2.329"/>
        <path fill-rule="nonzero" d="M18.13 8.771l-2.171-.453a1.777 1.777 0 0 0-1.856.787 7.99 7.99 0 0 0-1.207-.497v-1.29c0-.977-.799-1.776-1.772-1.776h-2.22c-.978 0-1.774.799-1.774 1.776v1.297a7.85 7.85 0 0 0-1.2.495 1.778 1.778 0 0 0-1.858-.792l-2.173.453a1.782 1.782 0 0 0-1.373 2.102l.545 2.605a1.779 1.779 0 0 0 2.1 1.374l.687-.144c.344.509.82.975 1.43 1.374 1.269.832 2.945 1.29 4.725 1.29 2.723 0 5.068-1.094 6.149-2.667l.698.147a1.78 1.78 0 0 0 2.098-1.374l.546-2.605a1.783 1.783 0 0 0-1.375-2.102zm-8.118 7.712c-1.607 0-3.114-.405-4.238-1.145a4.465 4.465 0 0 1-.96-.831l.526-.11a1.78 1.78 0 0 0 1.375-2.1l-.489-2.342c.285-.153.585-.288.903-.403v.428a1.78 1.78 0 0 0 1.775 1.773h2.22c.973 0 1.771-.8 1.771-1.773v-.45c.324.116.63.248.912.4l-.496 2.368a1.782 1.782 0 0 0 1.376 2.1l.531.11c-.991 1.174-2.952 1.975-5.206 1.975z"/>
        <circle cx="17.657" cy="5.425" r="2.329"/>
        <path d="M2.847 7.705A2.333 2.333 0 0 0 4.65 4.947a2.332 2.332 0 0 0-2.759-1.802 2.329 2.329 0 1 0 .955 4.56z"/>
    </g>
</svg>
