<svg xmlns="http://www.w3.org/2000/svg" width="20" height="21" viewBox="0 0 20 21">
    <g fill="#6A6A6A" fill-rule="evenodd">
        <path d="M5.806 6.145a1.733 1.733 0 0 0-2.448 0l-.237.237a1.733 1.733 0 0 0-.127 2.305l-.594 1.84 7.36 7.36 1.839-.594c.315.252.698.378 1.081.378.443 0 .887-.168 1.224-.506l.237-.237a1.733 1.733 0 0 0 0-2.447L5.806 6.145zM.099 17.648a2.01 2.01 0 0 0 .493 2.046c.635.556 1.317.72 2.046.494l3.064-.99-4.614-4.614-.99 3.064zM1.487 13.351L6.935 18.8l1.592-.514L2 11.759zM11.279 9.273a.575.575 0 0 0 .408-.169c.326-.326.528-.416.785-.53.308-.135.657-.29 1.135-.768a3.26 3.26 0 0 0 .77-1.135 2.474 2.474 0 0 1 1.314-1.315c.308-.136.656-.29 1.135-.768a.577.577 0 1 0-.816-.816 2.155 2.155 0 0 1-.786.529 3.26 3.26 0 0 0-1.135.769c-.478.478-.632.827-.768 1.135-.114.256-.203.46-.53.785-.326.327-.528.416-.785.53a3.26 3.26 0 0 0-1.135.768.577.577 0 0 0 .408.985zM7.834 5.488a.577.577 0 0 0 1.154 0c0-.232.048-.316.144-.484.125-.22.296-.519.296-1.058 0-.538-.171-.838-.296-1.057a.886.886 0 0 1 0-.969c.125-.219.296-.518.296-1.057a.577.577 0 0 0-1.154 0c0 .232-.048.317-.144.485a1.916 1.916 0 0 0-.296 1.057c0 .538.171.838.296 1.057a.886.886 0 0 1 0 .97 1.917 1.917 0 0 0-.296 1.056zM19.423 11.299c-.232 0-.316-.049-.484-.145-.22-.125-.519-.296-1.058-.296-.538 0-.838.171-1.057.296a.886.886 0 0 1-.97 0 1.917 1.917 0 0 0-1.056-.296.577.577 0 0 0 0 1.154c.232 0 .317.048.485.144.218.125.518.296 1.057.296.538 0 .838-.17 1.057-.296a.886.886 0 0 1 .97 0c.218.125.517.296 1.056.296a.577.577 0 0 0 0-1.153zM11.746 2.888h1.246a.577.577 0 0 0 0-1.154h-1.246a.577.577 0 0 0 0 1.154zM11.434 5.691a.577.577 0 0 0 .577-.577v-.623a.577.577 0 0 0-1.154 0v.623c0 .319.259.577.577.577zM17.975 9.117a.577.577 0 0 0 .577-.577V7.295a.577.577 0 0 0-1.154 0V8.54c0 .319.259.577.577.577zM15.172 8.275a.577.577 0 1 0 0 1.154h.623a.577.577 0 0 0 0-1.154h-.623z"/>
    </g>
</svg>
