<svg height="512pt" viewBox="0 0 512 512" width="512pt" xmlns="http://www.w3.org/2000/svg"><path d="m497 368.972656c-8.285156 0-15 6.714844-15 15 0 15.101563-12.285156 27.386719-27.386719 27.386719-15.097656 0-27.382812-12.285156-27.382812-27.386719 0-32.945312-18.710938-61.585937-46.050781-75.90625l-118.082032 118.085938c17.472656 49.933594 65.054688 85.84375 120.875 85.84375 70.59375 0 128.027344-57.429688 128.027344-128.023438 0-8.285156-6.714844-15-15-15zm0 0"/><path d="m99.964844 234.785156 134.824218-134.820312-72.042968-72.042969c-18.007813-18.007813-41.949219-27.921875-67.414063-27.921875-25.460937 0-49.402343 9.917969-67.40625 27.925781-37.171875 37.167969-37.171875 97.648438 0 134.820313zm0 0"/><path d="m342.066406 169.929688.011719.015624 67.398437 67.394532 35.59375-35.589844-134.824218-134.820312-35.589844 35.59375 67.398438 67.394531zm0 0"/><path d="m331.460938 201.75-213.691407 213.695312c-5.859375 5.855469-15.355469 5.855469-21.214843 0-5.859376-5.859374-5.859376-15.355468 0-21.214843l213.691406-213.691407-56.804688-56.804687-249.046875 249.046875c-2.8125 2.8125-4.39062475 6.628906-4.394531 10.605469v85.308593c0 .011719.00390625.023438 0 .039063v28.261719c.00390625 3.980468 1.582031 7.796875 4.394531 10.609375s6.628907 4.390625 10.605469 4.390625h28.28125.007812 85.324219c3.976563 0 7.792969-1.578125 10.605469-4.390625l249.046875-249.050781zm-281.964844 280.25-19.496094-19.5v-64.109375l83.609375 83.605469zm0 0"/><path d="m484.074219 162.742188c18.007812-18.003907 27.925781-41.945313 27.925781-67.410157 0-25.460937-9.917969-49.402343-27.921875-67.40625-.003906-.003906-.003906-.003906-.007813-.003906-18-18.007813-41.941406-27.921875-67.402343-27.921875-25.464844 0-49.40625 9.917969-67.410157 27.921875l-17.796874 17.796875 134.820312 134.816406zm0 0"/></svg>