<svg xmlns="http://www.w3.org/2000/svg" width="20" height="20" viewBox="0 0 20 20">
    <g fill="#6A6A6A" fill-rule="evenodd">
        <path fill-rule="nonzero" d="M19.625 13.315a1.11 1.11 0 0 0-.815-.336h-5.567l-1.63 1.631c-.465.448-1.009.672-1.632.672-.624 0-1.168-.224-1.632-.672L6.73 12.98H1.153c-.32 0-.592.112-.816.336A1.11 1.11 0 0 0 0 14.13v3.838c0 .32.112.592.336.816.224.224.496.336.816.336H18.81c.32 0 .592-.112.815-.336a1.11 1.11 0 0 0 .336-.816v-3.838c0-.32-.112-.592-.336-.816zm-4.498 4.043a.739.739 0 0 1-.54.227.738.738 0 0 1-.54-.227.738.738 0 0 1-.228-.54c0-.208.076-.388.228-.54a.738.738 0 0 1 .54-.228c.208 0 .388.076.54.228a.738.738 0 0 1 .228.54.738.738 0 0 1-.228.54zm3.07 0a.737.737 0 0 1-.539.227.738.738 0 0 1-.54-.227.738.738 0 0 1-.227-.54c0-.208.075-.388.227-.54a.737.737 0 0 1 .54-.228c.208 0 .388.076.54.228a.737.737 0 0 1 .228.54.737.737 0 0 1-.228.54z"/>
        <path d="M9.44 13.519a.713.713 0 0 0 .54.228.713.713 0 0 0 .54-.228l5.375-5.375c.248-.231.304-.511.168-.84-.136-.311-.372-.467-.708-.467h-3.071V1.463a.739.739 0 0 0-.228-.54.738.738 0 0 0-.54-.228H8.445a.738.738 0 0 0-.54.228.738.738 0 0 0-.228.54v5.374h-3.07c-.337 0-.573.156-.708.468-.136.328-.08.608.168.84l5.374 5.374z"/>
    </g>
</svg>
