<svg xmlns="http://www.w3.org/2000/svg" width="20" height="20" viewBox="0 0 20 20">
    <path fill="#6A6A6A" fill-rule="nonzero" d="M18.66 4.98a9.958 9.958 0 0 0-3.64-3.639C13.488.447 11.815 0 10 0 8.186 0 6.513.447 4.98 1.341a9.956 9.956 0 0 0-3.639 3.64C.447 6.512 0 8.185 0 10s.447 3.487 1.341 5.02a9.96 9.96 0 0 0 3.64 3.639C6.513 19.553 8.186 20 10 20c1.813 0 3.487-.447 5.019-1.341a9.955 9.955 0 0 0 3.639-3.64C19.553 13.488 20 11.815 20 10s-.447-3.488-1.34-5.02zM11.25 15.262c-.087-.104-.117-.191-.091-.261-.009.043-.04.082-.091.117a1.242 1.242 0 0 0-.235-.195 1.229 1.229 0 0 1-.234-.196 12.173 12.173 0 0 1-.189-.3 1.312 1.312 0 0 1-.104-.201c-.021-.057-.023-.09-.006-.098-.165.07-.404.022-.717-.143-.06-.035-.152-.126-.273-.273-.121-.148-.247-.213-.378-.196a2.191 2.191 0 0 0-.175.046.68.68 0 0 1-.19.032.594.594 0 0 1-.208-.052 1.68 1.68 0 0 1-.28-.15 1.866 1.866 0 0 0-.24-.136l-.17-.091-.208-.104a.64.64 0 0 1-.163-.124.413.413 0 0 1-.11-.176 2.507 2.507 0 0 1-.065-.312.973.973 0 0 0-.104-.339 1.174 1.174 0 0 0-.222-.26c-.095-.087-.182-.13-.26-.13.07 0 .07-.059 0-.176a1.32 1.32 0 0 0-.183-.254 16.306 16.306 0 0 1-.378-.417 1.04 1.04 0 0 1-.155-.241c-.044-.091-.053-.167-.027-.228.01-.008 0-.022-.026-.039a.675.675 0 0 0-.097-.052 2.239 2.239 0 0 0-.11-.046.256.256 0 0 0-.079-.019.995.995 0 0 1 .059.189.75.75 0 0 0 .071.202c.018.035.091.16.222.377.225.365.33.634.312.808-.052.017-.087.008-.104-.026a.474.474 0 0 1-.04-.143.819.819 0 0 0-.025-.13c-.026-.053-.094-.11-.202-.17-.109-.06-.176-.121-.202-.182a.06.06 0 0 0 .033-.013.063.063 0 0 1 .032-.013c.009-.078-.037-.178-.136-.3-.1-.121-.141-.208-.124-.26-.07-.052-.13-.154-.182-.306a1.148 1.148 0 0 0-.13-.293.557.557 0 0 0-.13-.137 2.57 2.57 0 0 0-.196-.13 5.677 5.677 0 0 1-.156-.098.501.501 0 0 1-.105-.117c-.286-.347-.373-.534-.26-.56-.113.026-.206-.058-.28-.254-.074-.195-.098-.345-.072-.449l-.026-.013a1.93 1.93 0 0 0 .013-.306c0-.17.011-.323.033-.462.022-.14.063-.209.124-.209-.061.009-.106-.045-.137-.162-.03-.118-.032-.198-.006-.241.008-.026.047-.009.117.052.07.06.108.1.117.117.113-.061.156-.139.13-.235-.017-.034-.108-.125-.273-.273-.374-.243-.565-.36-.573-.352.052-.095.039-.177-.04-.247-.086.052-.136.065-.15.04a.504.504 0 0 1-.032-.144c-.008-.07-.03-.108-.065-.117-.043-.009-.095-.044-.156-.104a8.217 8.217 0 0 1 3.06-2.891c.052-.009.147-.013.286-.013a.52.52 0 0 1 .195.065c.061.035.124.083.19.143.064.06.114.104.149.13.017-.052-.004-.13-.065-.234.017-.052.113-.104.286-.156.2-.026.33-.022.39.013a3.425 3.425 0 0 0-.26-.326l-.064.065c-.07-.06-.252-.03-.547.091l-.13.072c-.07.039-.127.067-.17.085a.32.32 0 0 1-.156.013 7.376 7.376 0 0 1 1.224-.534c.026.017.07.054.13.11.06.057.109.098.143.124-.026-.017-.043-.009-.052.026-.034.104-.034.19 0 .26.044.061.102.096.176.104a.97.97 0 0 0 .267-.013c.104-.017.174-.026.208-.026l.13.013c.278.026.387 0 .326-.078a.836.836 0 0 1 .091.215.578.578 0 0 0 .117.228c.044-.035.052-.095.026-.182s-.026-.148 0-.183c.009-.017.035-.034.078-.052l.15-.058c.057-.022.094-.037.111-.046.052-.035.017-.095-.104-.182a.89.89 0 0 0-.11-.04 1.871 1.871 0 0 1-.15-.051.827.827 0 0 1-.137-.072c-.048-.03-.07-.065-.065-.104a.352.352 0 0 1 .071-.15c.052-.043.137-.06.254-.052.117.009.206.03.267.065.235.13.27.248.104.352a.934.934 0 0 1 .313.104c.121.06.17.126.143.195.07-.13.139-.195.209-.195.043.009.084.067.123.176.04.108.063.167.072.176.07.095.138.117.208.065.07-.052.141-.128.215-.228.074-.1.115-.146.124-.137-.087-.034-.096-.07-.026-.104.13-.078.247-.1.351-.065.026.017.06.056.104.117.078.156.065.23-.039.221.078.07.11.157.098.26-.013.105-.081.153-.202.144a.462.462 0 0 1-.19-.065.585.585 0 0 0-.188-.072c-.044-.004-.105.02-.183.072-.034.043-.08.117-.136.221a.997.997 0 0 1-.15.222c-.13.13-.347.178-.651.143.026 0 .024.026-.007.078a2.647 2.647 0 0 1-.215.286.664.664 0 0 0-.156.3c0 .017-.004.076-.013.176a.655.655 0 0 1-.052.228c.104-.026.187.026.247.156.052.121.052.187 0 .195.287-.043.539-.026.756.052.312.113.49.226.534.339.052-.078.177-.083.377-.013.078.043.147.174.209.39.034.13.093.244.175.339.083.095.172.121.267.078l.04-.026a1.22 1.22 0 0 0 .084-.046.55.55 0 0 0 .071-.052c.027-.021.042-.04.046-.058.004-.017-.002-.035-.02-.052a.47.47 0 0 1-.136-.215.274.274 0 0 1 .02-.241.87.87 0 0 1 .208-.156c.113-.07.182-.14.208-.209.035-.113-.009-.206-.13-.28-.122-.073-.182-.14-.182-.202 0-.043.028-.095.084-.156.057-.06.08-.117.072-.17a.633.633 0 0 0-.046-.162.896.896 0 0 1-.052-.182c-.004-.04.016-.085.059-.137.06-.035.204-.033.43.006.225.04.373.08.442.124.026.017.083.043.17.078.086.035.162.072.228.11.064.04.101.077.11.111h-.065c.06.053.098.113.11.183.014.07-.019.121-.097.156a.41.41 0 0 1 .208.04c.14.051.144.1.013.142a.835.835 0 0 1 .11-.026.366.366 0 0 0 .176-.085.214.214 0 0 1 .06-.038.416.416 0 0 1 .058-.013.106.106 0 0 1 .078.02c.009 0 .028-.023.058-.066.03-.043.063-.087.098-.13.035-.043.065-.065.09-.065.027 0 .05.01.072.032a.273.273 0 0 1 .052.072l.04.085c.012.03.023.054.032.071.017.044.059.09.123.137a.35.35 0 0 1 .124.137c.009.026.026.09.052.195.026.104.06.176.104.215.044.039.109.071.195.097.018.01.057.005.118-.012a.312.312 0 0 1 .15-.014c.039.009.058.044.058.105.052-.053.078-.087.078-.105a.55.55 0 0 0 .085.274c.047.07.123.1.228.09l-.027.287c-.026.044-.09.076-.195.098a.712.712 0 0 0-.195.059.899.899 0 0 0-.19.156c-.1.096-.14.152-.123.17-.147-.166-.369-.213-.664-.144-.33.052-.556.104-.677.156a.947.947 0 0 0-.286.196.41.41 0 0 0-.046.09 2.37 2.37 0 0 1-.065.144c-.022.043-.041.065-.058.065.052-.008.11-.05.175-.124a.754.754 0 0 1 .124-.123c.226-.148.412-.2.56-.155.192.052.222.121.092.208-.017.017-.063.024-.137.02a.47.47 0 0 0-.15.006.688.688 0 0 1 .196.071c.052.03.065.072.039.124.139.078.165.165.078.26a.47.47 0 0 1-.404.144c.027 0 .027.017 0 .052l-.221.143c-.017.009-.074.03-.17.065a.442.442 0 0 0-.195.117.26.26 0 0 0-.039.157c0 .07-.004.121-.013.156-.008.035-.043.043-.104.026-.026.052-.106.094-.24.124-.135.03-.224.076-.268.136.052.07.048.14-.013.209-.104.087-.195.078-.273-.026-.044.017-.076.06-.098.13-.021.07-.054.117-.097.143.06.096.051.165-.026.209a.18.18 0 0 1 .058.026c.03.017.063.039.098.065.034.026.056.039.065.039-.035.078-.083.117-.144.117.053.139-.012.29-.195.456a.598.598 0 0 1-.163.104 2.351 2.351 0 0 1-.202.084.425.425 0 0 0-.104.046.882.882 0 0 0-.195.24.281.281 0 0 0-.02.242c.03.078.111.13.241.156l.013.104v.235l.013.104a1.292 1.292 0 0 1 .02.345c-.004.074-.024.115-.059.123-.034.01-.082 0-.143-.026-.07-.034-.152-.225-.247-.572a.87.87 0 0 0-.157-.313.392.392 0 0 1-.11.085c-.03.013-.053.015-.065.006a.858.858 0 0 1-.072-.058.87.87 0 0 0-.09-.072.691.691 0 0 0-.229-.065c-.108-.017-.176-.039-.202-.065-.208.157-.334.117-.377-.117-.018.043-.016.102.006.176s.033.115.033.124c-.061.113-.156.121-.287.026-.052-.052-.171-.059-.358-.02-.187.039-.31.046-.371.02.009 0 .026.012.052.039.026.017.044.03.052.039a.164.164 0 0 1-.039.078c-.017.017-.035.023-.052.02a.132.132 0 0 0-.059 0 .22.22 0 0 0-.058.019.804.804 0 0 0-.13.136.648.648 0 0 1-.118.124.859.859 0 0 1 .072.319 3.924 3.924 0 0 1-.04.325 2.406 2.406 0 0 0-.032.345c0 .139.042.3.124.482.082.182.18.308.293.378a.77.77 0 0 0 .313.065c.147.008.251 0 .312-.026a.32.32 0 0 0 .117-.091.44.44 0 0 0 .065-.15c.018-.065.03-.11.04-.137.06-.165.173-.251.338-.26.104-.009.18.002.228.032.048.03.067.072.058.124a.655.655 0 0 1-.052.163 2.75 2.75 0 0 1-.097.189.72.72 0 0 0-.072.156 2.17 2.17 0 0 0-.045.293 1.61 1.61 0 0 1-.033.228.758.758 0 0 0 .195.013.31.31 0 0 1 .02-.084.37.37 0 0 0 .02-.072c.043.07.112.108.208.117.095.009.165-.026.208-.104.018.026.07.091.157.196.086.104.134.19.143.26.009.035.026.091.052.17.026.078.035.132.026.162-.009.03-.052.046-.13.046-.035 0-.057.013-.065.039a.177.177 0 0 0 0 .097.875.875 0 0 0 .084.222.24.24 0 0 1 .033.071c.156.286.369.365.638.235 0 .251-.06.39-.183.416-.068.017-.146-.027-.233-.13zm.195 2.941a1.043 1.043 0 0 1-.025-.208c-.01-.07.021-.163.09-.28.07-.117.104-.206.104-.267-.138-.034-.19-.147-.156-.338.017-.13.143-.304.378-.521.165-.148.217-.356.156-.625a3.6 3.6 0 0 1-.065-.495 4.43 4.43 0 0 0-.052-.456c0 .026.04.05.123.072.083.021.133.05.15.084a.789.789 0 0 0 .065-.143.662.662 0 0 1 .078-.156.443.443 0 0 1 .11-.098 1.28 1.28 0 0 1 .111-.072.997.997 0 0 0 .117-.084c.061-.048.111-.085.15-.11a.433.433 0 0 1 .157-.059c.065-.013.11.006.136.058.044.053.035.133-.026.241-.06.109-.06.185 0 .229a.97.97 0 0 0 .026-.17.315.315 0 0 1 .078-.196.296.296 0 0 1 .15-.09.185.185 0 0 1 .13.019c.04.022.085.052.137.091.052.039.1.063.143.071.13.044.287.14.469.287-.009-.009-.009-.02 0-.033a.137.137 0 0 1 .052-.039.975.975 0 0 0 .071-.039.365.365 0 0 1 .072-.032l.039-.013c.06 0 .104-.004.13-.013.026-.009.063 0 .11.026a.888.888 0 0 1 .19.13c.043.035.073.06.09.078l.143.091c.07.043.124.078.163.104.04.026.074.065.104.117.03.052.042.109.033.17.052.008.156.043.312.103.027.018.08.033.163.046.083.013.137.033.163.058-1.258 1.33-2.781 2.15-4.57 2.462z"/>
</svg>
