<svg xmlns="http://www.w3.org/2000/svg" width="20" height="20" viewBox="0 0 20 20">
    <g fill="#6A6A6A" fill-rule="evenodd">
        <path d="M17.578 11.458v2.878h-1.172v-2.863a2.974 2.974 0 0 0-2.343 2.902v1.875a2.972 2.972 0 0 0 2.968 2.969A2.972 2.972 0 0 0 20 16.25v-1.875c0-1.45-1.045-2.66-2.422-2.917zM4.688 6.641h3.516v1.172H4.688z"/>
        <path fill-rule="nonzero" d="M14.648 4.688h-1.757V2.344H1.752a.584.584 0 0 1-.58-.586c0-.323.26-.586.58-.586h11.139V0H1.752C.786 0 0 .789 0 1.758V17.46c0 .97.789 1.758 1.758 1.758H12.89V5.859h1.757c.97 0 1.758.789 1.758 1.758v3.856a2.967 2.967 0 0 1 1.172-.015v-3.84a2.933 2.933 0 0 0-2.93-2.93zM9.375 8.983h-5.86V5.47h5.86v3.515z"/>
    </g>
</svg>
