<svg xmlns="http://www.w3.org/2000/svg" width="20" height="20" viewBox="0 0 20 20">
    <g fill="#6A6A6A" fill-rule="evenodd">
        <path d="M19.568 17.484l-1.57-1.569a1.464 1.464 0 0 0-1.583-.329l-1.151-1.145a4.33 4.33 0 0 0 .89-2.633c0-1.146-.445-2.19-1.172-2.967v6.972l.604.602a1.464 1.464 0 0 0 .329 1.584l1.569 1.569a1.473 1.473 0 1 0 2.084-2.084z"/>
        <path d="M14.981 11.808a3.18 3.18 0 1 1-6.359 0 3.18 3.18 0 0 1 6.36 0zM4.393 3.724V0h-.041a.586.586 0 0 0-.415.172L.172 3.937A.586.586 0 0 0 0 4.352v.041h3.724c.369 0 .67-.3.67-.67z"/>
        <path fill-rule="nonzero" d="M11.802 7.456c1.252 0 2.383.532 3.177 1.382V1.841A1.84 1.84 0 0 0 13.138 0H5.565v3.724a1.844 1.844 0 0 1-1.841 1.841H0V18.16C0 19.174.826 20 1.841 20h11.297a1.84 1.84 0 0 0 1.841-1.841v-2.348l-.544-.541a4.329 4.329 0 0 1-2.633.89 4.356 4.356 0 0 1-4.352-4.352c0-2.4 1.952-4.352 4.352-4.352zM3.75 12.552h2.198a.586.586 0 0 1 0 1.172H3.75a.586.586 0 0 1 0-1.172zm-.586-1.924c0-.324.262-.586.586-.586h2.198a.586.586 0 0 1 0 1.172H3.75a.586.586 0 0 1-.586-.586zm4.31 5.02a.586.586 0 0 1-.586.586H3.75a.586.586 0 0 1 0-1.171h3.138c.323 0 .586.262.586.585zm-.586-6.945H3.75a.586.586 0 0 1 0-1.172h3.138a.586.586 0 0 1 0 1.172z"/>
    </g>
</svg>
