<svg xmlns="http://www.w3.org/2000/svg" width="20" height="11" viewBox="0 0 20 11">
    <path fill="#6A6A6A" fill-rule="nonzero" d="M18.41 1.673C17.37.633 16.115.113 14.645.113h-9.32c-1.47 0-2.725.52-3.765 1.56S0 3.968 0 5.438c0 1.47.52 2.725 1.56 3.765s2.295 1.56 3.765 1.56c1.332 0 2.503-.444 3.516-1.331h2.288c1.012.887 2.184 1.331 3.516 1.331 1.47 0 2.725-.52 3.765-1.56s1.56-2.295 1.56-3.765c0-1.47-.52-2.725-1.56-3.765zm-9.756 4.43a.323.323 0 0 1-.094.24.324.324 0 0 1-.24.093H6.325v1.997a.323.323 0 0 1-.094.24.324.324 0 0 1-.239.093H4.66a.324.324 0 0 1-.24-.094.324.324 0 0 1-.093-.239V6.436H2.33a.324.324 0 0 1-.24-.094.323.323 0 0 1-.093-.239V4.772c0-.097.031-.177.094-.24a.324.324 0 0 1 .239-.093h1.997V2.442c0-.097.031-.177.093-.239a.324.324 0 0 1 .24-.094h1.33c.098 0 .178.032.24.094a.324.324 0 0 1 .094.24v1.996H8.32c.097 0 .177.031.239.094a.324.324 0 0 1 .094.239v1.331zm5.6 1.607c-.26.26-.573.39-.94.39-.368 0-.682-.13-.942-.39-.26-.26-.39-.573-.39-.941s.13-.681.39-.941c.26-.26.574-.39.941-.39.368 0 .682.13.942.39.26.26.39.573.39.941s-.13.681-.39.941zm2.663-2.662c-.26.26-.574.39-.941.39-.368 0-.682-.13-.941-.39-.26-.26-.39-.574-.39-.942 0-.367.13-.68.39-.94.26-.261.573-.391.94-.391.368 0 .682.13.942.39.26.26.39.574.39.941 0 .368-.13.682-.39.942z"/>
</svg>
