<svg xmlns="http://www.w3.org/2000/svg" width="50" height="50" viewBox="0 0 50 50">
   
    <g fill="none" fill-rule="evenodd">
        
        <g>
            <path d="M17.356 41.81c-.375.065-.539.23-.492.492.047.262.258.35.632.262.375-.087.539-.24.492-.46-.047-.24-.258-.338-.632-.294zM15.245 42.15c-.369 0-.553.13-.553.39 0 .307.196.436.587.39.368 0 .552-.13.552-.39 0-.306-.195-.437-.586-.39zM12.555 41.865c-.092.267.057.448.445.546.343.144.56.072.651-.219.069-.266-.08-.46-.445-.581-.343-.097-.56-.013-.651.254z"/>
            <path d="M49.587.527c-2.022-2.022-4.456-3.033-7.303-3.033H7.83C4.983-2.506 2.55-1.495.527.527-1.495 2.548-2.506 4.983-2.506 7.83v34.454c0 2.847 1.011 5.281 3.033 7.303 2.021 2.022 4.456 3.033 7.303 3.033h8.04c.525 0 .92-.019 1.183-.054.263-.036.526-.192.79-.467.263-.275.394-.676.394-1.202l-.018-2.44a495.912 495.912 0 0 1-.018-3.698l-.825.144c-.527.096-1.19.138-1.992.126a15.326 15.326 0 0 1-2.494-.251 5.591 5.591 0 0 1-2.405-1.077 4.555 4.555 0 0 1-1.579-2.207l-.359-.826c-.239-.55-.616-1.16-1.13-1.83-.515-.67-1.035-1.124-1.561-1.364l-.251-.18a2.64 2.64 0 0 1-.467-.43 1.994 1.994 0 0 1-.323-.503c-.072-.167-.012-.305.18-.413.191-.107.538-.16 1.04-.16l.718.107c.479.095 1.07.382 1.777.86a5.792 5.792 0 0 1 1.74 1.867c.55.98 1.214 1.728 1.992 2.243.777.515 1.561.772 2.35.772.79 0 1.472-.06 2.046-.18.574-.12 1.112-.299 1.615-.538.216-1.603.802-2.836 1.759-3.697-1.364-.144-2.59-.359-3.68-.646-1.088-.288-2.212-.754-3.372-1.4-1.161-.646-2.124-1.447-2.89-2.405-.765-.957-1.394-2.213-1.884-3.768-.49-1.556-.735-3.35-.735-5.384 0-2.895.945-5.36 2.835-7.393-.885-2.177-.802-4.617.251-7.321.694-.215 1.723-.054 3.087.485 1.364.538 2.362.999 2.997 1.381.634.383 1.142.706 1.525.97a25.475 25.475 0 0 1 6.89-.934c2.37 0 4.666.311 6.892.933l1.364-.86c.933-.575 2.034-1.102 3.302-1.58 1.268-.478 2.237-.61 2.907-.395 1.076 2.704 1.172 5.144.286 7.321 1.89 2.034 2.836 4.499 2.836 7.394 0 2.033-.245 3.834-.735 5.4-.49 1.568-1.124 2.825-1.902 3.77-.778.945-1.747 1.74-2.907 2.386-1.16.646-2.285 1.113-3.374 1.4-1.089.287-2.315.503-3.678.647 1.243 1.076 1.865 2.774 1.865 5.095v8.578c0 .407.06.736.179.987.12.251.311.424.574.52.265.096.497.156.7.18.205.023.497.035.88.035h8.04c2.846 0 5.28-1.01 7.302-3.032 2.022-2.022 3.033-4.457 3.033-7.304V7.83c0-2.847-1.012-5.282-3.033-7.303z"/>
            <path d="M8.415 37.665c-.154.109-.132.284.067.525.22.218.396.251.529.098.154-.11.132-.284-.067-.526-.22-.196-.396-.23-.529-.097zM7.197 36.778c-.063.154.011.287.224.397.17.11.31.088.416-.066.064-.155-.011-.287-.224-.398-.213-.066-.352-.044-.416.067zM9.497 38.924c-.21.116-.21.326 0 .629s.409.384.596.244c.21-.163.21-.384 0-.664-.187-.302-.386-.373-.596-.209zM10.829 40.566c-.2.184-.156.402.132.656.265.275.487.31.664.102.177-.183.133-.402-.133-.655-.265-.275-.486-.31-.663-.103z"/>
        </g>
    </g>
</svg>
