<svg xmlns="http://www.w3.org/2000/svg" width="50" height="50" viewBox="0 0 50 50">
    
    <g fill="none" fill-rule="evenodd">
        
        <g>
            <path fill-rule="nonzero" d="M41.875-2H8.125C2.533-2-2 2.533-2 8.125v33.75C-2 47.467 2.533 52 8.125 52h33.75C47.467 52 52 47.467 52 41.875V8.125C52 2.533 47.467-2 41.875-2zM17.467 43.168c-5.977 0-11.02-2.434-11.02-6.322 0-3.945 4.6-7.755 10.578-7.752l1.866-.017c-.816-.793-1.464-1.768-1.464-2.973 0-.716.23-1.401.546-2.012l-.995.034c-4.91 0-8.198-3.493-8.198-7.823 0-4.236 4.54-7.891 9.366-7.891h10.766l-2.417 1.741h-3.412c2.265.871 3.47 3.51 3.47 6.217 0 2.272-1.26 4.229-3.038 5.62-1.738 1.36-2.065 1.927-2.065 3.08 0 .986 1.863 2.66 2.835 3.352 2.845 2.012 3.76 3.878 3.76 6.993 0 3.888-3.764 7.753-10.578 7.753zM45.25 21.689H38.5v6.74h-3.372v-6.74h-6.753V18.25h6.753V11.5H38.5v6.75h6.75v3.44z"/>
            <path d="M22.925 17.599c-.47-3.612-3.057-6.514-5.777-6.597-2.72-.08-4.545 2.683-4.074 6.302.47 3.615 3.057 6.614 5.78 6.694 2.716.084 4.545-2.78 4.071-6.4zM21.549 31.419a9.375 9.375 0 0 0-2.69-.418C14.713 30.958 11 33.439 11 36.423 11 39.47 13.995 42 18.14 42c5.83 0 7.86-2.38 7.86-5.42 0-.366-.05-.725-.132-1.075-.454-1.726-2.07-2.58-4.32-4.086z"/>
        </g>
    </g>
</svg>
