<svg xmlns="http://www.w3.org/2000/svg" width="20" height="20" viewBox="0 0 20 20">
    <g fill="#6A6A6A" fill-rule="evenodd">
        <path d="M3.012 15.69h-.857A2.157 2.157 0 0 0 0 17.845v1.57c0 .323.262.585.586.585h2.527c-.065-.183-.1-.38-.1-.586V15.69zM7.196 12.552h-.857a2.158 2.158 0 0 0-2.155 2.155v4.707c0 .324.262.586.586.586h2.527a1.75 1.75 0 0 1-.101-.586v-6.862zM19.885 5.886L15.7.237a.586.586 0 0 0-.942 0l-4.184 5.649a.586.586 0 0 0 .471.934h1.506v12.594c0 .324.262.586.586.586h4.184a.586.586 0 0 0 .586-.586V6.82h1.506a.586.586 0 0 0 .47-.934z"/>
        <path d="M11.38 9.414h-.857a2.157 2.157 0 0 0-2.155 2.155v7.845c0 .324.262.586.586.586h2.527a1.75 1.75 0 0 1-.1-.586v-10z"/>
    </g>
</svg>
