<svg xmlns="http://www.w3.org/2000/svg" width="20" height="18" viewBox="0 0 20 18">
    <g fill="#6A6A6A" fill-rule="evenodd">
        <path d="M10 5.714v4.762l4.076 2.419.686-1.157-3.333-1.977V5.714z"/>
        <path d="M11.424.714a8.565 8.565 0 0 0-8.567 8.571H0l3.71 3.71.066.138L7.62 9.285H4.762a6.668 6.668 0 0 1 13.333 0 6.668 6.668 0 0 1-6.666 6.667 6.64 6.64 0 0 1-4.71-1.957l-1.348 1.347a8.517 8.517 0 0 0 6.053 2.515c4.738 0 8.576-3.838 8.576-8.572C20 4.552 16.162.714 11.424.714z"/>
    </g>
</svg>
