<svg xmlns="http://www.w3.org/2000/svg" width="26" height="20" viewBox="0 0 26 20">
    <g fill="#F90A1B" fill-rule="evenodd">
        <path d="M12.562 4.042l-8.921 7.356a.21.21 0 0 1-.008.046.212.212 0 0 0-.008.046v7.448c0 .27.098.502.295.699.196.196.429.295.698.295h5.958v-5.959h3.973v5.959h5.958a.953.953 0 0 0 .698-.295.954.954 0 0 0 .295-.699V11.49a.218.218 0 0 0-.015-.092l-8.923-7.356z"/>
        <path d="M24.898 9.722L21.5 6.898V.567a.483.483 0 0 0-.14-.357.482.482 0 0 0-.357-.14h-2.979a.484.484 0 0 0-.357.14.484.484 0 0 0-.14.357v3.026L13.743.427a1.81 1.81 0 0 0-1.18-.403c-.454 0-.847.134-1.178.403L.227 9.722a.45.45 0 0 0-.17.333c-.011.14.025.262.108.365l.962 1.148a.53.53 0 0 0 .325.171.577.577 0 0 0 .373-.108l10.737-8.954L23.3 11.63a.478.478 0 0 0 .326.109h.046a.53.53 0 0 0 .326-.17l.962-1.149a.502.502 0 0 0 .109-.365.452.452 0 0 0-.171-.333z"/>
    </g>
</svg>
