<svg xmlns="http://www.w3.org/2000/svg" width="50" height="50" viewBox="0 0 50 50">
    <!-- <defs>
        <rect id="a" width="50" height="50" rx="2"/>
    </defs> -->
    <g fill="none" fill-rule="evenodd">
        <!-- <mask id="b" fill="#fff">
            <use xlink:href="#a"/>
        </mask> -->
        <!-- <g mask="url(#b)"> -->
        <g>
            <path fill="#000" d="M27.077 22.456v-.073c-.015.024-.036.049-.049.073h.049z"/>
            <path fill="#6A6A6A" fill-rule="nonzero" d="M0 0v50h50V0H0zm15.552 41.539H8.134V19.22h7.418V41.54zm-3.71-25.365h-.048c-2.489 0-4.102-1.714-4.102-3.857 0-2.19 1.66-3.856 4.2-3.856 2.539 0 4.1 1.666 4.148 3.856 0 2.143-1.61 3.857-4.197 3.857zM42.309 41.54h-7.42v-11.94c0-3-1.073-5.047-3.758-5.047-2.051 0-3.27 1.379-3.807 2.714-.195.477-.246 1.14-.246 1.808V41.54h-7.422s.1-20.225 0-22.318h7.422v3.162c.986-1.517 2.746-3.686 6.687-3.686 4.884 0 8.544 3.189 8.544 10.043V41.54z"/>
        </g>
    </g>
</svg>
