<svg xmlns="http://www.w3.org/2000/svg" width="20" height="20" viewBox="0 0 20 20">
    <g fill="#6A6A6A" fill-rule="evenodd">
        <path fill-rule="nonzero" d="M7.273 2.054l5.454 1.283v14.551l-5.454-.962V2.054zm-.364-.823a.365.365 0 0 0-.364.364V17.23c0 .177.127.327.3.358l6.183 1.09a.365.365 0 0 0 .427-.358V3.05a.364.364 0 0 0-.28-.354L6.991 1.241a.358.358 0 0 0-.083-.01z"/>
        <path d="M19.849.572a.361.361 0 0 0-.328-.05l-6.545 2.182a.363.363 0 0 0-.249.345v15.273a.363.363 0 0 0 .496.339l6.545-2.545a.364.364 0 0 0 .232-.34V.869a.363.363 0 0 0-.151-.296zM6.83 1.24L.285 2.694A.364.364 0 0 0 0 3.05v15.637a.363.363 0 0 0 .443.355l6.545-1.455a.365.365 0 0 0 .285-.355V1.595a.363.363 0 0 0-.443-.355z"/>
    </g>
</svg>
