<svg xmlns="http://www.w3.org/2000/svg" width="20" height="21" viewBox="0 0 20 21">
    <g fill="#6A6A6A" fill-rule="evenodd">
        <path d="M10 3.72a1.76 1.76 0 0 0-1.758 1.757c0 .97.789 1.758 1.758 1.758a1.76 1.76 0 0 0 1.758-1.758A1.76 1.76 0 0 0 10 3.72z"/>
        <path fill-rule="nonzero" d="M10 .79a4.693 4.693 0 0 0-4.688 4.687c0 .887.25 1.75.72 2.497L10 14.305l3.968-6.33c.47-.748.72-1.611.72-2.498A4.693 4.693 0 0 0 10 .79zm0 7.617a2.933 2.933 0 0 1-2.93-2.93A2.933 2.933 0 0 1 10 2.547a2.933 2.933 0 0 1 2.93 2.93A2.933 2.933 0 0 1 10 8.407z"/>
        <path d="M7.148 20.79h5.702l-.45-3.555H7.587zM7.734 16.063h1.989l-1.66-2.632zM13.43 16.063h4.617l-1.465-3.515H12.98zM1.953 16.063h4.6l.44-3.515H3.418zM10.277 16.063h1.972l-.333-2.598zM6.407 17.235H1.465L0 20.79h5.967zM18.535 17.235h-4.954l.45 3.555H20z"/>
    </g>
</svg>
