<svg xmlns="http://www.w3.org/2000/svg" width="20" height="20" viewBox="0 0 20 20">
    <g fill="#6A6A6A" fill-rule="evenodd">
        <path d="M9.981 12.57V4.957c-.216.02-.429.054-.646.064H3.12a.624.624 0 0 0-.624.623v.624H.624a.624.624 0 0 0-.623.624v3.743c0 .344.28.623.623.623h1.872v.624c0 .344.28.624.624.624h.378l2.507 6.684a1.24 1.24 0 0 0 1.168.803c.333 0 .65-.133.877-.37l1.498-1.486c.383-.383.474-.98.23-1.443l-2.094-4.188h1.657c.215.01.427.044.64.064zM19.86.332a.616.616 0 0 0-.3-.258c-.005-.001-.008-.006-.011-.008-.013-.003-.024.003-.036 0C19.456.048 19.4.03 19.338.03c-.043 0-.08.017-.121.025-.024.005-.046.006-.07.014a.62.62 0 0 0-.273.177c-.005.005-.013.006-.018.011a13.127 13.127 0 0 1-7.627 4.52v7.973a13.125 13.125 0 0 1 7.627 4.52c.005.005.014.008.02.015a.605.605 0 0 0 .155.12c.019.011.034.028.052.036a.642.642 0 0 0 .466.019c.003-.001.006-.006.01-.007a.606.606 0 0 0 .26-.2c.015-.02.027-.038.04-.059a.604.604 0 0 0 .103-.322V.654a.604.604 0 0 0-.103-.322z"/>
    </g>
</svg>
