<?xml version="1.0" encoding="iso-8859-1"?>
<!-- Generator: Adobe Illustrator 17.1.0, SVG Export Plug-In . SVG Version: 6.00 Build 0)  -->
<!DOCTYPE svg PUBLIC "-//W3C//DTD SVG 1.1//EN" "http://www.w3.org/Graphics/SVG/1.1/DTD/svg11.dtd">
<svg version="1.1" id="Capa_1" xmlns="http://www.w3.org/2000/svg" xmlns:xlink="http://www.w3.org/1999/xlink" x="0px" y="0px"
	 viewBox="0 0 196.67 196.67" style="enable-background:new 0 0 196.67 196.67;" xml:space="preserve">
<path d="M115.472,32.766c-1.365-7.258,0.179-14.614,4.347-20.711c4.168-6.098,10.46-10.208,17.719-11.572
	C139.238,0.163,140.97,0,142.684,0c13.269,0,24.682,9.483,27.138,22.548c2.817,14.984-7.081,29.466-22.065,32.284
	c-1.701,0.32-3.433,0.482-5.145,0.482C129.342,55.313,117.928,45.831,115.472,32.766z M183.744,161.697
	c-0.564,1.608-1.907,2.819-3.566,3.212L46.755,196.535c-0.385,0.091-0.771,0.135-1.154,0.135c-1.716,0-3.348-0.887-4.27-2.399
	c-0.378-0.621-9.371-15.683-18.116-56.042C14.549,98.233,12.72,35.469,12.646,32.817c-0.074-2.662,1.951-4.915,4.606-5.124
	l88.372-6.942c-0.842,4.522-0.857,9.206,0.019,13.862c0.824,4.384,2.393,8.47,4.554,12.141L80.262,70.6
	c-2.16,1.721-2.517,4.866-0.796,7.026c0.987,1.239,2.444,1.885,3.914,1.885c1.092,0,2.191-0.356,3.112-1.089l29.88-23.8
	c6.833,6.659,16.14,10.692,26.239,10.692c2.332,0,4.685-0.22,6.993-0.654c1.469-0.276,2.898-0.644,4.292-1.079
	c0.681,8.245,1.563,17.397,2.715,27.193c4.45,37.841,26.134,65.91,26.352,66.189C184.013,158.304,184.308,160.089,183.744,161.697z
	 M114.851,143.833c-0.649-2.684-3.351-4.335-6.035-3.685l-52.889,12.786c-2.685,0.649-4.334,3.351-3.686,6.035
	c0.554,2.29,2.601,3.826,4.857,3.826c0.389,0,0.784-0.045,1.179-0.141l52.889-12.786
	C113.85,149.219,115.499,146.518,114.851,143.833z M130.997,102.653c-0.562-2.703-3.209-4.445-5.911-3.879l-79.5,16.5
	c-2.704,0.561-4.441,3.208-3.88,5.912c0.49,2.361,2.57,3.985,4.891,3.985c0.336,0,0.679-0.034,1.021-0.105l79.5-16.5
	C129.821,108.004,131.559,105.357,130.997,102.653z"/>
<g>
</g>
<g>
</g>
<g>
</g>
<g>
</g>
<g>
</g>
<g>
</g>
<g>
</g>
<g>
</g>
<g>
</g>
<g>
</g>
<g>
</g>
<g>
</g>
<g>
</g>
<g>
</g>
<g>
</g>
</svg>
