<svg xmlns="http://www.w3.org/2000/svg" width="20" height="25" viewBox="0 0 20 25">
    <g fill="#6A6A6A" fill-rule="evenodd">
        <path d="M11.637 15.995a1.145 1.145 0 0 0-.321-.234 3.876 3.876 0 0 0-.814-.287v2.153c.451-.05.97-.214 1.206-.635a.984.984 0 0 0 .09-.673.676.676 0 0 0-.16-.324zM11.726 17.019l.005-.007a.474.474 0 0 0-.005.007zM8.386 12.551a.908.908 0 0 0-.093.797c.049.124.153.214.26.287.12.082.252.146.387.2.113.046.24.09.377.131v-1.949c-.346.074-.724.232-.931.534zM11.742 16.991l-.016.028.016-.028zM11.75 16.977c.001-.002.001-.002 0 0z"/>
        <path fill-rule="nonzero" d="M11.26 5.239C13.093 3.7 14.317.234 13.564.082c-1-.201-3.174.682-4.224.838-1.49.18-3.113-1.615-4.024-.615-.74.814.531 3.773 2.52 5.062-5.934 2.917-14.276 17.56.277 18.623C28.248 25.46 18.165 8.082 11.26 5.24zm1.73 11.548a2.117 2.117 0 0 1-.817 1.438c-.477.37-1.076.542-1.671.59v.631a.596.596 0 0 1-.2.444.597.597 0 0 1-.64.094.597.597 0 0 1-.345-.538v-.69a3.883 3.883 0 0 1-.303-.07 2.908 2.908 0 0 1-1.449-.89 2.612 2.612 0 0 1-.52-.953c-.02-.065-.04-.132-.047-.2a.593.593 0 0 1 1.151-.246c.023.068.038.138.064.206.025.067.055.132.09.194.071.122.16.235.26.333.21.202.477.333.754.41v-2.343c-.543-.14-1.104-.322-1.553-.671a1.807 1.807 0 0 1-.524-.63 1.971 1.971 0 0 1-.183-.848 2.02 2.02 0 0 1 .664-1.525c.436-.402 1.015-.626 1.597-.708v-.655c0-.168.073-.332.2-.443a.597.597 0 0 1 .64-.095c.207.096.344.31.344.538v.652c.077.01.155.02.231.035.571.103 1.13.339 1.547.75a2.26 2.26 0 0 1 .557.897c.022.07.045.14.056.212a.593.593 0 0 1-1.14.299c-.024-.065-.036-.133-.062-.198a1.13 1.13 0 0 0-.377-.48c-.237-.175-.524-.266-.812-.317v2.242a7.52 7.52 0 0 1 1.012.3c.495.196.964.495 1.234.967a5.552 5.552 0 0 1 .002.003c.082.145.043.076.001.003.215.379.286.832.24 1.262z"/>
        <path d="M11.724 17.022l-.015.028.015-.028z"/>
    </g>
</svg>
