<svg xmlns="http://www.w3.org/2000/svg" width="20" height="21" viewBox="0 0 20 21">
    <g fill="#6A6A6A" fill-rule="evenodd">
        <path d="M18 12.97l-4 7h4zM9 19.97l-5-3v3z"/>
        <path fill-rule="nonzero" d="M13.294 4.419V5.48a1.83 1.83 0 1 1-3.66 0V3.284h.732V5.48a1.098 1.098 0 0 0 2.196 0V3.996L7.32.97 0 13.65l12.68 7.32L20 8.289l-6.706-3.87zm-2.562-.403h.732v.732c0 .202.164.366.366.366h.366v.732h-.366a1.098 1.098 0 0 1-1.098-1.098v-.732zm.107 11.65L5.135 12.37l.366-.633 5.704 3.293-.366.634zm1.098-2l-5.704-3.294.366-.634 5.704 3.294-.366.634zM7.33 8.37l.366-.634 5.705 3.294-.366.634L7.33 8.371z"/>
        <path d="M4 5.97l1-1H4zM15 4.97l3 2v-2zM11.464 7.31a1.832 1.832 0 0 1-1.83-1.83V3.284h.732V5.48a1.098 1.098 0 0 0 2.196 0V3.996L7.32.97 0 13.65l12.68 7.32L20 8.289l-6.706-3.87V5.48a1.832 1.832 0 0 1-1.83 1.83z"/>
        <path d="M11-.03c-1.1.007-1.991.743-2 1.653v.33h.8v-.33c0-.548.537-.992 1.2-.992.663 0 1.2.444 1.2.992v1.964l.8.383V1.623C12.999.71 12.104-.03 11-.03z"/>
    </g>
</svg>
