<svg xmlns="http://www.w3.org/2000/svg" width="20" height="16" viewBox="0 0 20 16">
    <g fill="#6A6A6A" fill-rule="evenodd">
        <path d="M3.06.003h-.002a.713.713 0 0 0-.712.716v10.732c0 .393.321.714.716.715 1.666.004 4.457.351 6.382 2.366V3.302a.686.686 0 0 0-.098-.363C7.766.394 4.73.007 3.06.003zM17.654 11.45V.72a.713.713 0 0 0-.712-.716h-.001c-1.67.004-4.707.39-6.287 2.936a.686.686 0 0 0-.098.362v11.231c1.925-2.015 4.716-2.362 6.382-2.366a.718.718 0 0 0 .716-.715z"/>
        <path d="M19.284 2.478h-.519v8.973a1.831 1.831 0 0 1-1.825 1.826c-1.413.004-3.742.28-5.392 1.842 2.853-.7 5.862-.245 7.576.146a.714.714 0 0 0 .876-.698V3.194a.716.716 0 0 0-.716-.716zM1.234 11.45V2.479H.716A.716.716 0 0 0 0 3.194v11.373a.714.714 0 0 0 .876.697c1.714-.39 4.723-.844 7.576-.146-1.65-1.561-3.98-1.837-5.393-1.84a1.83 1.83 0 0 1-1.825-1.827z"/>
    </g>
</svg>
