<svg xmlns="http://www.w3.org/2000/svg" width="20" height="18" viewBox="0 0 20 18">
    <g fill="#6A6A6A" fill-rule="evenodd">
        <path fill-rule="nonzero" d="M19.19 3.845a2.565 2.565 0 0 0-1.883-.78h-2.33l-.53-1.415c-.132-.34-.373-.632-.723-.879-.35-.246-.709-.369-1.076-.369H7.322c-.367 0-.726.123-1.076.37-.35.246-.591.539-.723.878l-.53 1.415h-2.33c-.735 0-1.363.26-1.883.78S0 4.992 0 5.727v9.32c0 .735.26 1.362.78 1.882.52.52 1.148.78 1.883.78h14.644c.735 0 1.362-.26 1.883-.78.52-.52.78-1.147.78-1.882v-9.32c0-.735-.26-1.362-.78-1.882zm-5.913 9.834c-.912.912-2.01 1.368-3.292 1.368-1.283 0-2.38-.456-3.292-1.368-.912-.912-1.368-2.01-1.368-3.292 0-1.283.456-2.38 1.368-3.292.912-.912 2.009-1.367 3.292-1.367s2.38.456 3.292 1.367c.912.912 1.367 2.01 1.367 3.292 0 1.283-.455 2.38-1.367 3.292z"/>
        <path d="M9.985 7.392c-.825 0-1.53.292-2.117.879a2.885 2.885 0 0 0-.879 2.116c0 .825.293 1.53.88 2.117a2.885 2.885 0 0 0 2.116.879c.825 0 1.53-.293 2.116-.88a2.885 2.885 0 0 0 .88-2.116c0-.825-.294-1.53-.88-2.116a2.885 2.885 0 0 0-2.116-.88z"/>
    </g>
</svg>
