<?xml version="1.0" encoding="iso-8859-1"?>
<!-- Generator: Adobe Illustrator 18.1.1, SVG Export Plug-In . SVG Version: 6.00 Build 0)  -->
<svg version="1.1" id="Capa_1" xmlns="http://www.w3.org/2000/svg" xmlns:xlink="http://www.w3.org/1999/xlink" x="0px" y="0px"
	 viewBox="0 0 28.81 28.81" style="enable-background:new 0 0 28.81 28.81;" xml:space="preserve">
<g>
	<path d="M21.472,6.082c1.107,0,1.998-0.889,1.998-1.994v-2.09C23.47,0.891,22.579,0,21.472,0c-1.102,0-1.996,0.891-1.996,1.998
		v2.09C19.476,5.193,20.37,6.082,21.472,6.082z"/>
	<path d="M28.573,3.46h-4.025v1.012c0,1.681-1.361,3.045-3.043,3.045s-3.041-1.364-3.041-3.045V3.46h-8.115v1.012
		c0,1.681-1.361,3.045-3.043,3.045c-1.68,0-3.039-1.364-3.039-3.045V3.46L0.208,3.408v25.401l2.029,0.001h24.338l2.027-0.007
		L28.573,3.46z M26.575,26.789H2.237v-16.23h24.338C26.575,10.559,26.575,26.789,26.575,26.789z"/>
	<path d="M7.276,6.082c1.104,0,1.994-0.889,1.994-1.994v-2.09C9.27,0.891,8.38,0,7.276,0S5.278,0.891,5.278,1.998v2.09
		C5.278,5.193,6.173,6.082,7.276,6.082z"/>
	<path d="M9.954,22.399c0.756-0.649,1.312-1.705,1.312-3.229c0-1.407-0.523-2.388-1.348-3c-0.758-0.566-1.748-0.852-3.275-0.852
		c-0.895,0-1.764,0.072-2.422,0.178v7.812c0.438,0.059,1.109,0.118,2.045,0.118C7.827,23.426,9.114,23.094,9.954,22.399z
		 M6.019,16.772c0.154-0.037,0.424-0.071,0.814-0.071c1.561,0,2.533,0.875,2.533,2.529c0,1.9-1.08,2.801-2.723,2.788
		c-0.213,0-0.471,0-0.625-0.033L6.019,16.772L6.019,16.772z"/>
	<path d="M14.114,21.298h2.279l0.617,2.047h1.951l-2.482-7.968h-2.365l-2.424,7.968h1.859L14.114,21.298z M14.845,18.261
		c0.133-0.46,0.252-1.063,0.369-1.537h0.023c0.119,0.474,0.26,1.066,0.404,1.537l0.494,1.692h-1.762L14.845,18.261z"/>
	<path d="M20.737,23.346h1.795v-3.325l2.623-4.643h-2.02l-0.805,1.914c-0.236,0.566-0.424,1.028-0.602,1.525h-0.025
		c-0.188-0.52-0.363-0.945-0.611-1.525l-0.805-1.914h-2.068l2.518,4.703C20.737,20.081,20.737,23.346,20.737,23.346z"/>
	<g>
	</g>
	<g>
	</g>
	<g>
	</g>
	<g>
	</g>
	<g>
	</g>
	<g>
	</g>
	<g>
	</g>
	<g>
	</g>
	<g>
	</g>
	<g>
	</g>
	<g>
	</g>
	<g>
	</g>
	<g>
	</g>
	<g>
	</g>
	<g>
	</g>
</g>
<g>
</g>
<g>
</g>
<g>
</g>
<g>
</g>
<g>
</g>
<g>
</g>
<g>
</g>
<g>
</g>
<g>
</g>
<g>
</g>
<g>
</g>
<g>
</g>
<g>
</g>
<g>
</g>
<g>
</g>
</svg>
