<svg xmlns="http://www.w3.org/2000/svg" width="50" height="50" viewBox="0 0 50 50">
    <path fill="#6A6A6A" fill-rule="nonzero" d="M45.7-2H3.3C.385-2-2 .385-2 3.3v42.4C-2 48.615.385 51 3.3 51h42.4c2.915 0 5.3-2.385 5.3-5.3V3.3C51 .385 48.615-2 45.7-2zM27.15 35.63c-2.12 0-4.24-.795-5.565-2.385l-2.65 8.48-.265.53c-.53.795-1.325 1.325-2.385 1.325-1.59 0-2.915-1.325-2.915-2.915V40.4l.265-.53 4.77-14.84s-.53-1.59-.53-3.975c0-4.505 2.385-5.83 4.505-5.83 1.855 0 3.71.795 3.71 3.445 0 3.445-2.385 5.3-2.385 7.95 0 1.855 1.59 3.445 3.445 3.445 6.095 0 8.48-4.77 8.48-9.01 0-5.83-5.035-10.6-11.13-10.6-6.095 0-11.13 4.77-11.13 10.6 0 1.855.53 3.445 1.325 5.035.265.53.265.795.265 1.325 0 1.59-1.06 2.65-2.65 2.65-1.06 0-1.855-.53-2.385-1.325-1.325-2.385-2.12-5.035-2.12-7.95 0-8.745 7.42-15.9 16.43-15.9s16.43 7.155 16.43 15.9c.265 7.42-3.975 14.84-13.515 14.84z"/>
</svg>
