<svg xmlns="http://www.w3.org/2000/svg" width="20" height="18" viewBox="0 0 20 18">
    <g fill="#6A6A6A" fill-rule="evenodd">
        <path fill-rule="nonzero" d="M19.031.368H.97A.968.968 0 0 0 0 1.337v11.332c0 .535.434.968.969.968h6.755v2.195H5.095a.897.897 0 0 0 0 1.792h9.81a.897.897 0 0 0 0-1.792h-2.63v-2.195h6.756A.968.968 0 0 0 20 12.67V1.337a.968.968 0 0 0-.969-.969zm-.484 11.816H1.453V1.821h17.094v10.363z"/>
        <path d="M4.58 7.55l3.056 1.42a.59.59 0 0 0 .569-.037.591.591 0 0 0 .274-.501v-.016a.596.596 0 0 0-.343-.538l-1.91-.888 1.91-.888a.596.596 0 0 0 .343-.538V5.55a.59.59 0 0 0-.594-.594.597.597 0 0 0-.25.055L4.581 6.43a.596.596 0 0 0-.344.54v.042c0 .23.135.44.344.538zM8.507 10.444c.111.152.29.243.48.243H9c.26 0 .487-.166.566-.412l2.012-6.236a.596.596 0 0 0-.565-.775h-.015a.592.592 0 0 0-.566.413L8.42 9.913a.597.597 0 0 0 .087.53zM11.52 5.564c0 .23.135.441.344.539l1.91.887-1.91.888a.596.596 0 0 0-.344.538v.016a.591.591 0 0 0 .845.538l3.054-1.42a.596.596 0 0 0 .344-.539V6.97a.596.596 0 0 0-.344-.538l-3.055-1.42a.596.596 0 0 0-.844.538v.015z"/>
    </g>
</svg>
