<svg xmlns="http://www.w3.org/2000/svg" width="20" height="21" viewBox="0 0 20 21">
    <path fill="#6A6A6A" fill-rule="nonzero" d="M18.64 5.659a9.947 9.947 0 0 0-3.636-3.636C13.474 1.13 11.802.683 9.99.683c-1.813 0-3.484.447-5.015 1.34A9.945 9.945 0 0 0 1.34 5.66C.447 7.189 0 8.86 0 10.673c0 1.812.447 3.483 1.34 5.014a9.947 9.947 0 0 0 3.635 3.636c1.53.893 3.202 1.34 5.014 1.34 1.813 0 3.484-.447 5.015-1.34a9.945 9.945 0 0 0 3.635-3.636c.893-1.53 1.34-3.202 1.34-5.014 0-1.812-.447-3.484-1.34-5.014zm-6.985 11.257c0 .122-.04.221-.118.3a.404.404 0 0 1-.298.116H8.74a.405.405 0 0 1-.3-.117.405.405 0 0 1-.116-.299V14.42c0-.122.039-.221.117-.3a.406.406 0 0 1 .3-.116h2.497c.121 0 .22.039.298.117a.405.405 0 0 1 .118.299v2.497zm3.167-7.687c-.109.32-.23.583-.364.787a3.014 3.014 0 0 1-.58.624c-.25.213-.45.365-.598.456-.147.09-.36.215-.637.37a2.19 2.19 0 0 0-.708.644c-.187.265-.28.48-.28.644 0 .122-.04.221-.117.3a.404.404 0 0 1-.3.116H8.742a.405.405 0 0 1-.299-.117.405.405 0 0 1-.117-.3v-.467c0-.581.228-1.126.683-1.633.455-.507.956-.882 1.502-1.125.416-.19.711-.386.885-.585.173-.2.26-.464.26-.794 0-.286-.163-.542-.488-.767a1.905 1.905 0 0 0-1.112-.338c-.451 0-.824.104-1.119.312-.286.208-.659.607-1.118 1.196a.384.384 0 0 1-.326.157.368.368 0 0 1-.247-.078L5.528 7.33c-.199-.156-.234-.338-.104-.546 1.11-1.847 2.719-2.77 4.826-2.77a4.94 4.94 0 0 1 2.211.533c.72.355 1.32.858 1.802 1.508.48.65.722 1.357.722 2.12a3.3 3.3 0 0 1-.163 1.054z"/>
</svg>
