<svg xmlns="http://www.w3.org/2000/svg" width="22" height="22" viewBox="0 0 22 22">
    <path fill="#A9BCC3" fill-rule="nonzero" d="M21.284 20.027l-5.232-5.443a8.849 8.849 0 0 0 2.082-5.707C18.134 3.982 14.152 0 9.257 0 4.362 0 .38 3.982.38 8.877c0 4.895 3.982 8.877 8.877 8.877a8.782 8.782 0 0 0 5.086-1.606l5.273 5.484c.22.229.516.355.834.355a1.16 1.16 0 0 0 .834-1.96zM9.257 2.316a6.569 6.569 0 0 1 6.561 6.561 6.569 6.569 0 0 1-6.561 6.562 6.569 6.569 0 0 1-6.561-6.562 6.569 6.569 0 0 1 6.561-6.561z"/>
</svg>
