<svg xmlns="http://www.w3.org/2000/svg" width="20" height="19" viewBox="0 0 20 19">
    <path fill="#6A6A6A" fill-rule="nonzero" d="M19.626 3.418a1.11 1.11 0 0 0-.816-.336h-3.455V1.931c0-.528-.188-.98-.564-1.356a1.849 1.849 0 0 0-1.355-.563h-6.91c-.528 0-.98.187-1.356.563a1.848 1.848 0 0 0-.563 1.356v1.151H1.152c-.32 0-.592.112-.816.336A1.11 1.11 0 0 0 0 4.234V5.77c0 .567.166 1.14.498 1.715.332.576.78 1.096 1.343 1.56.564.463 1.256.853 2.076 1.17.82.315 1.681.493 2.585.533.336.432.716.812 1.14 1.14.304.271.513.561.63.87.115.307.173.665.173 1.073 0 .432-.122.796-.366 1.091-.243.296-.633.444-1.17.444-.599 0-1.133.182-1.6.546-.468.364-.702.822-.702 1.374v.767c0 .113.035.205.107.276a.374.374 0 0 0 .276.108h9.981a.374.374 0 0 0 .276-.108.375.375 0 0 0 .108-.276v-.767c0-.552-.234-1.01-.702-1.374a2.539 2.539 0 0 0-1.602-.546c-.535 0-.925-.148-1.169-.444-.244-.295-.365-.66-.365-1.091 0-.408.057-.766.173-1.074.117-.308.326-.598.63-.87a6.393 6.393 0 0 0 1.14-1.14 8.139 8.139 0 0 0 2.585-.533c.82-.316 1.512-.706 2.075-1.17a5.718 5.718 0 0 0 1.344-1.559c.332-.576.498-1.148.498-1.715V4.234c0-.32-.113-.592-.336-.816zM2.669 7.713c-.756-.672-1.133-1.32-1.133-1.944V4.618h3.07c0 1.671.296 3.155.888 4.45-1.127-.231-2.069-.683-2.825-1.355zM18.426 5.77c0 .623-.378 1.271-1.133 1.943-.756.672-1.698 1.124-2.826 1.356.592-1.296.888-2.78.888-4.451h3.07V5.77z"/>
</svg>
