<svg xmlns="http://www.w3.org/2000/svg" width="20" height="19" viewBox="0 0 20 19">
    <g fill="#6A6A6A" fill-rule="evenodd">
        <path d="M17.843 9.11c.033.014.061.033.091.05l.259-.593c-.034-.01-.067-.017-.1-.032a.783.783 0 0 1-.405-1.03l-1.46-.637 1.592 2.234.023.007zM.406 9.534l8.859 3.863-5.409-7.592-.2-.282.281-.2a.438.438 0 0 0 .102-.61l-.2-.282.281-.2.51-.364.282-.2.201.28a.439.439 0 0 0 .61.103.434.434 0 0 0 .102-.61l-.2-.28.28-.201.511-.364.005-.004-2.51-1.094A.783.783 0 0 1 2.88 1.9l-.25.574a.783.783 0 1 1-.627 1.436l-.25.574a.783.783 0 1 1-.626 1.435l-.25.574A.783.783 0 1 1 .25 7.93L0 8.503a.782.782 0 0 1 .406 1.03z"/>
        <path d="M5.923 4.332a.781.781 0 0 1-1.092-.183l-.51.363c.251.352.17.841-.183 1.092l5.743 8.062.39.547.39.547 2.198 3.086a.781.781 0 0 1 1.092.183c.02.03.035.06.052.091l.527-.375c-.024-.026-.049-.05-.07-.08a.783.783 0 0 1 1.276-.908c.02.03.035.06.051.091l.528-.376c-.024-.025-.049-.05-.07-.078a.783.783 0 1 1 1.275-.909c.021.03.036.06.052.091l.527-.375c-.024-.026-.048-.05-.069-.08a.783.783 0 1 1 1.275-.908c.02.03.036.06.052.091l.527-.375c-.024-.025-.048-.05-.069-.08a.783.783 0 0 1 .183-1.09l-1.786-2.509-.124-.173-.017-.023-.46-.648-.243-.34L15.61 6.6l-.39-.547-.39-.548L11.28.517a.781.781 0 0 1-1.092-.183l-.51.363a.783.783 0 1 1-1.275.908l-.51.364a.78.78 0 0 1 .01.89.769.769 0 0 1-.193.202c-.032.022-.066.032-.1.05a.777.777 0 0 1-.354.095.781.781 0 0 1-.638-.328l-.51.363c.25.351.168.84-.184 1.091z"/>
    </g>
</svg>
