<svg xmlns="http://www.w3.org/2000/svg" width="20" height="21" viewBox="0 0 20 21">
    <g fill="#6A6A6A" fill-rule="evenodd">
        <path d="M.549 17.121a1.872 1.872 0 1 0 2.649 2.648l6.148-6.15-2.649-2.647L.55 17.121zM15.916 5.725l2.678-1.384 1.402-2.71L18.689.322l-2.71 1.404-1.387 2.675-3.257 3.26 1.321 1.324z"/>
        <path d="M16.502 12.833l-.252-.025c-.457 0-.89.093-1.294.243L7.269 5.363c.15-.404.243-.837.243-1.294l-.025-.253C7.355 1.868 5.75.323 3.767.323c-.577 0-1.117.141-1.605.375L4.65 3.186c.13.131.22.286.28.45.164.441.076.958-.28 1.315a1.245 1.245 0 0 1-.883.366c-.147 0-.293-.032-.433-.085a1.242 1.242 0 0 1-.45-.282L.396 2.463A3.706 3.706 0 0 0 .022 4.07c0 1.982 1.544 3.588 3.493 3.72l.252.025c.457 0 .89-.094 1.295-.242l7.685 7.686c-.147.405-.24.838-.24 1.295l.025.252a3.73 3.73 0 0 0 3.72 3.493c.576 0 1.118-.138 1.605-.374l-2.488-2.488a1.275 1.275 0 0 1-.283-.448 1.245 1.245 0 0 1 1.166-1.683c.147 0 .292.03.434.085.164.06.32.148.448.28l2.488 2.489c.235-.49.375-1.03.375-1.606a3.736 3.736 0 0 0-3.495-3.72z"/>
    </g>
</svg>
