<svg xmlns="http://www.w3.org/2000/svg" width="20" height="20" viewBox="0 0 20 20">
    <g fill="#6A6A6A" fill-rule="nonzero">
        <path d="M11.926 5.844H1.573C.708 5.844 0 6.552 0 7.417V17.77c0 .865.708 1.573 1.573 1.573h10.353c.865 0 1.573-.708 1.573-1.573V7.417c0-.865-.708-1.573-1.573-1.573zM3.171 17.642a1.47 1.47 0 1 1 0-2.94 1.47 1.47 0 0 1 0 2.94zm0-7.157a1.47 1.47 0 1 1 0-2.94 1.47 1.47 0 0 1 0 2.94zm3.579 3.392a1.47 1.47 0 1 1 0-2.941 1.47 1.47 0 0 1 0 2.94zm3.578 3.765a1.47 1.47 0 1 1 0-2.94 1.47 1.47 0 0 1 0 2.94zm0-7.157a1.47 1.47 0 1 1 0-2.94 1.47 1.47 0 0 1 0 2.94z"/>
        <path d="M18.248.08H7.073c-.933 0-1.697.763-1.697 1.697v2.538s-.03.633.698.633h5.663a2.812 2.812 0 0 1 2.808 2.808v6.157c0 .736.662.736 1.007.736h2.696c.934 0 1.698-.764 1.698-1.697V1.777c0-.934-.764-1.698-1.698-1.698zm-1.725 5.009a1.587 1.587 0 1 1 0-3.174 1.587 1.587 0 0 1 0 3.174z"/>
    </g>
</svg>
