<svg xmlns="http://www.w3.org/2000/svg" width="28" height="31" viewBox="0 0 28 31">
    <g fill="none" fill-rule="evenodd">
        <path fill="#A9BCC3" fill-rule="nonzero" d="M27.107 17.003a5.295 5.295 0 0 0 .893-2.98c0-1.256-.461-2.346-1.385-3.273-.924-.927-2.017-1.39-3.281-1.39h-3.209c.584-1.206.876-2.376.876-3.51 0-1.426-.214-2.56-.639-3.4-.425-.841-1.045-1.46-1.86-1.856C17.689.198 16.772 0 15.75 0c-.62 0-1.167.225-1.64.677-.523.511-.9 1.17-1.13 1.974-.232.804-.417 1.575-.557 2.313-.14.737-.355 1.258-.647 1.563a35.13 35.13 0 0 0-1.95 2.34c-1.228 1.596-2.06 2.541-2.498 2.834H2.333c-.644 0-1.194.229-1.65.685A2.259 2.259 0 0 0 0 14.041v11.7c0 .646.228 1.197.684 1.654a2.245 2.245 0 0 0 1.65.686h5.25c.267 0 1.105.244 2.515.732 1.495.524 2.81.923 3.946 1.197a14.67 14.67 0 0 0 3.455.412H19.852c1.713 0 3.092-.491 4.138-1.472 1.044-.982 1.561-2.32 1.55-4.013.728-.939 1.093-2.024 1.093-3.254 0-.268-.018-.53-.055-.787a5.262 5.262 0 0 0 .693-2.632c0-.439-.054-.86-.164-1.261zM4.32 25.393a1.12 1.12 0 0 1-.82.348 1.12 1.12 0 0 1-.82-.347 1.126 1.126 0 0 1-.347-.823c0-.317.116-.59.347-.823a1.12 1.12 0 0 1 .82-.347c.316 0 .59.116.82.347.231.232.347.506.347.823 0 .317-.116.592-.347.823zm20.956-9.87c-.262.56-.587.847-.976.859.182.207.334.497.456.868.121.372.182.71.182 1.015 0 .84-.322 1.566-.966 2.175.219.39.328.81.328 1.261 0 .451-.106.899-.319 1.344-.212.444-.501.764-.865.96.06.365.09.706.09 1.023 0 2.035-1.166 3.053-3.5 3.053h-2.205c-1.593 0-3.67-.445-6.235-1.335-.06-.024-.237-.088-.529-.192-.291-.103-.507-.18-.647-.228-.14-.05-.352-.12-.638-.21a10.219 10.219 0 0 0-.693-.201 8.227 8.227 0 0 0-.601-.12 3.665 3.665 0 0 0-.574-.054H7v-11.7h.584c.194 0 .41-.055.647-.164.237-.11.48-.274.729-.494.25-.22.483-.436.702-.649.219-.213.462-.481.73-.804a36.183 36.183 0 0 0 1.202-1.527c.231-.304.371-.487.42-.548.668-.829 1.136-1.383 1.403-1.664.498-.524.86-1.191 1.085-2.002.225-.81.41-1.575.555-2.294.146-.72.377-1.237.694-1.554 1.166 0 1.944.286 2.333.86.389.572.583 1.456.583 2.65 0 .719-.292 1.697-.875 2.934-.584 1.237-.875 2.21-.875 2.916h6.417c.608 0 1.148.234 1.622.704.474.47.712 1.014.712 1.636 0 .427-.131.92-.392 1.482z"/>
        <circle cx="3.5" cy="24.5" r="1.5" fill="#F90A1B"/>
    </g>
</svg>
