<svg xmlns="http://www.w3.org/2000/svg" width="28" height="31" viewBox="0 0 28 31">
    <g fill="none" fill-rule="evenodd">
        <path fill="#A9BCC3" d="M13.117 0l-1.92 1.783 3.2 3.8H7.682C3.44 5.583 0 9.185 0 13.627V21h2.56v-7.373c0-2.961 2.294-5.362 5.122-5.362h6.754l-3.201 3.8 1.92 1.783L19 6.924 13.117 0z"/>
        <path fill="#F71424" d="M25.44 9v7.373c0 2.961-2.294 5.362-5.122 5.362h-6.754l3.201-3.8-1.92-1.783L9 23.076 14.877 30l1.92-1.783-3.2-3.8h6.721c4.242 0 7.682-3.602 7.682-8.044V9h-2.56z"/>
    </g>
</svg>
